<svg xmlns="http://www.w3.org/2000/svg" viewBox="0 0 100 90.95"><defs><style>.cls-1{fill:#fff;}</style></defs><g id="Слой_2" data-name="Слой 2"><g id="icons"><g id="Alarm"><path class="cls-1" d="M50.07,6.07A40.13,40.13,0,1,0,90.2,46.2,40.13,40.13,0,0,0,50.07,6.07Zm22.4,43.86H56.53a7.46,7.46,0,1,1-10.2-10.19V19.13a3.74,3.74,0,0,1,7.47,0V39.74a7.6,7.6,0,0,1,2.73,2.73H72.47a3.73,3.73,0,0,1,0,7.46Z"/><path class="cls-1" d="M94.14,25.38A14,14,0,1,0,76.53,3.71,40.23,40.23,0,0,1,94.14,25.38Z"/><path class="cls-1" d="M5.86,26.31A14,14,0,1,1,23.47,4.64,40.27,40.27,0,0,0,5.86,26.31Z"/><rect class="cls-1" x="16.47" y="63" width="8.4" height="29.87" rx="4.2" transform="translate(48.11 2.12) rotate(34.75)"/><rect class="cls-1" x="75.27" y="63" width="8.4" height="29.87" rx="4.2" transform="translate(189.18 96.67) rotate(145.25)"/></g></g></g></svg>