<svg xmlns="http://www.w3.org/2000/svg" viewBox="0 0 90.87 100"><defs><style>.cls-1{fill:#fff;}</style></defs><g id="Слой_2" data-name="Слой 2"><g id="icons"><g id="Anchor"><path class="cls-1" d="M49.15,34.47a3.19,3.19,0,0,1,5.14,2,12.69,12.69,0,0,1-4.54,13.13l-.49.41s0,.06,0,.16L67.33,76.58c.38-.52.75-1,1.08-1.49,4.46-6.68,8.06-13.74,9.44-21.75.91-5.3.57-10.47-2.06-15.31-.29-.53-.62-1-1-1.66-.59.4-1.1.77-1.63,1.11a3.1,3.1,0,0,1-3.53.13c-1.52-.93-1.93-2.51-1.19-4.58a18.14,18.14,0,0,0,.91-10.44c-.81-3.34,2-5.43,4.59-4.13a26.47,26.47,0,0,1,8.54,7.17c8.3,9.93,9.7,21.4,7.4,33.63C87.75,70.62,83,80.93,77,90.73a48.48,48.48,0,0,1-3,4.55,4.37,4.37,0,0,1-2.18,1.56c-13.12,3.09-26.36,4.29-39.73,1.88-7.57-1.37-14.6-4-20.51-9.14A34.38,34.38,0,0,1,.42,71.71,13.77,13.77,0,0,1,0,69a3.19,3.19,0,0,1,4-3.22c4.4,1.23,8.79,2.53,13.18,3.82A3,3,0,0,1,19.41,72a3.27,3.27,0,0,1-1.27,3.33c-.51.39-1.05.73-1.84,1.27,1.31,1.34,2.45,2.7,3.78,3.84a23.84,23.84,0,0,0,11.31,5.06c8.5,1.6,16.84.57,25.25-1.49L38.44,57.49a13.56,13.56,0,0,1-6.21,2.13A12.71,12.71,0,0,1,23.9,57.4a3.22,3.22,0,0,1,0-5.54C26.25,50.19,47.05,35.89,49.15,34.47Z"/><rect class="cls-1" x="26.21" y="25.88" width="10.86" height="20.01" transform="translate(-14.72 24.07) rotate(-34.29)"/><path class="cls-1" d="M30.08,32.73A17.93,17.93,0,1,1,34.79,7.82,17.94,17.94,0,0,1,30.08,32.73ZM15.39,11.19a8.15,8.15,0,1,0,11.33,2.14A8.16,8.16,0,0,0,15.39,11.19Z"/></g></g></g></svg>