<svg xmlns="http://www.w3.org/2000/svg" viewBox="0 0 82.48 99.52"><defs><style>.cls-1{fill:#fff;}</style></defs><g id="Слой_2" data-name="Слой 2"><g id="icons"><g id="Anew"><path class="cls-1" d="M64.17,34.7,63.23,9.41S17.09,9.41,1,45.08a1.09,1.09,0,0,0,1.67,1.3C32.83,22.5,64.17,34.7,64.17,34.7Z"/><path class="cls-1" d="M82.48,21.91,61.71,43a2.66,2.66,0,0,1-4.55-1.86V2.66A2.66,2.66,0,0,1,61.71.8Z"/><path class="cls-1" d="M18.31,64.82l.94,25.29s46.14,0,62.27-35.67a1.09,1.09,0,0,0-1.67-1.31C49.65,77,18.31,64.82,18.31,64.82Z"/><path class="cls-1" d="M0,77.61,20.77,56.5a2.66,2.66,0,0,1,4.55,1.86v38.5a2.66,2.66,0,0,1-4.55,1.86Z"/></g></g></g></svg>