<svg xmlns="http://www.w3.org/2000/svg" viewBox="0 0 100 71.72"><defs><style>.cls-1{fill:#fff;}</style></defs><g id="Слой_2" data-name="Слой 2"><g id="icons"><g id="Anvil"><path class="cls-1" d="M0,5.85H33.48a0,0,0,0,1,0,0V31.41a0,0,0,0,1,0,0H17.29A17.29,17.29,0,0,1,0,14.12V5.85A0,0,0,0,1,0,5.85Z"/><path class="cls-1" d="M85.54,24.88H100V7.49A7.49,7.49,0,0,0,92.51,0H41.12V44.79A10.26,10.26,0,0,1,30.86,55.05H20.48V71.72H46.9l1.66-2.27a7.31,7.31,0,0,1,12,.25l1.34,2h27.5V60.53a5.48,5.48,0,0,0-5.48-5.48H78.06A10.26,10.26,0,0,1,67.8,44.79V42.63A17.75,17.75,0,0,1,85.54,24.88Z"/></g></g></g></svg>