<svg xmlns="http://www.w3.org/2000/svg" viewBox="0 0 100 99.44"><defs><style>.cls-1{fill:#fff;}</style></defs><g id="Слой_2" data-name="Слой 2"><g id="icons"><g id="Appeal"><path class="cls-1" d="M14.42,99.44C14.42,89.37,30.35,81.2,50,81.2s35.58,8.17,35.58,18.24Z"/><path class="cls-1" d="M50,76.64c1.6,0,3.16.06,4.71.16V11H45.29V76.8C46.84,76.7,48.4,76.64,50,76.64Z"/><path class="cls-1" d="M37.23,5.47H62.77a0,0,0,0,1,0,0v.35a6.94,6.94,0,0,1-6.94,6.94H44.17a6.94,6.94,0,0,1-6.94-6.94V5.47A0,0,0,0,1,37.23,5.47Z"/><circle class="cls-1" cx="50" cy="6.39" r="6.39"/><circle class="cls-1" cx="50" cy="24.63" r="10.04"/><path class="cls-1" d="M12.59,21.9H87.41a0,0,0,0,1,0,0v2.47a3,3,0,0,1-3,3H15.59a3,3,0,0,1-3-3V21.9a0,0,0,0,1,0,0Z"/><path class="cls-1" d="M6.21,50.18,18.05,29.27,29.66,50.18h4.17L19.66,24.66a1.8,1.8,0,0,0-1.58-.94h0a1.81,1.81,0,0,0-1.59.93L2,50.18Z"/><path class="cls-1" d="M35.05,57.48a2,2,0,0,1,2,2.33C35.66,67.27,27.9,73,18.52,73S1.39,67.27,0,59.81a2,2,0,0,1,2-2.33Z"/><path class="cls-1" d="M69.16,50.18,81,29.27,92.61,50.18h4.17L82.61,24.66A1.8,1.8,0,0,0,81,23.72h0a1.82,1.82,0,0,0-1.59.93L65,50.18Z"/><path class="cls-1" d="M98,57.48a2,2,0,0,1,2,2.33C98.61,67.27,90.85,73,81.48,73S64.34,67.27,63,59.81a2,2,0,0,1,2-2.33Z"/></g></g></g></svg>