<svg xmlns="http://www.w3.org/2000/svg" viewBox="0 0 77.73 100"><defs><style>.cls-1{fill:#fff;}</style></defs><g id="Слой_2" data-name="Слой 2"><g id="icons"><g id="Apple"><path class="cls-1" d="M52.7,100H49.56a3.1,3.1,0,0,0-.52-.15,12.57,12.57,0,0,1-7.73-3.49c-1.73-1.68-3.07-1.56-4.93,0a17.09,17.09,0,0,1-3.81,2.51A27.72,27.72,0,0,1,28.16,100H25c-.78-.16-1.57-.29-2.34-.49-4.31-1.09-7.52-3.78-10.2-7.19-3.66-4.65-5.93-10-7.79-15.57A128.21,128.21,0,0,1,.4,58.38,21.23,21.23,0,0,1,3.49,42.44a19.49,19.49,0,0,1,21.39-8c2.87.82,5.22,2.52,7.72,4a11.41,11.41,0,0,0,10.69.86,48.9,48.9,0,0,0,5.08-3A19,19,0,0,1,71.23,39a19.42,19.42,0,0,1,6.4,16.68A98.06,98.06,0,0,1,74,73.49,58.81,58.81,0,0,1,66.5,90.62c-2.2,3.21-4.78,6.06-8.38,7.71A41,41,0,0,1,52.7,100Z"/><path class="cls-1" d="M43.52,17.27c1.21-1.16,2.45-2.44,3.77-3.6A36.42,36.42,0,0,1,57.07,7.5a3,3,0,0,1,3.6.77,2.88,2.88,0,0,1,.26,3.5A4.05,4.05,0,0,1,59.41,13a32,32,0,0,0-11.66,8.81,36.2,36.2,0,0,0-2.84,4.29c-1.88,3.12-6.4,4.57-9.43,2.49a30.57,30.57,0,0,0-7.23-4,12.38,12.38,0,0,0-1.85-.58,2.32,2.32,0,0,1-1.9-1.57A22.54,22.54,0,0,1,22.91,9.24a51.54,51.54,0,0,1,1.8-7.12A2.89,2.89,0,0,1,29,.38c5.29,2.76,9.74,6.44,12.53,11.82C42.31,13.81,42.85,15.58,43.52,17.27Z"/></g></g></g></svg>