<svg xmlns="http://www.w3.org/2000/svg" viewBox="0 0 100 84.3"><defs><style>.cls-1{fill:#fff;}</style></defs><g id="Слой_2" data-name="Слой 2"><g id="icons"><g id="Armor"><path class="cls-1" d="M21.35,3.48h0a0,0,0,0,1,0,0V14.41A21.35,21.35,0,0,1,0,35.76H0a0,0,0,0,1,0,0V24.82A21.35,21.35,0,0,1,21.35,3.48Z"/><path class="cls-1" d="M78.65,3.48h0A21.35,21.35,0,0,1,100,24.82V35.76a0,0,0,0,1,0,0h0A21.35,21.35,0,0,1,78.65,14.41V3.48A0,0,0,0,1,78.65,3.48Z" transform="translate(178.65 39.23) rotate(-180)"/><path class="cls-1" d="M47,17.86C38.66,15.94,35.94,7.23,35.15,3.48H27.68V18.4a20.41,20.41,0,0,1-5.74,14.21l6.37,37.61H47Z"/><path class="cls-1" d="M72.83,18.4V3.48H65.06C64.47,7.23,62.21,15.93,54,17.86V70.22H72.44l6.33-37.4A20.42,20.42,0,0,1,72.83,18.4Z"/><path class="cls-1" d="M43,0S41.23,10.43,50.5,10.43,58,0,58,0Z"/><path class="cls-1" d="M28.77,77.35H72.22a0,0,0,0,1,0,0v4.29a2.66,2.66,0,0,1-2.66,2.66H31.43a2.66,2.66,0,0,1-2.66-2.66V77.35A0,0,0,0,1,28.77,77.35Z"/></g></g></g></svg>