<svg xmlns="http://www.w3.org/2000/svg" viewBox="0 0 100 95.56"><defs><style>.cls-1{fill:#fff;}</style></defs><g id="Слой_2" data-name="Слой 2"><g id="icons"><g id="Arrows"><path class="cls-1" d="M23.51,68.87c1.3-.06,1.88.3,1.82,1.73s-.07,3-.08,4.5l64-59.93a17.34,17.34,0,0,1,0-5.34,12.69,12.69,0,0,1-5.47-.18L20.42,69Z"/><path class="cls-1" d="M31.31,62.24c-3.3.15-6.6.17-9.9.36a3.29,3.29,0,0,0-1.89.93C13.28,69.65,7.08,75.82.88,82A13.94,13.94,0,0,0,0,83.07c.64,0,7.53-.06,10.64-.17,1.2,0,1.74.41,1.64,1.64-.12,1.57-.28,8.73-.29,11,.44-.32,13.74-13.39,20.18-19.86A3.38,3.38,0,0,0,33,73.6c.11-3.2,0-6.42.17-9.62C33.18,62.55,32.61,62.18,31.31,62.24Z"/><path class="cls-1" d="M100,.34,99.67,0C90.79,5.1,84.13,6.2,71.46,5.7,73.31,7.59,79.73,13.47,87,12c-1.5,10.2,5.26,14.06,7.22,16.07C92.83,16.44,94.84,9.15,100,.34Z"/><path class="cls-1" d="M37.76,40.46l5.73-5.29L16.22,9.65a12.69,12.69,0,0,1-5.47.18,17.34,17.34,0,0,1,0,5.34Z"/><polygon class="cls-1" points="49.98 41.26 44.26 46.54 49.84 51.76 55.56 46.48 49.98 41.26"/><path class="cls-1" d="M62.06,52.56l-5.73,5.29L74.75,75.1c0-1.5,0-3-.08-4.5s.52-1.79,1.82-1.73l3.09.1Z"/><path class="cls-1" d="M68.69,62.24c3.3.15,6.6.17,9.9.36a3.29,3.29,0,0,1,1.89.93C86.72,69.65,92.92,75.82,99.12,82a13.94,13.94,0,0,1,.88,1.1c-.64,0-1,.08-1.32.07-3.11-.07-6.21-.13-9.32-.24-1.2,0-1.74.41-1.64,1.64.12,1.57.22,3.15.26,4.72,0,2,0,4,0,6.3a8.73,8.73,0,0,1-.74-.54c-6.49-6.43-13-12.85-19.44-19.32A3.38,3.38,0,0,1,67,73.6c-.11-3.2,0-6.42-.17-9.62C66.82,62.55,67.39,62.18,68.69,62.24Z"/><path class="cls-1" d="M0,.34.33,0C9.21,5.1,15.87,6.2,28.54,5.7,26.69,7.59,20.27,13.47,13,12c1.5,10.2-5.26,14.06-7.22,16.07C7.17,16.44,5.16,9.15,0,.34Z"/></g></g></g></svg>