<svg xmlns="http://www.w3.org/2000/svg" viewBox="0 0 91.51 100"><defs><style>.cls-1{fill:#fff;}</style></defs><g id="Слой_2" data-name="Слой 2"><g id="icons"><g id="Axe"><rect class="cls-1" x="40.75" y="27.27" width="9.97" height="24.88" transform="translate(-11.45 19.76) rotate(-21.73)"/><rect class="cls-1" x="55.18" y="51.06" width="9.97" height="48.83" transform="translate(-23.67 27.64) rotate(-21.73)"/><rect class="cls-1" x="43.04" y="50.52" width="16.66" height="6.94" rx="1.4" transform="translate(-16.34 22.85) rotate(-21.73)"/><path class="cls-1" d="M88.6,22.07v0h0C80.78,2.48,64.16,0,64.16,0c2.35,19.23-11.75,23.11-11.75,23.11L57,34.64v0L61.61,46.2S74.52,39.32,86,54.89c0,0,10.36-13.23,2.57-32.81h0Z"/><path class="cls-1" d="M2.9,56.25h0C-4.83,36.63,5.35,23.52,5.35,23.52c11.4,15.64,24.11,8.89,24.11,8.89L34,44v0l4.55,11.54s-13.89,3.76-11.52,23c0,0-16.4-2.61-24.15-22.21h0Z"/><path class="cls-1" d="M34.7,25.47,44,21.78l.21-4.86-7.92-3.27a1.42,1.42,0,0,0-1.85.74l-3.49,7.82Z"/></g></g></g></svg>