<svg xmlns="http://www.w3.org/2000/svg" viewBox="0 0 99.65 86.83"><defs><style>.cls-1{fill:#fff;}</style></defs><g id="Слой_2" data-name="Слой 2"><g id="icons"><g id="Backwards"><path class="cls-1" d="M86.89,74.17A43.43,43.43,0,0,0,43.41,1.94,43.64,43.64,0,0,0,13.25,37.11l12.27,1.81A31,31,0,1,1,45.74,72.61a2,2,0,0,0-2.46,1.08l-3.34,7.8a2,2,0,0,0,1.13,2.62,43.51,43.51,0,0,0,45.82-9.94Z"/><path class="cls-1" d="M14.93,53.63,37.81,39.5A2.66,2.66,0,0,0,37,34.65L3.25,27A2.65,2.65,0,0,0,.43,31Z"/><path class="cls-1" d="M77.08,51.89H62a7.09,7.09,0,1,1-9.68-9.68V22.65a3.55,3.55,0,0,1,7.09,0V42.21A7.15,7.15,0,0,1,62,44.8H77.08a3.55,3.55,0,1,1,0,7.09Z"/></g></g></g></svg>