<svg xmlns="http://www.w3.org/2000/svg" viewBox="0 0 100 89.84"><defs><style>.cls-1{fill:#fff;}</style></defs><g id="Слой_2" data-name="Слой 2"><g id="icons"><g id="Backpack"><path class="cls-1" d="M89.38,78.5V52.06H94.9a5.1,5.1,0,0,1,5.1,5.1v11C100,72.88,89.38,78.5,89.38,78.5Z"/><path class="cls-1" d="M10.62,78.5V52.06H5.1A5.1,5.1,0,0,0,0,57.16v11C0,72.88,10.62,78.5,10.62,78.5Z"/><path class="cls-1" d="M82,47.75V79.56A10.28,10.28,0,0,1,71.7,89.84H28.3A10.28,10.28,0,0,1,18,79.56V47.75H44.57v6.92a4.9,4.9,0,0,0,9.8,0V47.75Z"/><path class="cls-1" d="M82,23.41V40.2H54.37V35.73a4.9,4.9,0,0,0-9.8,0V40.2H18V23.41A10.36,10.36,0,0,1,28.38,13.06H71.62A10.36,10.36,0,0,1,82,23.41Z"/><path class="cls-1" d="M68,16.32H60.48V8.62a1.06,1.06,0,0,0-1.06-1.06H39.11a1.06,1.06,0,0,0-1.06,1.06v7.7H30.5V8.62A8.63,8.63,0,0,1,39.11,0H59.42A8.63,8.63,0,0,1,68,8.62Z"/></g></g></g></svg>