<svg xmlns="http://www.w3.org/2000/svg" viewBox="0 0 85.92 100"><defs><style>.cls-1{fill:#fff;}</style></defs><g id="Слой_2" data-name="Слой 2"><g id="icons"><g id="Bag"><path class="cls-1" d="M25.53,100a37,37,0,1,1,34.73,0Z"/><rect class="cls-1" y="70.45" width="85.92" height="29.55" rx="14.78"/><path class="cls-1" d="M37.11,24.53H48.48a6,6,0,0,1,6,6V33a0,0,0,0,1,0,0H31.11a0,0,0,0,1,0,0V30.52A6,6,0,0,1,37.11,24.53Z"/><path class="cls-1" d="M36.25,16.85H49.34a8.48,8.48,0,0,1,6.12,2.6C61.56,11.52,60.09,0,60.09,0H24.62s-1.53,12,5.05,20A8.46,8.46,0,0,1,36.25,16.85Z"/></g></g></g></svg>