<svg xmlns="http://www.w3.org/2000/svg" viewBox="0 0 85.92 100"><defs><style>.cls-1{fill:#fff;}</style></defs><g id="Слой_2" data-name="Слой 2"><g id="icons"><g id="Bag_of_Money"><path class="cls-1" d="M37.11,24.53H48.48a6,6,0,0,1,6,6V33a0,0,0,0,1,0,0H31.11a0,0,0,0,1,0,0V30.52A6,6,0,0,1,37.11,24.53Z"/><path class="cls-1" d="M36.25,16.85H49.34a8.48,8.48,0,0,1,6.12,2.6C61.56,11.52,60.09,0,60.09,0H24.62s-1.53,12,5.05,20A8.46,8.46,0,0,1,36.25,16.85Z"/><path class="cls-1" d="M39.48,57.12v0a3.21,3.21,0,0,0,.7,2.18,4,4,0,0,0,1.72,1.15l.09,0V54.06a4.64,4.64,0,0,0-1.25.58A2.86,2.86,0,0,0,39.48,57.12Z"/><path class="cls-1" d="M46,67.46l-.57-.18v6.61a4.8,4.8,0,0,0,1.39-.64,3.18,3.18,0,0,0,1.35-2.74v0a3,3,0,0,0-.61-2A3.53,3.53,0,0,0,46,67.46Z"/><path class="cls-1" d="M79.46,73a37,37,0,1,0-73.11.08A14.78,14.78,0,0,0,0,85.22H0A14.82,14.82,0,0,0,14.78,100H71.14A14.82,14.82,0,0,0,85.92,85.22h0A14.79,14.79,0,0,0,79.46,73ZM54,70.4a9.5,9.5,0,0,1-1.29,5.07,8.2,8.2,0,0,1-3.75,3.22,12.31,12.31,0,0,1-3.5.94V85.5H42V79.8H40.91l-2.22-.54a18.94,18.94,0,0,1-4-1.43A7,7,0,0,1,32.22,76l2.7-4.81a12.07,12.07,0,0,0,7.07,3V66.54a26.54,26.54,0,0,1-3.77-1A7,7,0,0,1,35,63a8.85,8.85,0,0,1-1.33-5.25v0a10,10,0,0,1,1.24-5.14,8.07,8.07,0,0,1,3.62-3.25,11.59,11.59,0,0,1,3.44-1V43.59h3.45v4.65a14.73,14.73,0,0,1,1.92.31,16.27,16.27,0,0,1,3.11,1.11,16.73,16.73,0,0,1,2.89,1.75l-2.47,4.94a13,13,0,0,0-3.32-1.92,10,10,0,0,0-2.13-.58v7.52a22.63,22.63,0,0,1,4.31,1.37,7.23,7.23,0,0,1,3,2.64,8.88,8.88,0,0,1,1.22,5Z"/></g></g></g></svg>