<svg xmlns="http://www.w3.org/2000/svg" viewBox="0 0 96.87 100"><defs><style>.cls-1{fill:#fff;}</style></defs><g id="Слой_2" data-name="Слой 2"><g id="icons"><g id="Basket"><path class="cls-1" d="M0,41.55H96.87a0,0,0,0,1,0,0V55.2a7.5,7.5,0,0,1-7.5,7.5H7.5A7.5,7.5,0,0,1,0,55.2V41.55A0,0,0,0,1,0,41.55Z"/><polygon class="cls-1" points="29.63 33.2 48.82 12.95 68 33.2 80.27 33.2 48.82 0 17.36 33.2 29.63 33.2"/><path class="cls-1" d="M9.46,58.8,17.14,100H27.55L22.81,76.74A4.45,4.45,0,0,1,31.54,75l5.09,25h8.46V75.51a4.46,4.46,0,1,1,8.91,0V100h8.46l5.09-25a4.45,4.45,0,0,1,8.73,1.78L71.55,100h9.29l7.67-41.2Z"/></g></g></g></svg>