<svg xmlns="http://www.w3.org/2000/svg" viewBox="0 0 100 83.08"><defs><style>.cls-1{fill:#fff;}</style></defs><g id="Слой_2" data-name="Слой 2"><g id="icons"><g id="Bat"><circle class="cls-1" cx="38.31" cy="26.22" r="12.68"/><ellipse class="cls-1" cx="53.37" cy="48.75" rx="10.33" ry="14.96" transform="translate(-18.26 39.04) rotate(-34.69)"/><path class="cls-1" d="M38,28.29S26,39.43,5.89,40.21c0,0-12.34,26.84-1.29,42.87,0,0,9.26-26.16,24.92-12.59,0,0,3.83-12.1,10.11-13.42s13,4.31,13,4.31L54,49.81Z"/><path class="cls-1" d="M38,28.29S52.68,21,60.5,2.41c0,0,28.39-3.87,39.5,12.12,0,0-26.67,1.22-19.48,20.66,0,0-12.67-.67-16.12,4.74s-.55,13.68-.55,13.68l-11.3-2.82Z"/><path class="cls-1" d="M29.78,34.47S11.33,28.62,14.63,14.28c0,0,10.1.68,14.37,6.18Z"/><path class="cls-1" d="M48.83,21.29S49.85,2,35.27,0c0,0-2.92,9.69.71,15.62Z"/></g></g></g></svg>