<svg xmlns="http://www.w3.org/2000/svg" viewBox="0 0 100 86.1"><defs><style>.cls-1{fill:#fff;}</style></defs><g id="Слой_2" data-name="Слой 2"><g id="icons"><g id="Battery_Charging"><path class="cls-1" d="M52.37.27,21.41,44a.62.62,0,0,0,.32,1l17.39,5.49a.62.62,0,0,1,.41.76l-9,34.14a.62.62,0,0,0,1.09.55L65.81,43.39a.63.63,0,0,0-.28-1L44.2,35a.62.62,0,0,1-.4-.76L53.48.8A.62.62,0,0,0,52.37.27Z"/><polygon class="cls-1" points="30.9 56.36 7.27 56.36 7.27 30.91 23.39 30.91 28.54 23.64 0 23.64 0 63.64 28.98 63.64 30.9 56.36"/><polygon class="cls-1" points="43.09 23.64 39.59 23.64 37.49 30.91 37.94 30.91 43.09 23.64"/><polygon class="cls-1" points="42.25 63.64 43.53 63.64 44.15 61.27 42.25 63.64"/><polygon class="cls-1" points="54.14 23.64 52.03 30.91 80 30.91 80 56.36 62.64 56.36 56.79 63.64 87.27 63.64 87.27 23.64 54.14 23.64"/><path class="cls-1" d="M92.73,32.73H98.5a1.5,1.5,0,0,1,1.5,1.5V53a1.5,1.5,0,0,1-1.5,1.5H92.73a0,0,0,0,1,0,0V32.73A0,0,0,0,1,92.73,32.73Z"/></g></g></g></svg>