<svg xmlns="http://www.w3.org/2000/svg" viewBox="0 0 90.07 100.06"><defs><style>.cls-1{fill:#fff;}</style></defs><g id="Слой_2" data-name="Слой 2"><g id="icons"><g id="Bell_Off"><rect class="cls-1" x="44.83" y="-0.65" width="8.06" height="106.3" rx="3.85" transform="translate(116.56 76.17) rotate(152.22)"/><path class="cls-1" d="M71.36,69.58a39.23,39.23,0,0,1,4.34-3.77,26.91,26.91,0,0,0,5.44-5.43c9.23-12.27,6.33-30.67-6.53-41.24-9.8-8-22.48-9.65-32.62-5.41Z"/><path class="cls-1" d="M35.07,17.89a27.21,27.21,0,0,0-4.49,4.72,26.9,26.9,0,0,0-3.87,7.33c-3.6,10.47-12.2,18.29-22.87,21.94l-2.23.76A2.38,2.38,0,0,0,1,56.8L57,98.48a2.38,2.38,0,0,0,3.79-1.82l.12-3.41a34.83,34.83,0,0,1,5-16.7Z"/><path class="cls-1" d="M38.45,91.18a15.67,15.67,0,1,1-25.16-18.7Z"/><path class="cls-1" d="M69.21,23.54a13.06,13.06,0,1,1,18.28-2.69A13.08,13.08,0,0,1,69.21,23.54ZM80.44,8.45a5.75,5.75,0,1,0,1.18,8A5.77,5.77,0,0,0,80.44,8.45Z"/></g></g></g></svg>