<svg xmlns="http://www.w3.org/2000/svg" viewBox="0 0 91.02 100"><defs><style>.cls-1{fill:#fff;}</style></defs><g id="Слой_2" data-name="Слой 2"><g id="icons"><g id="Bell_On"><path class="cls-1" d="M57.63,99.52a2.4,2.4,0,0,0,3.83-1.83l.13-3.45A36.07,36.07,0,0,1,76.5,66.51,27.25,27.25,0,0,0,82,61c9.32-12.4,6.4-31-6.6-41.68C61.17,7.65,40.91,9.4,30.9,22.85a27.26,27.26,0,0,0-3.9,7.4C23.35,40.84,14.66,48.75,3.88,52.43l-2.26.77A2.4,2.4,0,0,0,1,57.4Z"/><path class="cls-1" d="M38.86,92.15A15.85,15.85,0,0,1,13.43,73.24Z"/><path class="cls-1" d="M69.94,23.79a13.2,13.2,0,1,1,18.48-2.72A13.21,13.21,0,0,1,69.94,23.79ZM81.29,8.54a5.81,5.81,0,1,0,1.19,8.12A5.81,5.81,0,0,0,81.29,8.54Z"/></g></g></g></svg>