<svg xmlns="http://www.w3.org/2000/svg" viewBox="0 0 81.68 100"><defs><style>.cls-1{fill:#fff;}</style></defs><g id="Слой_2" data-name="Слой 2"><g id="icons"><g id="Berets"><path class="cls-1" d="M45.2,61.12s15.32-8.33,28.11-1.93,7.12,19.36,7.12,19.36H0Z"/><polygon class="cls-1" points="0 86 0 100 23.76 100 26.13 94.33 33.8 94.33 33.8 100 41.65 100 41.65 94.33 49.31 94.33 49.31 100 56.69 100 56.69 94.33 64.35 94.33 64.35 100 80.19 100 80.19 86 0 86"/><path class="cls-1" d="M18.52,16.58S18.79,3,35.1,0V10.73Z"/><path class="cls-1" d="M58.78,58.36,38.44,54.61l-.28-4.32L27.94,52.11a2.93,2.93,0,0,1-1-5.76l10.87-1.94-.24-3.76-9.6,1.71a2.93,2.93,0,0,1-1-5.76l10.25-1.83L36.92,31l-9,1.6a2.93,2.93,0,0,1-1-5.76l9.63-1.72-.6-9.33L0,26.68V78.55l69.43-1.41Z"/></g></g></g></svg>