<svg xmlns="http://www.w3.org/2000/svg" viewBox="0 0 100 95.03"><defs><style>.cls-1{fill:#fff;}</style></defs><g id="Слой_2" data-name="Слой 2"><g id="icons"><g id="Blimp"><path class="cls-1" d="M72.5,22.53C72.5,35,50,95,50,95S27.43,35,27.43,22.53a22.54,22.54,0,0,1,45.07,0Z"/><path class="cls-1" d="M77.46,77.56c-3.56.31-9.58,1-19.7,16.31.06,0,9.18-23.88,9.18-23.88s5.48-4.09,11.44-2.39C85.23,69.56,93,80,91.11,79.36A38.17,38.17,0,0,0,77.46,77.56Z"/><path class="cls-1" d="M21.72,77.56c3.57.31,9.58,1,19.71,16.31-.06,0-9.19-23.88-9.19-23.88S26.77,65.9,20.81,67.6C14,69.56,6.21,80,8.07,79.36A38.19,38.19,0,0,1,21.72,77.56Z"/><path class="cls-1" d="M21.2,32C11.5,34.09.63,41.86,0,59.15a1.56,1.56,0,0,0,2.55,1.27c4.78-3.87,15.56-10.7,25.93-4.07C25.55,47.45,22.84,38.65,21.2,32Z"/><path class="cls-1" d="M78.8,32c9.7,2.12,20.57,9.89,21.2,27.18a1.56,1.56,0,0,1-2.55,1.27c-4.78-3.87-15.56-10.7-25.93-4.07C74.45,47.45,77.16,38.65,78.8,32Z"/></g></g></g></svg>