<svg xmlns="http://www.w3.org/2000/svg" viewBox="0 0 101.46 77.31"><defs><style>.cls-1{fill:#fff;}</style></defs><g id="Слой_2" data-name="Слой 2"><g id="icons"><g id="Bomb"><ellipse class="cls-1" cx="63.79" cy="11.49" rx="4" ry="11" transform="translate(11.77 50.15) rotate(-46.83)"/><path class="cls-1" d="M59,16.59a33.08,33.08,0,0,1,6.73,8.9L71.81,19,55.76,4l-6.07,6.48A33.09,33.09,0,0,1,59,16.59Z"/><path class="cls-1" d="M91.89,29A9,9,0,0,1,89,28.49c-4.89-1.66-6.72-7-8.48-12.18a40.77,40.77,0,0,0-2.92-7.14C76.34,7,75.36,7,75,7c-3,0-7.72,5.56-8.74,7.39a3.46,3.46,0,0,0-.76-4l-4.78,5.11-.93-3.73c.44-1.28,6.89-11,14.3-11.7,2.21-.23,6.42.2,9.55,5.6a46.69,46.69,0,0,1,3.5,8.41c1.16,3.4,2.47,7.25,4.09,7.8.55.19,2.26.32,6.31-2.4l3.9,5.82C97.77,27.75,94.66,29,91.89,29Z"/><path class="cls-1" d="M55.58,20.24a33,33,0,1,0,1.49,46.64A33,33,0,0,0,55.58,20.24ZM37.13,26.78a12.88,12.88,0,0,1-12.77,2.33c-4-1.66-4.8-5.38-1.76-8.31a12.87,12.87,0,0,1,12.78-2.33C39.39,20.12,40.18,23.84,37.13,26.78Z"/></g></g></g></svg>