<svg xmlns="http://www.w3.org/2000/svg" viewBox="0 0 92.17 100"><defs><style>.cls-1{fill:#fff;}</style></defs><g id="Слой_2" data-name="Слой 2"><g id="icons"><g id="Bookmark_Pluse"><path class="cls-1" d="M74.26,0A17.91,17.91,0,1,0,92.17,17.91,17.91,17.91,0,0,0,74.26,0ZM86,19.41a.89.89,0,0,1-.89.89H76.65v8.43a.89.89,0,0,1-.89.89h-3a.89.89,0,0,1-.89-.89V20.3H63.44a.89.89,0,0,1-.89-.89v-3a.89.89,0,0,1,.89-.89h8.43V7.09a.89.89,0,0,1,.89-.89h3a.89.89,0,0,1,.89.89v8.43h8.43a.89.89,0,0,1,.89.89Z"/><path class="cls-1" d="M75.2,45.25A27.35,27.35,0,0,1,49.91,7.54H1.68C-.64,34.19-.39,64.43,1.39,96.81A3.33,3.33,0,0,0,6.2,99.6c12.59-6.28,24-13.23,33.18-21.36a154.53,154.53,0,0,0,33.2,21.42,3.33,3.33,0,0,0,4.79-2.8C78.33,79.33,78.79,62,78.61,45A27.26,27.26,0,0,1,75.2,45.25Z"/></g></g></g></svg>