<svg xmlns="http://www.w3.org/2000/svg" viewBox="0 0 100 67.35"><defs><style>.cls-1{fill:#fff;}</style></defs><g id="Слой_2" data-name="Слой 2"><g id="icons"><g id="Book"><path class="cls-1" d="M10.2,61.22,8.34,9.9A18.83,18.83,0,0,0,0,11.22L5.1,67.35S27.55,53.06,48,64.29V61.22C32.65,48,10.2,61.22,10.2,61.22Z"/><path class="cls-1" d="M48,22.45S43.88,3.06,13.27,0l2,56.12s20.4-12.24,32.65,0Z"/><path class="cls-1" d="M89.8,61.22,91.66,9.9A18.83,18.83,0,0,1,100,11.22L94.9,67.35S72.45,53.06,52,64.29V61.22C67.35,48,89.8,61.22,89.8,61.22Z"/><path class="cls-1" d="M52,22.45S56.12,3.06,86.73,0l-2,56.12s-20.4-12.24-32.65,0Z"/></g></g></g></svg>