<svg xmlns="http://www.w3.org/2000/svg" viewBox="0 0 75.52 100"><defs><style>.cls-1{fill:#fff;}</style></defs><g id="Слой_2" data-name="Слой 2"><g id="icons"><g id="Broken_Shield"><path class="cls-1" d="M10.59,80.76l27-34.22L23.88,31.94,48.68,9.56a47.71,47.71,0,0,1-7.39-6l-.4-.37h0A20.72,20.72,0,0,1,38.79.6a1.46,1.46,0,0,0-2.41.08l-.12.2a17.18,17.18,0,0,1-2.35,3A43.44,43.44,0,0,1,3.21,16.69,3,3,0,0,0,0,20c0,9.54,0,19.08,0,28.62A51.44,51.44,0,0,0,2.24,63.83,58.06,58.06,0,0,0,10.59,80.76Z"/><path class="cls-1" d="M72.3,16.69a46.1,46.1,0,0,1-11-1.48L35.75,33.77,52.17,52,14.49,85.51A56.76,56.76,0,0,0,34.6,99.24a8.81,8.81,0,0,0,2.93.75h.19a10.25,10.25,0,0,0,3.2-.75Q65.34,89,73.27,63.83A51.12,51.12,0,0,0,75.5,48.59c0-9.54,0-19.08,0-28.62A3,3,0,0,0,72.3,16.69Z"/></g></g></g></svg>