<svg xmlns="http://www.w3.org/2000/svg" viewBox="0 0 100 92.29"><defs><style>.cls-1{fill:#fff;}</style></defs><g id="Слой_2" data-name="Слой 2"><g id="icons"><g id="Building"><polygon class="cls-1" points="100 92.29 0 92.29 9.62 75.75 90.38 75.75 100 92.29"/><rect class="cls-1" x="17.4" y="30.02" width="8.76" height="52.55"/><rect class="cls-1" x="74.81" y="30.02" width="8.76" height="52.55"/><rect class="cls-1" x="45.62" y="30.02" width="8.76" height="52.55"/><path class="cls-1" d="M95.22,24.15,50,.12a1.08,1.08,0,0,0-1,0L3.8,24.15a1,1,0,0,0,.5,2H94.73A1,1,0,0,0,95.22,24.15ZM49.51,17.93a4.87,4.87,0,1,1,4.87-4.87A4.87,4.87,0,0,1,49.51,17.93Z"/><path class="cls-1" d="M12.54,30H26.16a0,0,0,0,1,0,0v5.84a0,0,0,0,1,0,0h-11a2.62,2.62,0,0,1-2.62-2.62V30A0,0,0,0,1,12.54,30Z"/><path class="cls-1" d="M74.81,30H88.44a0,0,0,0,1,0,0v3.21a2.62,2.62,0,0,1-2.62,2.62h-11a0,0,0,0,1,0,0V30A0,0,0,0,1,74.81,30Z"/><path class="cls-1" d="M42.7,30H57.3a0,0,0,0,1,0,0v3.21a2.62,2.62,0,0,1-2.62,2.62H45.33a2.62,2.62,0,0,1-2.62-2.62V30A0,0,0,0,1,42.7,30Z"/></g></g></g></svg>