<svg xmlns="http://www.w3.org/2000/svg" viewBox="0 0 100 91.49"><defs><style>.cls-1{fill:#fff;}</style></defs><g id="Слой_2" data-name="Слой 2"><g id="icons"><g id="Cactus"><path class="cls-1" d="M50,0h0A17.51,17.51,0,0,1,67.44,19.07L61,91.49H39L32.56,19.07A17.51,17.51,0,0,1,50,0Z"/><polygon class="cls-1" points="72.79 42.55 71.56 56.38 100 56.38 100 42.55 72.79 42.55"/><path class="cls-1" d="M92.11,29.79H93a7,7,0,0,1,7,7V48.94a0,0,0,0,1,0,0H85.11a0,0,0,0,1,0,0V36.79A7,7,0,0,1,92.11,29.79Z"/><polygon class="cls-1" points="27.21 25.53 28.44 39.36 0 39.36 0 25.53 27.21 25.53"/><path class="cls-1" d="M0,12.77H14.89a0,0,0,0,1,0,0V24.91a7,7,0,0,1-7,7H7a7,7,0,0,1-7-7V12.77a0,0,0,0,1,0,0Z" transform="translate(14.89 44.68) rotate(-180)"/></g></g></g></svg>