<svg xmlns="http://www.w3.org/2000/svg" viewBox="0 0 89.24 100"><defs><style>.cls-1{fill:#fff;}</style></defs><g id="Слой_2" data-name="Слой 2"><g id="icons"><g id="Calendar"><path class="cls-1" d="M89.24,40.48V91.54A8.46,8.46,0,0,1,80.78,100H8.46A8.46,8.46,0,0,1,0,91.54V40.48Z"/><path class="cls-1" d="M89.24,26.94V31H0V26.94a8.46,8.46,0,0,1,8.46-8.46h4.72a8.3,8.3,0,0,0,16.47,0H59.18a8.3,8.3,0,0,0,16.47,0h5.13A8.46,8.46,0,0,1,89.24,26.94Z"/><path class="cls-1" d="M26.13,4.3v6.45H17.52V4.3a4.31,4.31,0,0,1,8.61,0Z"/><path class="cls-1" d="M71.72,4.3v6.45H63.11V4.3a4.31,4.31,0,0,1,8.61,0Z"/></g></g></g></svg>