<svg xmlns="http://www.w3.org/2000/svg" viewBox="0 0 100 81.43"><defs><style>.cls-1{fill:#fff;}</style></defs><g id="Слой_2" data-name="Слой 2"><g id="icons"><g id="Camera_2"><circle class="cls-1" cx="50" cy="47.63" r="13"/><path class="cls-1" d="M95.3,14.41H4.7A4.69,4.69,0,0,0,0,19.11V76.73a4.7,4.7,0,0,0,4.7,4.7H95.3a4.7,4.7,0,0,0,4.7-4.7V19.11A4.69,4.69,0,0,0,95.3,14.41ZM14.58,33.33a6.25,6.25,0,1,1,6.25-6.25A6.25,6.25,0,0,1,14.58,33.33ZM50,69.79A21.88,21.88,0,1,1,71.88,47.92,21.88,21.88,0,0,1,50,69.79Z"/><path class="cls-1" d="M75,8.33a8.34,8.34,0,0,1,16.67,0Z"/></g></g></g></svg>