<svg xmlns="http://www.w3.org/2000/svg" viewBox="0 0 100 73.91"><defs><style>.cls-1{fill:#fff;}</style></defs><g id="Слой_2" data-name="Слой 2"><g id="icons"><g id="Camera_1"><polygon class="cls-1" points="88.04 35.59 88.04 65.25 100 72.16 100 28.69 88.04 35.59"/><circle class="cls-1" cx="23.91" cy="18.48" r="18.48"/><circle class="cls-1" cx="63.04" cy="20.65" r="10.87"/><path class="cls-1" d="M63,39.13A16.31,16.31,0,0,1,47.13,26.34,23.91,23.91,0,0,1,1.08,27.78,4.64,4.64,0,0,0,0,30.72V69.28a4.64,4.64,0,0,0,4.63,4.63H74.72a4.65,4.65,0,0,0,4.63-4.63V30.72A4.61,4.61,0,0,0,78.48,28,16.3,16.3,0,0,1,63,39.13Z"/></g></g></g></svg>