<svg xmlns="http://www.w3.org/2000/svg" viewBox="0 0 71.33 100"><defs><style>.cls-1{fill:#fff;}</style></defs><g id="Слой_2" data-name="Слой 2"><g id="icons"><g id="Candle"><path class="cls-1" d="M48.64,39.45h-15C38.22,41.92,43.67,41.06,48.64,39.45Z"/><path class="cls-1" d="M48.37,59.63s-10.1-6.42-32.11,5.51c-1.69,1.26-2.79,1.36-3.67,1.19V100h47.7V90.83c-5.41-2.17-10.77-9-11.92-14.68C46.9,68.89,48.37,59.63,48.37,59.63Z"/><path class="cls-1" d="M9.83,58.72S-3,52.29.66,42.2s22.94-8.26,33-2.75,24.77-5.51,28.44-4.59,10.09,3.67,7.34,12.85-7.34,15.59-.92,22,.92,17.86-8.26,11.69-2.75-28.2-2.75-28.2-18.35-11-41.28,4.59C12.59,60.55,10.75,59.63,9.83,58.72Z"/><rect class="cls-1" x="34.6" y="23.85" width="4.59" height="24.77"/><path class="cls-1" d="M36.44,32.11c-.91.11-9.18-.92-11.93-8.26S36.44,8.26,35.52,0c0,0,5.51,2.75,7.34,8.26,1.16,3.48,8.9,9.39,6.42,15.59C47.45,28.44,43.78,31.19,36.44,32.11Z"/></g></g></g></svg>