<svg xmlns="http://www.w3.org/2000/svg" viewBox="0 0 100 70.8"><defs><style>.cls-1{fill:#fff;}</style></defs><g id="Слой_2" data-name="Слой 2"><g id="icons"><g id="Car"><path class="cls-1" d="M0,22.89a3.13,3.13,0,0,1,3.34-2c2.7.07,5.41,0,8.11,0a1.12,1.12,0,0,0,1.21-.82c1.13-2.56,2.28-5.1,3.49-7.62C18.42,7.78,22.26,4.92,27.2,3.3A68,68,0,0,1,44,.21,87.84,87.84,0,0,1,62.16.82,51.82,51.82,0,0,1,76,4.55a16.09,16.09,0,0,1,7.86,7.83c1.31,2.53,2.44,5.17,3.59,7.78a1.12,1.12,0,0,0,1.22.81c2.8,0,5.6,0,8.4,0,2.27,0,3.33,1.31,2.88,3.54-.41,2-.82,4.08-1.25,6.12a2.7,2.7,0,0,1-3,2.44H93.07c.23.33.37.57.54.78a17.6,17.6,0,0,1-1.17,23,2.35,2.35,0,0,0-.57,1.43c-.05,2.8,0,5.6,0,8.4a3.83,3.83,0,0,1-4.14,4.14q-4.2,0-8.4,0a3.79,3.79,0,0,1-4.1-4.07c0-1.17,0-2.34,0-3.6H24.85c0,1.25,0,2.44,0,3.64a3.79,3.79,0,0,1-4,4q-4.2,0-8.4,0a3.83,3.83,0,0,1-4.2-4.17c0-2.9,0-5.8,0-8.7a1.82,1.82,0,0,0-.47-1.18C1.65,50.86,1,40.42,6.39,33.7c.12-.15.22-.31.44-.64H4.6c-2,0-2.82-.7-3.23-2.64S.46,26.31,0,24.26ZM81,25a58.29,58.29,0,0,0-4.64-10.23,7.66,7.66,0,0,0-3.08-2.89,33.47,33.47,0,0,0-9.54-3,80,80,0,0,0-22.07-.75,46,46,0,0,0-13.54,3.09,8.34,8.34,0,0,0-4.67,3.93c-1.48,3.17-2.88,6.39-4.3,9.59,0,.07,0,.18.06.28Zm5,20.37a7.54,7.54,0,1,0-7.56,7.56A7.57,7.57,0,0,0,86,45.32ZM22,52.85a7.52,7.52,0,0,0-.52-15,7.52,7.52,0,1,0,.52,15Z"/></g></g></g></svg>