<svg xmlns="http://www.w3.org/2000/svg" viewBox="0 0 100 100"><defs><style>.cls-1{fill:#fff;}</style></defs><g id="Слой_2" data-name="Слой 2"><g id="icons"><g id="Cardinal"><path class="cls-1" d="M50,100a12.5,12.5,0,0,1-8.89-3.68L3.68,58.89a12.58,12.58,0,0,1,0-17.78L41.11,3.68a12.58,12.58,0,0,1,17.78,0L96.32,41.11a12.58,12.58,0,0,1,0,17.78L58.89,96.32A12.5,12.5,0,0,1,50,100ZM50,7.81A4.73,4.73,0,0,0,46.63,9.2L9.2,46.63a4.78,4.78,0,0,0,0,6.74L46.63,90.8a4.78,4.78,0,0,0,6.74,0L90.8,53.37a4.78,4.78,0,0,0,0-6.74L53.37,9.2A4.73,4.73,0,0,0,50,7.81Z"/><circle class="cls-1" cx="50" cy="50" r="14.64"/><path class="cls-1" d="M69.81,34.66l24-4.71a3.74,3.74,0,0,0,1.93-6.31L76.44,4.36a3.74,3.74,0,0,0-6.31,1.92l-4.71,24A3.74,3.74,0,0,0,69.81,34.66Z"/><path class="cls-1" d="M50,100a12.5,12.5,0,0,1-8.89-3.68L3.68,58.89a12.58,12.58,0,0,1,0-17.78L41.11,3.68a12.58,12.58,0,0,1,17.78,0L96.32,41.11a12.58,12.58,0,0,1,0,17.78L58.89,96.32A12.5,12.5,0,0,1,50,100ZM50,7.81A4.73,4.73,0,0,0,46.63,9.2L9.2,46.63a4.78,4.78,0,0,0,0,6.74L46.63,90.8a4.78,4.78,0,0,0,6.74,0L90.8,53.37a4.78,4.78,0,0,0,0-6.74L53.37,9.2A4.73,4.73,0,0,0,50,7.81Z"/><path class="cls-1" d="M29.79,65.9l-24,4.7a3.75,3.75,0,0,0-1.93,6.32L23.16,96.2a3.74,3.74,0,0,0,6.31-1.93l4.71-24A3.74,3.74,0,0,0,29.79,65.9Z"/><path class="cls-1" d="M50,100a12.5,12.5,0,0,1-8.89-3.68L3.68,58.89a12.58,12.58,0,0,1,0-17.78L41.11,3.68a12.58,12.58,0,0,1,17.78,0L96.32,41.11a12.58,12.58,0,0,1,0,17.78L58.89,96.32A12.5,12.5,0,0,1,50,100ZM50,7.81A4.73,4.73,0,0,0,46.63,9.2L9.2,46.63a4.78,4.78,0,0,0,0,6.74L46.63,90.8a4.78,4.78,0,0,0,6.74,0L90.8,53.37a4.78,4.78,0,0,0,0-6.74L53.37,9.2A4.73,4.73,0,0,0,50,7.81Z"/><path class="cls-1" d="M34.05,30.37l-4.87-24a3.73,3.73,0,0,0-6.32-1.88L3.71,23.94a3.73,3.73,0,0,0,2,6.3l24,4.55A3.74,3.74,0,0,0,34.05,30.37Z"/><path class="cls-1" d="M65.55,70.18l4.87,24A3.73,3.73,0,0,0,76.74,96L95.89,76.61a3.74,3.74,0,0,0-2-6.3l-24-4.54A3.73,3.73,0,0,0,65.55,70.18Z"/></g></g></g></svg>