<svg xmlns="http://www.w3.org/2000/svg" viewBox="0 0 99.94 70"><defs><style>.cls-1{fill:#fff;}</style></defs><g id="Слой_2" data-name="Слой 2"><g id="icons"><g id="Cards"><rect class="cls-1" x="9.05" y="7.45" width="36.58" height="55.24" rx="6.29" transform="translate(-13.87 18.37) rotate(-30)"/><path class="cls-1" d="M50.86,25.37,61.73,10.31l-4.63-8A4.7,4.7,0,0,0,50.68.63l-11,6.82Z"/><path class="cls-1" d="M98.06,24.81,76.28,8.55a4.7,4.7,0,0,0-6.57.95L53.54,31.14l9.31,16.14a4.7,4.7,0,0,1-1.71,6.41L51.7,59.14,65,69.07a4.7,4.7,0,0,0,6.57-.95L99,31.39A4.71,4.71,0,0,0,98.06,24.81Z"/></g></g></g></svg>