<svg xmlns="http://www.w3.org/2000/svg" viewBox="0 0 100 86.41"><defs><style>.cls-1{fill:#fff;}</style></defs><g id="Слой_2" data-name="Слой 2"><g id="icons"><g id="Cat_Face"><path class="cls-1" d="M88.73,45.2l-30.31-28L58.89,15C59,14.35,62.92-2,95.31.2l2.85.19.7,2.77c.22.87,5.2,21.6-7.53,38.57ZM67.55,15l19.9,18.37c5.5-9.83,5-20.53,4.3-25.49C75.6,7.39,69.62,12.24,67.55,15Z"/><path class="cls-1" d="M11.27,45.2l-2.6-3.47C-4.06,24.76.92,4,1.14,3.16L1.84.39,4.69.2C37.08-2,41,14.35,41.11,15l.47,2.19Zm-3-37.33c-.66,5-1.18,15.7,4.28,25.48L32.45,15C30.38,12.24,24.42,7.4,8.27,7.87Z"/><path class="cls-1" d="M60.22,6,53.9,17.82l-1-6.85L48,18.8l-2-6.85-2,11.75c-2.16-4.34-3.8-13.48-4.51-18-18,5.7-35.66,25.37-35.66,43,0,20.83,24.73,37.72,45.56,37.72S96,69.52,96,48.69C96,31.34,78.21,12,60.22,6ZM30.42,43.34a6.88,6.88,0,0,1-6.89-6.89c0-3.8,13.77-3.8,13.77,0A6.88,6.88,0,0,1,30.42,43.34Zm22.4,14.83a3.51,3.51,0,0,1-4.47,0c-3.06-2.52-6.13-4-6.13-6.25,0-2.86,3.75-5.17,8.36-5.17S59,49.06,59,51.92C59,54.21,55.88,55.65,52.82,58.17ZM70.75,43.34a6.88,6.88,0,0,1-6.88-6.89c0-3.8,13.77-3.8,13.77,0A6.88,6.88,0,0,1,70.75,43.34Z"/></g></g></g></svg>