<svg xmlns="http://www.w3.org/2000/svg" viewBox="0 0 100 78.91"><defs><style>.cls-1{fill:#fff;}</style></defs><g id="Слой_2" data-name="Слой 2"><g id="icons"><g id="Chain"><path class="cls-1" d="M67.42,34.1a14.91,14.91,0,0,0-5.2-10.25L49.28,12.78a15,15,0,0,0-21.17,1.64L3.6,43.06A15,15,0,0,0,5.25,64.23L18.19,75.31a15,15,0,0,0,21.17-1.65l3.46-4-7.58-6.53-3.49,4.07a5,5,0,0,1-7.06.55L11.75,56.63a5,5,0,0,1-.54-7.06L35.72,20.93a5,5,0,0,1,7.05-.55L55.71,31.46a5,5,0,0,1,.55,7l-5.12,6,7.74,6.36,5-5.83A14.92,14.92,0,0,0,67.42,34.1Z"/><path class="cls-1" d="M32.58,44.81a14.91,14.91,0,0,0,5.2,10.25L50.72,66.13a15,15,0,0,0,21.17-1.64L96.4,35.85a15,15,0,0,0-1.65-21.18L81.81,3.6A15,15,0,0,0,60.64,5.25L57.18,9.3l7.58,6.53,3.49-4.08a5,5,0,0,1,7.06-.54L88.25,22.28a5,5,0,0,1,.54,7.06L64.28,58a5,5,0,0,1-7.05.55L44.29,47.45a5,5,0,0,1-.55-7.05l5.12-6-7.74-6.35-5,5.83A14.89,14.89,0,0,0,32.58,44.81Z"/></g></g></g></svg>