<svg xmlns="http://www.w3.org/2000/svg" viewBox="0 0 62.48 100"><defs><style>.cls-1{fill:#fff;}</style></defs><g id="Слой_2" data-name="Слой 2"><g id="icons"><g id="Chess_1"><rect class="cls-1" x="5.64" y="71.1" width="51.18" height="11.3" rx="5.04"/><path class="cls-1" d="M16.6,81.39H45.88A16.6,16.6,0,0,1,62.48,98v2a0,0,0,0,1,0,0H0a0,0,0,0,1,0,0V98A16.6,16.6,0,0,1,16.6,81.39Z"/><path class="cls-1" d="M49.05,63.32H13.43c6.14-11.23,11-20.74,7.31-32.08h21C36.52,41.8,44.25,52.59,49.05,63.32Z"/><rect class="cls-1" x="12.09" y="22.81" width="38.29" height="8.77" rx="3.91"/><circle class="cls-1" cx="31.24" cy="12.09" r="12.09"/></g></g></g></svg>