<svg xmlns="http://www.w3.org/2000/svg" viewBox="0 0 62 105.34"><defs><style>.cls-1{fill:#fff;}</style></defs><g id="Слой_2" data-name="Слой 2"><g id="icons"><g id="Chess_5"><path class="cls-1" d="M10.91,68.11S-12.83,26.55,15.53,14C15.53,14,20.15-1.81,34,.17v9.89s8.57-.65,9.89,5.28c0,0,1.88,10.5,13,12.5a3.3,3.3,0,0,1,2.75,2.92c.21,2.46-.48,6.34-5.23,10.3,0,0-5.28,1.32-13.19-2S36,40.41,38.62,42.38,54.45,54.92,52.47,68.11Z"/><rect class="cls-1" x="5.6" y="76.66" width="50.79" height="11.21" rx="5.04"/><path class="cls-1" d="M16.6,86.87H45.4A16.6,16.6,0,0,1,62,103.47v1.86a0,0,0,0,1,0,0H0a0,0,0,0,1,0,0v-1.86A16.6,16.6,0,0,1,16.6,86.87Z"/></g></g></g></svg>