<svg xmlns="http://www.w3.org/2000/svg" viewBox="0 0 58.83 100"><defs><style>.cls-1{fill:#fff;}</style></defs><g id="Слой_2" data-name="Слой 2"><g id="icons"><g id="Chess_3"><rect class="cls-1" x="5.31" y="72.78" width="48.19" height="10.64" rx="4.78"/><path class="cls-1" d="M15.76,82.47H43.08A15.76,15.76,0,0,1,58.83,98.23V100a0,0,0,0,1,0,0H0a0,0,0,0,1,0,0V98.23A15.76,15.76,0,0,1,15.76,82.47Z"/><path class="cls-1" d="M49.35,64.51H9.49c6.87-12.57,12.33-23.21,8.17-35.9H41.17C35.33,40.43,44,52.51,49.35,64.51Z"/><rect class="cls-1" x="7.59" y="19.8" width="43.65" height="10" rx="4.35"/><path class="cls-1" d="M42.57,10.15c-1.74-.52-3.65.4-4.94,2.17a13.59,13.59,0,0,0,.16-2C37.79,4.6,34,0,29.42,0S21,4.6,21,10.28a12.39,12.39,0,0,0,.17,2c-1.29-1.77-3.2-2.69-4.95-2.17-2.42.72-3.6,3.92-2.64,7.14s3.69,5.26,6.11,4.54c2-.6,6.92.14,9.69.14s7.69-.74,9.68-.14c2.42.72,5.16-1.32,6.12-4.54S45,10.87,42.57,10.15Z"/></g></g></g></svg>