<svg xmlns="http://www.w3.org/2000/svg" viewBox="0 0 60.16 100"><defs><style>.cls-1{fill:#fff;}</style></defs><g id="Слой_2" data-name="Слой 2"><g id="icons"><g id="Chess_4"><rect class="cls-1" x="5.43" y="72.17" width="49.28" height="10.88" rx="5.04"/><path class="cls-1" d="M16.6,82.08h27a16.6,16.6,0,0,1,16.6,16.6V100a0,0,0,0,1,0,0H0a0,0,0,0,1,0,0V98.68A16.6,16.6,0,0,1,16.6,82.08Z"/><path class="cls-1" d="M50.46,63.71H9.7C16.73,50.86,22.31,40,18.06,27h24C36.12,39.09,45,51.44,50.46,63.71Z"/><rect class="cls-1" x="11.64" y="18.89" width="36.87" height="8.45" rx="3.91"/><polygon class="cls-1" points="38.53 0 38.53 6.46 33.96 6.46 33.96 0 30.08 0 26.2 0 26.2 6.46 21.63 6.46 21.63 0 11.69 0 18.44 22.15 30.08 21.87 41.72 21.18 48.47 0 38.53 0"/></g></g></g></svg>