<svg xmlns="http://www.w3.org/2000/svg" viewBox="0 0 55.74 100"><defs><style>.cls-1{fill:#fff;}</style></defs><g id="Слой_2" data-name="Слой 2"><g id="icons"><g id="Chess_2"><rect class="cls-1" x="5.03" y="74.22" width="45.66" height="10.08" rx="5.04"/><path class="cls-1" d="M16.6,83.4H39.14A16.6,16.6,0,0,1,55.74,100v0a0,0,0,0,1,0,0H0a0,0,0,0,1,0,0v0A16.6,16.6,0,0,1,16.6,83.4Z"/><path class="cls-1" d="M46.75,66.37H9c6.51-11.9,11.68-22,7.74-34H39C33.47,43.56,41.66,55,46.75,66.37Z"/><rect class="cls-1" x="8.09" y="24.23" width="39.56" height="9.06" rx="4.35"/><path class="cls-1" d="M35,10.65c-3.16,0-5.68,2.12-7.1-1.42-1.42,3.54-3.94,1.42-7.1,1.42a7.81,7.81,0,0,0,0,15.61c3.16,0,5.87,2,7.1-.71,1.23,2.69,3.94.71,7.1.71a7.81,7.81,0,0,0,0-15.61Z"/><rect class="cls-1" x="25.74" width="4.26" height="12.77"/><rect class="cls-1" x="22.19" y="2.84" width="11.36" height="3.55"/></g></g></g></svg>