<svg xmlns="http://www.w3.org/2000/svg" viewBox="0 0 100 80.24"><defs><style>.cls-1,.cls-2{fill:#fff;}.cls-2{opacity:0.99;}</style></defs><g id="Слой_2" data-name="Слой 2"><g id="icons"><g id="Chest"><polygon class="cls-1" points="10.89 34.91 13.94 76.63 21.15 76.63 21.15 34.91 10.89 34.91"/><path class="cls-1" d="M21.15,27.69V11.36l-9.8-2A1.5,1.5,0,0,0,9.56,11l1.15,16.72Z"/><path class="cls-1" d="M88.65,27.69,89.56,11A1.5,1.5,0,0,0,87.77,9.4l-8.92,1.83V27.69Z"/><polygon class="cls-1" points="78.85 34.91 78.85 76.63 86.06 76.63 88.5 34.91 78.85 34.91"/><path class="cls-2" d="M31.24,27.69l4.84-5.15h26L67,27.69H81.08l.48-16.87c-13.15,2-50.86,1.92-64,0l.72,16.87Z"/><path class="cls-2" d="M66,34.91l-5.57,9.94,1.46,16a2.32,2.32,0,0,1-2.52,2.29H38.8a2.32,2.32,0,0,1-2.52-2.29l1.47-16-5.57-9.94H18.37l1.88,41.72h59.5L81,34.91Z"/><path class="cls-1" d="M14.1,73H85a4.67,4.67,0,0,1,4.67,4.67v2.54a0,0,0,0,1,0,0H9.43a0,0,0,0,1,0,0V77.7A4.67,4.67,0,0,1,14.1,73Z"/><circle class="cls-1" cx="90.12" cy="41.92" r="5.86"/><rect class="cls-1" x="91.47" y="40.57" width="5.41" height="25.24" rx="2.7" transform="translate(-11.95 32.32) rotate(-18.33)"/><circle class="cls-1" cx="9.88" cy="41.92" r="5.86"/><rect class="cls-1" x="3.12" y="40.57" width="5.41" height="25.24" rx="2.7" transform="translate(-5.38 105.52) rotate(-161.67)"/><path class="cls-1" d="M78.17,5.84A5.88,5.88,0,0,0,72.31,0H28.14a5.87,5.87,0,0,0-5.86,5.86v.06C36.66,7.19,64.39,7.2,78.17,5.84Z"/><path class="cls-1" d="M60.74,33l-3.23-4.1H40.69L37.46,33l4.31,11.64-.94,12.26a1.62,1.62,0,0,0,1.62,1.75h13.3a1.63,1.63,0,0,0,1.62-1.75l-.94-12.26Zm-10,9.1-.09,2.42A1.57,1.57,0,0,1,49,46l-.47,0A1.57,1.57,0,0,1,47,44.34l.09-2.42a4.5,4.5,0,1,1,3.6.13Z"/></g></g></g></svg>