<svg xmlns="http://www.w3.org/2000/svg" viewBox="0 0 100 83.33"><defs><style>.cls-1{fill:#fff;}</style></defs><g id="Слой_2" data-name="Слой 2"><g id="icons"><g id="Chest_2"><path class="cls-1" d="M100,66.17A16.68,16.68,0,0,0,83.86,83.31l0,0H95.2a4.8,4.8,0,0,0,4.8-4.8Z"/><path class="cls-1" d="M16.12,29.17H0V45.29A16.67,16.67,0,0,0,16.12,29.17Z"/><path class="cls-1" d="M0,66.17V78.53a4.8,4.8,0,0,0,4.8,4.8H16.12l0,0A16.68,16.68,0,0,0,0,66.17Z"/><path class="cls-1" d="M39.58,29.17V43.75a10.42,10.42,0,0,0,20.84,0V29.17ZM53.12,43.75a3.12,3.12,0,1,1-6.24,0V39.58a3.12,3.12,0,0,1,6.24,0Z"/><path class="cls-1" d="M77.62,29.17h-13V43.75a14.58,14.58,0,0,1-29.16,0V29.17h-13A22.93,22.93,0,0,1,0,51.55v8.36a22.94,22.94,0,0,1,22.4,22.9c0,.18,0,.35,0,.52H77.62c0-.17,0-.34,0-.52A22.94,22.94,0,0,1,100,59.91V51.55A22.93,22.93,0,0,1,77.62,29.17Z"/><path class="cls-1" d="M100,45.29V29.17H83.88A16.67,16.67,0,0,0,100,45.29Z"/><path class="cls-1" d="M12.33,0H87.67A12.33,12.33,0,0,1,100,12.33v8.5a0,0,0,0,1,0,0H0a0,0,0,0,1,0,0v-8.5A12.33,12.33,0,0,1,12.33,0Z"/><rect class="cls-1" x="39.58" y="10.42" width="20.83" height="19.79"/></g></g></g></svg>