<svg xmlns="http://www.w3.org/2000/svg" viewBox="0 0 100 100"><defs><style>.cls-1{fill:#fff;}</style></defs><g id="Слой_2" data-name="Слой 2"><g id="icons"><g id="Chip"><path class="cls-1" d="M78.63,87.62H21.37a9,9,0,0,1-9-9V21.37a9,9,0,0,1,9-9H78.63a9,9,0,0,1,9,9V78.63A9,9,0,0,1,78.63,87.62ZM21.37,20A1.39,1.39,0,0,0,20,21.37V78.63A1.39,1.39,0,0,0,21.37,80H78.63A1.39,1.39,0,0,0,80,78.63V21.37A1.39,1.39,0,0,0,78.63,20Z"/><rect class="cls-1" x="29.52" y="29.52" width="40.95" height="40.95"/><path class="cls-1" d="M80,26.67H94.76A5.24,5.24,0,0,1,100,31.9v0a5.24,5.24,0,0,1-5.24,5.24H80a0,0,0,0,1,0,0V26.67a0,0,0,0,1,0,0Z"/><path class="cls-1" d="M80,45.71H94.76A5.24,5.24,0,0,1,100,51v0a5.24,5.24,0,0,1-5.24,5.24H80a0,0,0,0,1,0,0V45.71A0,0,0,0,1,80,45.71Z"/><path class="cls-1" d="M80,64.76H94.76A5.24,5.24,0,0,1,100,70v0a5.24,5.24,0,0,1-5.24,5.24H80a0,0,0,0,1,0,0V64.76a0,0,0,0,1,0,0Z"/><path class="cls-1" d="M0,64.76H14.76A5.24,5.24,0,0,1,20,70v0a5.24,5.24,0,0,1-5.24,5.24H0a0,0,0,0,1,0,0V64.76A0,0,0,0,1,0,64.76Z" transform="translate(20 140) rotate(-180)"/><path class="cls-1" d="M0,45.71H14.76A5.24,5.24,0,0,1,20,51v0a5.24,5.24,0,0,1-5.24,5.24H0a0,0,0,0,1,0,0V45.71a0,0,0,0,1,0,0Z" transform="translate(20 101.9) rotate(180)"/><path class="cls-1" d="M0,26.67H14.76A5.24,5.24,0,0,1,20,31.9v0a5.24,5.24,0,0,1-5.24,5.24H0a0,0,0,0,1,0,0V26.67A0,0,0,0,1,0,26.67Z" transform="translate(20 63.81) rotate(180)"/><path class="cls-1" d="M21,4.76H35.71A5.24,5.24,0,0,1,41,10v0a5.24,5.24,0,0,1-5.24,5.24H21a0,0,0,0,1,0,0V4.76a0,0,0,0,1,0,0Z" transform="translate(20.95 40.95) rotate(-90)"/><path class="cls-1" d="M40,4.76H54.76A5.24,5.24,0,0,1,60,10v0a5.24,5.24,0,0,1-5.24,5.24H40a0,0,0,0,1,0,0V4.76A0,0,0,0,1,40,4.76Z" transform="translate(40 60) rotate(-90)"/><path class="cls-1" d="M59,4.76H73.81A5.24,5.24,0,0,1,79,10v0a5.24,5.24,0,0,1-5.24,5.24H59a0,0,0,0,1,0,0V4.76a0,0,0,0,1,0,0Z" transform="translate(59.05 79.05) rotate(-90)"/><path class="cls-1" d="M59,84.76H73.81A5.24,5.24,0,0,1,79,90v0a5.24,5.24,0,0,1-5.24,5.24H59a0,0,0,0,1,0,0V84.76A0,0,0,0,1,59,84.76Z" transform="translate(159.05 20.95) rotate(90)"/><path class="cls-1" d="M40,84.76H54.76A5.24,5.24,0,0,1,60,90v0a5.24,5.24,0,0,1-5.24,5.24H40a0,0,0,0,1,0,0V84.76a0,0,0,0,1,0,0Z" transform="translate(140 40) rotate(90)"/><path class="cls-1" d="M21,84.76H35.71A5.24,5.24,0,0,1,41,90v0a5.24,5.24,0,0,1-5.24,5.24H21a0,0,0,0,1,0,0V84.76a0,0,0,0,1,0,0Z" transform="translate(120.95 59.05) rotate(90)"/></g></g></g></svg>