<svg xmlns="http://www.w3.org/2000/svg" viewBox="0 0 100 100"><defs><style>.cls-1{fill:#fff;}</style></defs><g id="Слой_2" data-name="Слой 2"><g id="icons"><path id="Circle_Ok" class="cls-1" d="M50,0a50,50,0,1,0,50,50A50,50,0,0,0,50,0ZM78.16,29.11C68.22,37.67,54.57,63,50,72.4l-3.63,7.44a1.78,1.78,0,0,1-3.18,0l-3.88-7.3A144.7,144.7,0,0,0,21.67,46.54a1.79,1.79,0,0,1,.12-2.47l6.14-5.79a1.77,1.77,0,0,1,2.56.11A143,143,0,0,1,42.67,54.71a1.78,1.78,0,0,0,3.06-.09c6.34-11.47,16.17-27.56,25.13-35a1.76,1.76,0,0,1,2.57.32l5,6.8A1.8,1.8,0,0,1,78.16,29.11Z"/></g></g></svg>