<svg xmlns="http://www.w3.org/2000/svg" viewBox="0 0 100 100"><defs><style>.cls-1{fill:#fff;}</style></defs><g id="Слой_2" data-name="Слой 2"><g id="icons"><path id="Circle_Exclamation" class="cls-1" d="M50,0a50,50,0,1,0,50,50A50,50,0,0,0,50,0Zm7.11,84.47a1.81,1.81,0,0,1-1.81,1.81H44.7a1.81,1.81,0,0,1-1.81-1.81l0-10.53a1.81,1.81,0,0,1,1.81-1.82H55.32a1.81,1.81,0,0,1,1.81,1.82Zm-.53-23.69a1.82,1.82,0,0,1-1.81,1.69H45.23a1.82,1.82,0,0,1-1.81-1.69l-3-43.08a1.82,1.82,0,0,1,1.81-1.94H57.79A1.82,1.82,0,0,1,59.6,17.7Z"/></g></g></svg>