<svg xmlns="http://www.w3.org/2000/svg" viewBox="0 0 100 100"><defs><style>.cls-1{fill:#fff;}</style></defs><g id="Слой_2" data-name="Слой 2"><g id="icons"><path id="Circle_Cross" class="cls-1" d="M50,0a50,50,0,1,0,50,50A50,50,0,0,0,50,0ZM76.84,34.61,59.43,50.45,75.26,67.86a2.47,2.47,0,0,1-.16,3.5L68.9,77a2.48,2.48,0,0,1-3.51-.16L49.55,59.43,32.14,75.26a2.47,2.47,0,0,1-3.5-.16L23,68.9a2.48,2.48,0,0,1,.16-3.51L40.57,49.55,24.74,32.14a2.47,2.47,0,0,1,.16-3.5L31.1,23a2.48,2.48,0,0,1,3.51.16L50.45,40.57,67.86,24.74a2.47,2.47,0,0,1,3.5.16L77,31.1A2.48,2.48,0,0,1,76.84,34.61Z"/></g></g></svg>