<svg xmlns="http://www.w3.org/2000/svg" viewBox="0 0 100 100"><defs><style>.cls-1{fill:#fff;}</style></defs><g id="Слой_2" data-name="Слой 2"><g id="icons"><path id="Circle_Help" class="cls-1" d="M50,0a50,50,0,1,0,50,50A50,50,0,0,0,50,0Zm5,82.78a1.09,1.09,0,0,1-1.09,1.09H43a1.09,1.09,0,0,1-1.09-1.09v-11A1.09,1.09,0,0,1,43,70.66H53.93A1.09,1.09,0,0,1,55,71.75ZM63,48c-2.84,3-4.76,4.68-6.14,6.79A10,10,0,0,0,55,61.06a1.09,1.09,0,0,1-1.08,1.08h-11A1.09,1.09,0,0,1,41.84,61a22.87,22.87,0,0,1,2.82-10.41c2.29-4.67,5-5.31,9.81-10.45a11.32,11.32,0,0,0,3.11-8.43,7.05,7.05,0,0,0-1.19-4.4c-1.47-2-4-2.85-6.78-2.85A9.16,9.16,0,0,0,44,26a6.15,6.15,0,0,0-2.45,4.66,1.1,1.1,0,0,1-1.09,1H29.58a1.1,1.1,0,0,1-1.07-1.28c1-6,4-11.22,8.44-14.13a22.52,22.52,0,0,1,12.11-3.58c7,0,13.47,2,17.51,7a18.47,18.47,0,0,1,4.22,11.64C70.79,38,67.39,43.34,63,48Z"/></g></g></svg>