<svg xmlns="http://www.w3.org/2000/svg" viewBox="0 0 100 97.88"><defs><style>.cls-1{fill:#fff;}</style></defs><g id="Слой_2" data-name="Слой 2"><g id="icons"><g id="Clover"><ellipse class="cls-1" cx="37.76" cy="11.66" rx="12.56" ry="11.66"/><ellipse class="cls-1" cx="62.26" cy="11.66" rx="12.56" ry="11.66"/><path class="cls-1" d="M46,39.48C23.55,26.5,25.2,12,25.2,12H74.82S75.91,26.47,54,39.44A8,8,0,0,1,46,39.48Z"/><ellipse class="cls-1" cx="62.24" cy="86.21" rx="12.56" ry="11.66"/><ellipse class="cls-1" cx="37.74" cy="86.21" rx="12.56" ry="11.66"/><path class="cls-1" d="M54,58.4c22.43,13,20.78,27.47,20.78,27.47H25.18S24.09,71.4,46,58.44A7.93,7.93,0,0,1,54,58.4Z"/><ellipse class="cls-1" cx="88.34" cy="36.7" rx="11.66" ry="12.56"/><ellipse class="cls-1" cx="88.34" cy="61.2" rx="11.66" ry="12.56"/><path class="cls-1" d="M60.52,44.92C73.5,22.49,88,24.14,88,24.14V73.76S73.53,74.85,60.56,53A8,8,0,0,1,60.52,44.92Z"/><ellipse class="cls-1" cx="11.66" cy="61.18" rx="11.66" ry="12.56"/><ellipse class="cls-1" cx="11.66" cy="36.68" rx="11.66" ry="12.56"/><path class="cls-1" d="M39.48,53C26.5,75.39,12,73.74,12,73.74V24.12S26.47,23,39.44,44.93A8,8,0,0,1,39.48,53Z"/></g></g></g></svg>