<svg xmlns="http://www.w3.org/2000/svg" viewBox="0 0 100 100"><defs><style>.cls-1{fill:#fff;}</style></defs><g id="Слой_2" data-name="Слой 2"><g id="icons"><g id="Communication"><path class="cls-1" d="M50,27a146.53,146.53,0,0,1,17.2,1C65,15,60.83,5.25,56.32.41a48.92,48.92,0,0,0-12.64,0C39.17,5.25,35.05,15,32.8,28A146.53,146.53,0,0,1,50,27Z"/><path class="cls-1" d="M68.2,35.12A142.19,142.19,0,0,0,50,34a142.19,142.19,0,0,0-18.2,1.12,138.78,138.78,0,0,0,0,29.76A142.19,142.19,0,0,0,50,66a142.19,142.19,0,0,0,18.2-1.12A136.82,136.82,0,0,0,69,50,136.82,136.82,0,0,0,68.2,35.12Z"/><path class="cls-1" d="M50,73a146.53,146.53,0,0,1-17.2-1c2.25,13,6.37,22.76,10.88,27.6a48.92,48.92,0,0,0,12.64,0C60.83,94.75,65,85,67.2,72A146.53,146.53,0,0,1,50,73Z"/><path class="cls-1" d="M99.91,47.14c-2.88-4-11.48-8.31-24.55-10.86.42,4.38.64,9,.64,13.72s-.22,9.34-.64,13.72C88.43,61.17,97,56.86,99.91,52.86c.06-.94.09-1.9.09-2.86S100,48.08,99.91,47.14Z"/><path class="cls-1" d="M24,50c0-4.75.22-9.34.64-13.72C11.57,38.83,3,43.14.09,47.14,0,48.08,0,49,0,50s0,1.92.09,2.86c2.88,4,11.48,8.31,24.55,10.86C24.22,59.34,24,54.75,24,50Z"/><path class="cls-1" d="M25.51,70.93c-9.32-1.64-17.69-4.24-23.74-7.75A50.06,50.06,0,0,0,33.6,97.23C29.92,90.52,27.11,81.5,25.51,70.93Z"/><path class="cls-1" d="M74.49,29.07c9.32,1.64,17.69,4.24,23.74,7.75a50.06,50.06,0,0,0-31.83-34C70.08,9.48,72.89,18.5,74.49,29.07Z"/><path class="cls-1" d="M74.49,70.93c-1.6,10.57-4.41,19.59-8.09,26.3A50.06,50.06,0,0,0,98.23,63.18C92.18,66.69,83.81,69.29,74.49,70.93Z"/><path class="cls-1" d="M25.51,29.07c1.6-10.57,4.41-19.59,8.09-26.3A50.06,50.06,0,0,0,1.77,36.82C7.82,33.31,16.19,30.71,25.51,29.07Z"/></g></g></g></svg>