<svg xmlns="http://www.w3.org/2000/svg" viewBox="0 0 100 100"><defs><style>.cls-1{fill:#fff;}</style></defs><g id="Слой_2" data-name="Слой 2"><g id="icons"><g id="Controller"><path class="cls-1" d="M94.46,29.9H5.54A5.54,5.54,0,0,0,0,35.44V64.56A5.54,5.54,0,0,0,5.54,70.1H94.46A5.54,5.54,0,0,0,100,64.56V35.44A5.54,5.54,0,0,0,94.46,29.9ZM21.85,59.36a.65.65,0,0,1-1,.52A72.13,72.13,0,0,1,7.94,50.47a.65.65,0,0,1,0-1,83.77,83.77,0,0,1,12.91-9.38.65.65,0,0,1,1,.51A139.22,139.22,0,0,1,21.85,59.36ZM50,59.28A9.28,9.28,0,1,1,59.28,50,9.29,9.29,0,0,1,50,59.28Zm41-8.81a72.13,72.13,0,0,1-12.94,9.41.65.65,0,0,1-1-.52,140.89,140.89,0,0,1,0-18.72.66.66,0,0,1,1-.51A83.77,83.77,0,0,1,91,49.51.65.65,0,0,1,91,50.47Z"/><path class="cls-1" d="M64.56,0H35.44A5.54,5.54,0,0,0,29.9,5.54V94.46A5.54,5.54,0,0,0,35.44,100H64.56a5.54,5.54,0,0,0,5.54-5.54V5.54A5.54,5.54,0,0,0,64.56,0ZM59.37,78.61A72.53,72.53,0,0,1,50,91.54a.67.67,0,0,1-1,0,85.23,85.23,0,0,1-9.38-12.92.66.66,0,0,1,.52-1,142.46,142.46,0,0,1,18.71,0A.66.66,0,0,1,59.37,78.61ZM40.72,50A9.28,9.28,0,1,1,50,59.28,9.29,9.29,0,0,1,40.72,50ZM58.84,22.37a142.46,142.46,0,0,1-18.71,0,.66.66,0,0,1-.52-1A85.23,85.23,0,0,1,49,8.46a.67.67,0,0,1,1,0,72.53,72.53,0,0,1,9.41,12.93A.66.66,0,0,1,58.84,22.37Z"/></g></g></g></svg>