<svg xmlns="http://www.w3.org/2000/svg" viewBox="0 0 100 100"><defs><style>.cls-1{fill:#fff;}</style></defs><g id="Слой_2" data-name="Слой 2"><g id="icons"><g id="Cross_Arrows"><polygon class="cls-1" points="72.91 87.64 46.34 53.66 12.36 27.09 27.09 12.36 53.66 46.34 87.64 72.91 72.91 87.64"/><path class="cls-1" d="M1,1,32.57,4.07A1.9,1.9,0,0,1,33.73,7.3L7.3,33.73a1.9,1.9,0,0,1-3.23-1.16Z"/><path class="cls-1" d="M99,99,95.93,67.43a1.9,1.9,0,0,0-3.23-1.16L66.27,92.7a1.9,1.9,0,0,0,1.16,3.23Z"/><g id="Cross_Arrows-2" data-name="Cross Arrows"><polygon class="cls-1" points="11.59 73.38 46.27 46.27 73.38 11.59 88.41 26.62 53.73 53.73 26.62 88.41 11.59 73.38"/><path class="cls-1" d="M100,0,96.86,32.3a1.9,1.9,0,0,1-3.23,1.16L66.54,6.37A1.9,1.9,0,0,1,67.7,3.14Z"/><path class="cls-1" d="M0,100l32.3-3.14a1.9,1.9,0,0,0,1.16-3.23L6.37,66.54A1.9,1.9,0,0,0,3.14,67.7Z"/></g></g></g></g></svg>