<svg xmlns="http://www.w3.org/2000/svg" viewBox="0 0 90.8 100"><defs><style>.cls-1{fill:#fff;}</style></defs><g id="Слой_2" data-name="Слой 2"><g id="icons"><g id="Cross_3"><rect class="cls-1" x="34.13" y="29.09" width="23.34" height="23.34" rx="3.95" transform="translate(42.24 -20.44) rotate(45)"/><path class="cls-1" d="M48.3,62.11a3.55,3.55,0,0,1-5,0l-2.24-2.24c-.37,16.27-2.49,31.19-12.4,40.13H63c-8.41-9.15-11.86-23.21-12.41-40.13Z"/><path class="cls-1" d="M9.85,40.93a4.34,4.34,0,0,0-1,.13A4.4,4.4,0,0,0,9,40s0-.06,0-.09a4.53,4.53,0,0,0,.91.09,4.48,4.48,0,1,0-4.48-4.47s0,.06,0,.09A4.49,4.49,0,0,0,0,40a4.48,4.48,0,0,0,4.48,4.48,4.32,4.32,0,0,0,1-.13,4.32,4.32,0,0,0-.13,1,4.48,4.48,0,1,0,4.48-4.47Z"/><path class="cls-1" d="M24.44,43.26a3.56,3.56,0,0,1,0-5l3.81-3.8-20.19-2v16.3l19.93-2Z"/><path class="cls-1" d="M81,40.93a4.32,4.32,0,0,1,1,.13,4.4,4.4,0,0,1-.13-1s0-.06,0-.09A4.43,4.43,0,0,1,81,40a4.48,4.48,0,1,1,4.47-4.47s0,.06,0,.09a4.6,4.6,0,0,1,.91-.09,4.48,4.48,0,0,1,0,8.95,4.34,4.34,0,0,1-1-.13,4.32,4.32,0,0,1,.13,1A4.48,4.48,0,1,1,81,40.93Z"/><path class="cls-1" d="M63.27,34.39l3.88,3.87a3.56,3.56,0,0,1,0,5l-3.62,3.62,19.22,1.89V32.47Z"/><path class="cls-1" d="M46.3,9.85a4.34,4.34,0,0,1,.13-1,4.34,4.34,0,0,1-1,.13h-.09a4.53,4.53,0,0,1,.09.91,4.48,4.48,0,1,1-4.47-4.48H41A4.49,4.49,0,0,1,45.4,0a4.48,4.48,0,0,1,4.48,4.48,4.32,4.32,0,0,1-.13,1,4.32,4.32,0,0,1,1-.13A4.48,4.48,0,1,1,46.3,9.85Z"/><path class="cls-1" d="M43.29,19.41a3.55,3.55,0,0,1,5,0l4.48,4.48L54.49,8.06h-17l1.68,15.47Z"/><path class="cls-1" d="M20.59,100a8.06,8.06,0,1,1,16.11,0Z"/><path class="cls-1" d="M54.6,100a8.06,8.06,0,1,1,16.11,0Z"/></g></g></g></svg>