<svg xmlns="http://www.w3.org/2000/svg" viewBox="0 0 100 100"><defs><style>.cls-1{fill:#fff;}</style></defs><g id="Слой_2" data-name="Слой 2"><g id="icons"><path id="Cross_Pluse" class="cls-1" d="M50,0a50,50,0,1,0,50,50A50,50,0,0,0,50,0ZM82.69,54.19a2.48,2.48,0,0,1-2.48,2.48H56.67V80.21a2.48,2.48,0,0,1-2.48,2.48H45.81a2.48,2.48,0,0,1-2.48-2.48V56.67H19.79a2.48,2.48,0,0,1-2.48-2.48V45.81a2.48,2.48,0,0,1,2.48-2.48H43.33V19.79a2.48,2.48,0,0,1,2.48-2.48h8.38a2.48,2.48,0,0,1,2.48,2.48V43.33H80.21a2.48,2.48,0,0,1,2.48,2.48Z"/></g></g></svg>