<svg xmlns="http://www.w3.org/2000/svg" viewBox="0 0 81.75 100"><defs><style>.cls-1{fill:#fff;}</style></defs><g id="Слой_2" data-name="Слой 2"><g id="icons"><path id="Crosier_3" class="cls-1" d="M40.89,28.44a1.93,1.93,0,0,1,2.77,2.2,54.21,54.21,0,0,1-2.5,7.9c-1.06,1.8-30.56.25-34.54-3.31S19.72-.1,27.36,0c8.45.11,52.18,6.4,54.35,29.57C83,43.61,44,58.47,36.9,66.44s-5.11,12.8-5.11,12.8L6.68,99.11A4.12,4.12,0,0,1,2,99.43H2a4.13,4.13,0,0,1-1.26-6L18.4,68.93l3.46-16.21S54.34,45.08,54.77,32s-23.7-17.6-28.33-11.81C22.15,25.52,24.73,37.05,40.89,28.44Z"/></g></g></svg>