<svg xmlns="http://www.w3.org/2000/svg" viewBox="0 0 90.9 100"><defs><style>.cls-1{fill:#fff;}</style></defs><g id="Слой_2" data-name="Слой 2"><g id="icons"><g id="Crosier_1"><path class="cls-1" d="M1.84,98.68h0a5.39,5.39,0,0,1-.52-7.59L47.23,38.32l-.18,8.4,8.3-1.34L9.43,98.16A5.39,5.39,0,0,1,1.84,98.68Z"/><path class="cls-1" d="M72.86,36.71,52.15,40.12l.52-21a12.61,12.61,0,0,0-4.33-9.81l-.08-.07-9,32.09L52.64,53,83.17,39.63h0A12.59,12.59,0,0,0,72.86,36.71Z"/><polygon class="cls-1" points="90.9 27.48 88.97 16.15 70.8 0.34 59.31 0 58.51 32.81 90.9 27.48"/><circle class="cls-1" cx="41.4" cy="53.22" r="12.91"/></g></g></g></svg>