<svg xmlns="http://www.w3.org/2000/svg" viewBox="0 0 79.47 100"><defs><style>.cls-1{fill:#fff;}</style></defs><g id="Слой_2" data-name="Слой 2"><g id="icons"><g id="Crosier_2"><path class="cls-1" d="M61.58,47.61a1.31,1.31,0,0,1,1.09,2.25,19.92,19.92,0,0,1-32.1-21.95,1.31,1.31,0,0,1,2.5.2A24.44,24.44,0,0,0,43.44,43.54,24.4,24.4,0,0,0,61.58,47.61Z"/><path class="cls-1" d="M37.81,51.76a19.89,19.89,0,0,1-5.27-5.32L6.59,90.71l7,4.78L45.68,55A19.91,19.91,0,0,1,37.81,51.76Z"/><path class="cls-1" d="M6,87.32H17.76a6.34,6.34,0,0,1,6.34,6.34v0a0,0,0,0,1,0,0H-.35a0,0,0,0,1,0,0v0A6.34,6.34,0,0,1,6,87.32Z" transform="translate(53.16 9.1) rotate(34.37)"/><path class="cls-1" d="M70.79,3.48A19.91,19.91,0,1,0,76,31.15,19.91,19.91,0,0,0,70.79,3.48ZM57.45,13.32A3.62,3.62,0,1,1,61.07,9.7,3.62,3.62,0,0,1,57.45,13.32Z"/></g></g></g></svg>