<svg xmlns="http://www.w3.org/2000/svg" viewBox="0 0 100 100"><defs><style>.cls-1{fill:#fff;}</style></defs><g id="Слой_2" data-name="Слой 2"><g id="icons"><g id="Crown_Circle"><path class="cls-1" d="M50,14.29A35.71,35.71,0,1,0,85.71,50,35.71,35.71,0,0,0,50,14.29Zm21.52,34.5h-.24c-.3,3.75-1.39,10.68-4.34,15l-.18.83A3.56,3.56,0,0,1,63.2,68.2H36.49a3.56,3.56,0,0,1-3.56-3.56l0-.83c-2.94-4.34-3.91-11.26-4.21-15H28.5a5.51,5.51,0,1,1,3.65-1.38l.69.66a7.78,7.78,0,0,0,11.3-.55,21.48,21.48,0,0,0,2-2.88,7,7,0,1,1,7.61,0,20.37,20.37,0,0,0,2,2.84,7.78,7.78,0,0,0,11.3.55l.75-.71A5.4,5.4,0,0,1,66,43.3a5.49,5.49,0,1,1,5.49,5.49Z"/><g id="Crown_Circle-2" data-name="Crown_Circle"><path class="cls-1" d="M50,100a50,50,0,1,1,50-50A50.06,50.06,0,0,1,50,100ZM50,7.14A42.86,42.86,0,1,0,92.86,50,42.91,42.91,0,0,0,50,7.14Z"/></g></g></g></g></svg>