<svg xmlns="http://www.w3.org/2000/svg" viewBox="0 0 100 74.65"><defs><style>.cls-1{fill:#fff;}</style></defs><g id="Слой_2" data-name="Слой 2"><g id="icons"><g id="Crown"><path class="cls-1" d="M86.9,25.58l-2,1.88a15.9,15.9,0,0,1-23.08-1.13,51.67,51.67,0,0,1-8.76-15.65H48.8V59.47H84.94c6.19-9.13,8-23.77,8.56-31.23A10.53,10.53,0,0,1,86.9,25.58Z"/><path class="cls-1" d="M13,25.58l2,1.88A15.9,15.9,0,0,0,38,26.33a51.67,51.67,0,0,0,8.76-15.65h4.29V59.47H14.92c-6.19-9.13-8-23.77-8.56-31.23A10.53,10.53,0,0,0,13,25.58Z"/><circle class="cls-1" cx="6.08" cy="17.69" r="6.08"/><circle class="cls-1" cx="93.92" cy="17.69" r="6.08"/><circle class="cls-1" cx="50" cy="8.49" r="8.49"/><path class="cls-1" d="M15.12,65.77H84.21a0,0,0,0,1,0,0v5.32a3.56,3.56,0,0,1-3.56,3.56h-62a3.56,3.56,0,0,1-3.56-3.56V65.77a0,0,0,0,1,0,0Z"/></g></g></g></svg>