<svg xmlns="http://www.w3.org/2000/svg" viewBox="0 0 100 88.54"><defs><style>.cls-1{fill:#fff;}</style></defs><g id="Слой_2" data-name="Слой 2"><g id="icons"><g id="Cup_1"><path class="cls-1" d="M72.57,0H27.74S16.63,25.07,23.91,39.59a15.41,15.41,0,0,0,7.73,7.18c3.24,1.39,8.65,4,9.49,6.57,1.22,3.65.73,11.45.73,11.45H58.44S58,57,59.17,53.34c.85-2.53,6.25-5.18,9.49-6.57a15.39,15.39,0,0,0,7.74-7.18C83.67,25.07,72.57,0,72.57,0Z"/><path class="cls-1" d="M95.78,3.85c-4.61-2.15-11.69-.75-16.23.56C80.09,6.06,80.67,8,81.21,10c4.13-1.17,9.18-2,11.86-1,1,1.42,2.13,8.18-.61,15.17a19.07,19.07,0,0,1-9.52,10.45,23.57,23.57,0,0,1-1.88,5.49,15.7,15.7,0,0,1-1,1.73,25.22,25.22,0,0,0,12.81-7.36,27.88,27.88,0,0,0,6.71-14.16C100.68,13.74,99.74,5.7,95.78,3.85Z"/><path class="cls-1" d="M4.22,3.85c4.61-2.15,11.69-.75,16.23.56C19.91,6.06,19.33,8,18.79,10,14.66,8.83,9.61,8,6.93,9c-1,1.42-2.13,8.18.61,15.17a19.07,19.07,0,0,0,9.52,10.45,23.57,23.57,0,0,0,1.88,5.49,15.7,15.7,0,0,0,1,1.73A25.22,25.22,0,0,1,7.15,34.52,27.88,27.88,0,0,1,.44,20.36C-.68,13.74.26,5.7,4.22,3.85Z"/><path class="cls-1" d="M71.78,88.54H28.83L34.68,76a6.56,6.56,0,0,1,5.94-3.77H60A6.54,6.54,0,0,1,65.93,76Z"/></g></g></g></svg>