<svg xmlns="http://www.w3.org/2000/svg" viewBox="0 0 100 87.3"><defs><style>.cls-1{fill:#fff;}</style></defs><g id="Слой_2" data-name="Слой 2"><g id="icons"><g id="Cup_With_Star"><path class="cls-1" d="M99.75,4.83c-.54-.26-24.19-.48-30.76-.64.79,1.34,1.22,3.93,2,5.58C93.62,6.66,89.92,27.6,75.14,30.06c-.61,1.55.55,5.71,0,6.16C98.24,32.13,101,5.43,99.75,4.83Z"/><path class="cls-1" d="M.25,4.83C.79,4.57,24.44,4.35,31,4.19c-.79,1.34-1.22,3.93-2,5.58C6.38,6.66,10.08,27.6,24.86,30.06c.61,1.55-.55,5.71,0,6.16C1.76,32.13-1,5.43.25,4.83Z"/><path class="cls-1" d="M71.23,87.3H28.88L34.65,75a6.45,6.45,0,0,1,5.85-3.72H59.61A6.45,6.45,0,0,1,65.46,75Z"/><path class="cls-1" d="M75.08,0H24.73S16.85,24.72,24,39a15.19,15.19,0,0,0,7.62,7.08c3.2,1.37,8.53,4,9.36,6.47,1.2,3.61.72,11.29.72,11.29H58.08s-.48-7.68.72-11.29c.83-2.49,6.16-5.1,9.36-6.47A15.19,15.19,0,0,0,75.78,39C83,24.72,75.08,0,75.08,0ZM57,28.16l1.66,9.69-8.7-4.57-8.7,4.57,1.67-9.69-7-6.86,9.72-1.41,4.35-8.82,4.35,8.82L64,21.3Z"/></g></g></g></svg>