<svg xmlns="http://www.w3.org/2000/svg" viewBox="0 0 95.92 100"><defs><style>.cls-1{fill:#fff;}</style></defs><g id="Слой_2" data-name="Слой 2"><g id="icons"><g id="Custle"><polygon class="cls-1" points="71.53 30.74 27.66 30.74 25 9.84 74.19 9.84 71.53 30.74"/><path class="cls-1" d="M26.12,0h7.61a1.12,1.12,0,0,1,1.12,1.12V9.84a0,0,0,0,1,0,0H25a0,0,0,0,1,0,0V1.12A1.12,1.12,0,0,1,26.12,0Z"/><path class="cls-1" d="M45.79,0H53.4a1.12,1.12,0,0,1,1.12,1.12V9.84a0,0,0,0,1,0,0H44.68a0,0,0,0,1,0,0V1.12A1.12,1.12,0,0,1,45.79,0Z"/><path class="cls-1" d="M65.47,0h7.61a1.12,1.12,0,0,1,1.12,1.12V9.84a0,0,0,0,1,0,0H64.35a0,0,0,0,1,0,0V1.12A1.12,1.12,0,0,1,65.47,0Z"/><path class="cls-1" d="M32.14,23.36V95.92H67.86V23.36ZM56.63,73.47H42.35V54.08a7.14,7.14,0,0,1,14.28,0Z"/><path class="cls-1" d="M15.21,86.42c11.28-3.18,35.24-7.72,65.65-.87A20.28,20.28,0,0,1,95.92,100H0l4.36-6A20.19,20.19,0,0,1,15.21,86.42Z"/></g></g></g></svg>