<svg xmlns="http://www.w3.org/2000/svg" viewBox="0 0 100 81.74"><defs><style>.cls-1{fill:#fff;}</style></defs><g id="Слой_2" data-name="Слой 2"><g id="icons"><g id="Custle_2"><polygon class="cls-1" points="68.34 26.2 30.96 26.2 28.7 8.38 70.61 8.38 68.34 26.2"/><path class="cls-1" d="M29.81,0H36a1.12,1.12,0,0,1,1.12,1.12V8.38a0,0,0,0,1,0,0H28.7a0,0,0,0,1,0,0V1.12A1.12,1.12,0,0,1,29.81,0Z"/><path class="cls-1" d="M46.58,0h6.15a1.12,1.12,0,0,1,1.12,1.12V8.38a0,0,0,0,1,0,0H45.46a0,0,0,0,1,0,0V1.12A1.12,1.12,0,0,1,46.58,0Z"/><path class="cls-1" d="M63.34,0H69.5a1.12,1.12,0,0,1,1.12,1.12V8.38a0,0,0,0,1,0,0H62.23a0,0,0,0,1,0,0V1.12A1.12,1.12,0,0,1,63.34,0Z"/><path class="cls-1" d="M34.78,19.91V81.74H65.22V19.91Zm20.87,42.7H43.48V46.09a6.09,6.09,0,1,1,12.17,0Z"/><rect class="cls-1" x="71.3" y="46.96" width="28.7" height="33.91"/><path class="cls-1" d="M72.42,40h5.86a1.12,1.12,0,0,1,1.12,1.12v6.71a0,0,0,0,1,0,0H71.3a0,0,0,0,1,0,0V41.12A1.12,1.12,0,0,1,72.42,40Z"/><path class="cls-1" d="M88.07,40h5.86a1.12,1.12,0,0,1,1.12,1.12v6.71a0,0,0,0,1,0,0H87a0,0,0,0,1,0,0V41.12A1.12,1.12,0,0,1,88.07,40Z"/><rect class="cls-1" y="47.83" width="28.7" height="33.91" transform="translate(28.7 129.57) rotate(-180)"/><path class="cls-1" d="M20.6,40.87H28.7a0,0,0,0,1,0,0v6.71a1.12,1.12,0,0,1-1.12,1.12H21.72a1.12,1.12,0,0,1-1.12-1.12V40.87A0,0,0,0,1,20.6,40.87Z" transform="translate(49.3 89.57) rotate(-180)"/><path class="cls-1" d="M4.95,40.87H13a0,0,0,0,1,0,0v6.71a1.12,1.12,0,0,1-1.12,1.12H6.06a1.12,1.12,0,0,1-1.12-1.12V40.87A0,0,0,0,1,4.95,40.87Z" transform="translate(17.99 89.57) rotate(-180)"/></g></g></g></svg>