<svg xmlns="http://www.w3.org/2000/svg" viewBox="0 0 88.22 100"><defs><style>.cls-1{fill:#fff;}</style></defs><g id="Слой_2" data-name="Слой 2"><g id="icons"><g id="Defence"><path class="cls-1" d="M85.07,7.94,63.56,11.81,25.72,56.75c-.26,0-.52,0-.78,0a15.61,15.61,0,0,0-2.39.22L15,49.51l-2.2,2.23a9.93,9.93,0,0,0,.09,14.05l3.47,3.43L7.84,77.87a9.38,9.38,0,1,0,10.75,11L27.33,80l3.76,3.71a9.93,9.93,0,0,0,14.05-.08l2.2-2.23L39.84,74a15.76,15.76,0,0,0,.19-2.4c0-.26,0-.52-.05-.78L84.76,32.19,88.18,11A2.68,2.68,0,0,0,85.07,7.94Z"/><path class="cls-1" d="M12.63,28V22.35a43.94,43.94,0,0,0,30.61-13c.39-.39.76-.8,1.11-1.22.2.22.38.41.55.57l.17.16.24.22a47.74,47.74,0,0,0,7.06,5.81c-.48.39,4.63-4.71,4.72-5a40.76,40.76,0,0,1-7-5.61l-.43-.4A16.52,16.52,0,0,1,48.12,2a4.74,4.74,0,0,0-4-2A4.8,4.8,0,0,0,40.2,2.31l-.07.11a12.13,12.13,0,0,1-1.68,2.13,36.91,36.91,0,0,1-26.29,11A6.12,6.12,0,0,0,5.83,22v6c0,6.81.14,23.9.14,23.9a30,30,0,0,1,6.68-7.37Q12.63,36.25,12.63,28Z"/><path class="cls-1" d="M82.51,43.38a78.76,78.76,0,0,0-6.34,6.31,44.44,44.44,0,0,1-1.9,12.19C69.66,76.64,60.43,86.74,46.05,92.76a6.56,6.56,0,0,1-1.76.43,5.44,5.44,0,0,1-1.51-.43c-1.71-.72-3.33-1.49-4.88-2.32-5,.4-7.51-2.47-9-3.68l-3.31,3.48A47.36,47.36,0,0,0,40.15,99a11.82,11.82,0,0,0,3.54.94l.32,0,2-.19A12.37,12.37,0,0,0,48.67,99C64.8,92.29,75.6,80.47,80.76,63.9A51.8,51.8,0,0,0,83,48.7C83.36,47.63,82.51,43.38,82.51,43.38Z"/></g></g></g></svg>