<svg xmlns="http://www.w3.org/2000/svg" viewBox="0 0 100 93.48"><defs><style>.cls-1{fill:#fff;}</style></defs><g id="Слой_2" data-name="Слой 2"><g id="icons"><path id="Dialog_1" class="cls-1" d="M12.9,0A12.91,12.91,0,0,0,0,12.9V62.29A11.63,11.63,0,0,0,11.63,73.91H20a6,6,0,0,1,5.23,3l9.55,16.55,9.55-16.55a6.05,6.05,0,0,1,5.24-3h38.8A11.63,11.63,0,0,0,100,62.29V0Zm11,45.65A8.7,8.7,0,1,1,32.61,37,8.69,8.69,0,0,1,23.91,45.65Zm27.18,0A8.7,8.7,0,1,1,59.78,37,8.69,8.69,0,0,1,51.09,45.65Zm26.08,0A8.7,8.7,0,1,1,85.87,37,8.69,8.69,0,0,1,77.17,45.65Z"/></g></g></svg>