<svg xmlns="http://www.w3.org/2000/svg" viewBox="0 0 62.11 100"><defs><style>.cls-1{fill:#fff;}</style></defs><g id="Слой_2" data-name="Слой 2"><g id="icons"><g id="Diamond_6"><polygon class="cls-1" points="18.72 71.77 31.29 79.62 43.3 71.87 43.39 29.56 31.41 21.25 18.82 29.54 18.72 71.77"/><polygon class="cls-1" points="12.75 71.77 12.84 29.57 0.13 21.54 0 79.75 12.75 71.77"/><polygon class="cls-1" points="28.76 0.01 2.6 16.03 15.8 24.38 28.51 16.01 28.76 0.01"/><polygon class="cls-1" points="28.34 84.83 15.73 76.95 2.84 85.02 28.52 99.94 28.34 84.83"/><polygon class="cls-1" points="49.37 29.66 49.27 71.85 61.98 79.89 62.11 21.68 49.37 29.66"/><polygon class="cls-1" points="34.48 16.1 46.47 24.42 59.72 16.13 34.74 0 34.48 16.1"/><polygon class="cls-1" points="46.3 77.04 34.32 84.77 34.49 100 59.18 85.18 46.3 77.04"/></g></g></g></svg>