<svg xmlns="http://www.w3.org/2000/svg" viewBox="0 0 94.25 100"><defs><style>.cls-1{fill:#fff;}</style></defs><g id="Слой_2" data-name="Слой 2"><g id="icons"><g id="Diamond_2"><polygon class="cls-1" points="29.6 86.82 1.83 34.94 20.71 33.85 38.28 79.25 29.6 86.82"/><polygon class="cls-1" points="54.32 76.42 43 76.42 26.87 31.98 44.41 17.65 54.32 76.42"/><polygon class="cls-1" points="0 29.32 18.94 28.4 9.89 2.16 0 29.32"/><polygon class="cls-1" points="14.77 0 41.33 11.88 23.81 26.24 14.77 0"/><polygon class="cls-1" points="61.86 76.42 60.92 33.97 74.92 41.92 70.35 76.42 61.86 76.42"/><polygon class="cls-1" points="81.67 76.42 75.07 76.42 80.73 42.46 94.25 39.98 81.67 76.42"/><polygon class="cls-1" points="64.69 29.26 76.01 35.86 79.78 16.99 64.69 29.26"/><polygon class="cls-1" points="83.56 16.99 92.99 33.97 81.67 36.8 83.56 16.99"/><polygon class="cls-1" points="30.73 97.17 43 83.97 85.44 83.97 85.44 100 30.73 100 30.73 97.17"/></g></g></g></svg>