<svg xmlns="http://www.w3.org/2000/svg" viewBox="0 0 100 89.59"><defs><style>.cls-1{fill:#fff;}</style></defs><g id="Слой_2" data-name="Слой 2"><g id="icons"><g id="Diamond_3"><polygon class="cls-1" points="21.4 41.81 33.25 21.29 22.49 2.85 0 41.81 21.4 41.81"/><polygon class="cls-1" points="32.78 67.5 21.4 47.78 0 47.78 22.51 86.76 32.78 67.5"/><polygon class="cls-1" points="26.57 44.79 38.29 65.08 61.71 65.08 73.43 44.79 61.71 24.5 38.29 24.5 26.57 44.79"/><polygon class="cls-1" points="27.74 0 38.55 18.53 61.45 18.53 72.26 0 27.74 0"/><polygon class="cls-1" points="66.75 21.29 78.6 41.81 100 41.81 77.51 2.85 66.75 21.29"/><polygon class="cls-1" points="78.6 47.78 67.28 67.39 77.62 86.55 100 47.78 78.6 47.78"/><polygon class="cls-1" points="62.47 71.06 37.65 71.06 27.77 89.59 72.47 89.59 62.47 71.06"/></g></g></g></svg>