<svg xmlns="http://www.w3.org/2000/svg" viewBox="0 0 70.6 100"><defs><style>.cls-1{fill:#fff;}</style></defs><g id="Слой_2" data-name="Слой 2"><g id="icons"><g id="Diamond_5"><polygon class="cls-1" points="14.59 71.27 14.59 54.7 0 49.02 0 82.66 14.59 71.27"/><polygon class="cls-1" points="53.13 77.17 46.07 81.45 51.98 98.35 67.89 88.69 53.13 77.17"/><polygon class="cls-1" points="2.55 88.6 18.39 98.21 24.3 81.31 17.31 77.08 2.55 88.6"/><polygon class="cls-1" points="41.38 76.99 49.75 71.9 49.75 53.98 35.3 35.4 20.85 53.98 20.85 71.9 29.22 76.99 41.38 76.99"/><polygon class="cls-1" points="40.07 83.24 30.25 83.24 24.38 100 35.3 100 45.94 100 40.07 83.24"/><polygon class="cls-1" points="70.29 87.24 70.6 87.05 70.6 86.84 70.29 87.24"/><polygon class="cls-1" points="16.89 48.88 35.3 25.22 53.64 48.8 68.71 42.94 35.3 0 1.83 43.02 16.89 48.88"/><polygon class="cls-1" points="70.6 82.88 70.6 48.91 56.01 54.59 56.01 71.48 70.6 82.88"/></g></g></g></svg>