<svg xmlns="http://www.w3.org/2000/svg" viewBox="0 0 100 97.99"><defs><style>.cls-1{fill:#fff;}</style></defs><g id="Слой_2" data-name="Слой 2"><g id="icons"><g id="Diploma"><path class="cls-1" d="M36.4,70l-.9,0a4.24,4.24,0,0,1-3-7.38l.66-.6a4.22,4.22,0,0,0,0-6.28l-.66-.6a4.24,4.24,0,0,1,3-7.38l.9,0a4.23,4.23,0,0,0,4.44-4.45l0-.89a4.23,4.23,0,0,1,7.37-3.05l.6.66a4.24,4.24,0,0,0,6.29,0l.6-.66A4.23,4.23,0,0,1,63,42.56l-.05.89a4.24,4.24,0,0,0,4.45,4.45l.54,0c11.16-6.78,19.4-9.74,23.84-12.73A10.8,10.8,0,0,1,87.7,36a13.15,13.15,0,0,1-3.28-.43c-9.09-2.36-18-13.68-19.52-21.85a10.71,10.71,0,0,1-.19-1.94C45.68,40,18.62,47.1,10.65,48.62A12.32,12.32,0,0,0,2.8,53.53C.42,56.93-1.69,62.8,2,71.67c4.54,10.89,12.41,13.79,17.15,14.4a8.77,8.77,0,0,0,7.69-2.88c4.14-4.65,8.13-8.8,12-12.52A4.24,4.24,0,0,0,36.4,70Z"/><path class="cls-1" d="M99.19,27.73C94.48,26.65,90,22.91,87,17.68c-1.34,1.15-3.12,2.68-4.9,4.18-1.13.95-2.14,1.78-3,2.51,3.07,3.2,6.7,5.76,10.31,6.7a9.42,9.42,0,0,0,10.18-3.28Z"/><path class="cls-1" d="M85.36,11.44l2.35-2,1.22,2.86c2.25,5.24,6.31,9.22,10.36,10.14a5.85,5.85,0,0,0,.71.12c.07-6.79-6.55-15.09-13.67-19.9C79.56-2,74.5.6,72.6,2c-.25.28-.48.57-.7.87a8.62,8.62,0,0,0-1.61,6.89,26.88,26.88,0,0,0,5,10.28C78,17.73,81.85,14.49,85.36,11.44Z"/><path class="cls-1" d="M53.83,47.53l.36-.41A2.58,2.58,0,0,1,58.68,49l0,.55a2.57,2.57,0,0,0,2.71,2.7l.54,0a2.58,2.58,0,0,1,1.86,4.49l-.4.37a2.56,2.56,0,0,0,0,3.82l.4.37a2.58,2.58,0,0,1-1.86,4.49l-.54,0a2.58,2.58,0,0,0-2.71,2.71l0,.54a2.58,2.58,0,0,1-4.49,1.86l-.36-.41a2.59,2.59,0,0,0-3.83,0l-.37.41A2.57,2.57,0,0,1,45.15,69l0-.54a2.57,2.57,0,0,0-2.7-2.71l-.55,0a2.58,2.58,0,0,1-1.85-4.49l.4-.37a2.58,2.58,0,0,0,0-3.82l-.4-.37a2.58,2.58,0,0,1,1.85-4.49l.55,0a2.57,2.57,0,0,0,2.7-2.7l0-.55a2.57,2.57,0,0,1,4.48-1.86l.37.41A2.59,2.59,0,0,0,53.83,47.53Z"/><path class="cls-1" d="M64.45,72.93a2.87,2.87,0,0,1-.73.07l-.55,0a2.57,2.57,0,0,0-2.7,2.7l0,.55A2.57,2.57,0,0,1,56,78.08l-.37-.41a2.57,2.57,0,0,0-1-.69c.77,10-5.4,21-5.4,21l10.89-4.54,7.26,3.63C70.73,89.73,67.42,79.55,64.45,72.93Z"/><path class="cls-1" d="M70.62,57.89a2.67,2.67,0,0,1-.51.62l-.4.36a2.57,2.57,0,0,0,0,3.83l.4.36a2.58,2.58,0,0,1-1.86,4.49l-.54,0a2.84,2.84,0,0,0-.72.08C78.09,69.29,87.5,82.19,87.5,82.19l.4-11.79,6.32-5.09C88.83,59,77.88,57.89,70.62,57.89Z"/></g></g></g></svg>