<svg xmlns="http://www.w3.org/2000/svg" viewBox="0 0 100 85.33"><defs><style>.cls-1{fill:#fff;}</style></defs><g id="Слой_2" data-name="Слой 2"><g id="icons"><g id="Dislike"><rect class="cls-1" x="8.84" y="40.02" width="53.32" height="14.44" rx="6.5" transform="translate(70.92 94.55) rotate(-179.91)"/><rect class="cls-1" x="8.91" y="0.03" width="53.32" height="14.44" rx="6.5" transform="translate(71.12 14.57) rotate(-179.91)"/><path class="cls-1" d="M31.35,73.18,45.5,46.71c2.71-2.9,13.08-5,16-2.25h0c2.9,2.72,15.62,3.84,12.9,6.74L59.81,63.59A108.78,108.78,0,0,0,41.9,83.05h0a7.25,7.25,0,0,1-10.2.33h0A7.25,7.25,0,0,1,31.35,73.18Z"/><rect class="cls-1" x="2.2" y="25.58" width="59.99" height="14.44" rx="6.5" transform="translate(64.33 65.65) rotate(-179.91)"/><rect class="cls-1" y="11.13" width="59.99" height="14.44" rx="6.5" transform="translate(59.96 36.76) rotate(-179.91)"/><rect class="cls-1" x="39.98" y="0.07" width="35.55" height="53.32" rx="4.15" transform="translate(115.46 53.56) rotate(-179.91)"/><rect class="cls-1" x="82.19" y="0.13" width="17.77" height="53.32" rx="4.15" transform="translate(182.11 53.72) rotate(-179.91)"/></g></g></g></svg>