<svg xmlns="http://www.w3.org/2000/svg" viewBox="0 0 100 94.48"><defs><style>.cls-1{fill:#fff;}</style></defs><g id="Слой_2" data-name="Слой 2"><g id="icons"><g id="Doggie"><path class="cls-1" d="M26.47,36.51c.27-.36.63-1,1-1.45,4.47-6.29,11.21-8.93,19.32-8.93,9,0,16.3,3,20.31,9.75a19.43,19.43,0,0,1,2.64,9.84V76.6H58.89V68.22c-.91,2.64-3.91,5.37-6.1,6.65a22.8,22.8,0,0,1-11.47,3A17.32,17.32,0,0,1,28.83,72.4c-2.55-3.55-3.82-6-3.82-10.29A16,16,0,0,1,32.93,48.9c5.47-2.91,9.29-3,16.31-4.1l7.92-1.09a7.26,7.26,0,0,0-3.64-4.56,12.83,12.83,0,0,0-7-1.54c-3.18,0-5.83.72-7.74,3a6.66,6.66,0,0,0-1,1.28ZM48.33,55.37c-5.28,1-10.84,2-11,5.92-.18,2.92,2.46,5.47,6.47,5.28,5.19-.18,11.48-2.73,13-8.65a18.35,18.35,0,0,0,.64-4.28Z"/><path class="cls-1" d="M48.71,94.48c-27.38,0-39-13.39-43.68-21.93-8.19-15.06-6.21-36,4.71-49.79C23.19,5.76,49.32-6.3,73.21,3.54,91.78,11.19,106.06,32,97.41,57,92.89,70.07,80,77.36,62.9,76.57l.54-11.36c5.64.28,19.22-.35,23.22-11.92,7.1-20.5-6.74-34.69-17.78-39.24C50.39,6.43,29.2,16.49,18.65,29.81,11.78,38.5,8.17,54.52,15,67.12c6.61,12.16,21,17.56,41.49,15.61L57.59,94C54.46,94.34,51.5,94.48,48.71,94.48Z"/></g></g></g></svg>