<svg xmlns="http://www.w3.org/2000/svg" viewBox="0 0 88.22 100"><defs><style>.cls-1{fill:#fff;}</style></defs><g id="Слой_2" data-name="Слой 2"><g id="icons"><g id="Double_Arrow_Left"><path class="cls-1" d="M70.88,84.34A317.44,317.44,0,0,1,22.67,49.92a380.69,380.69,0,0,1,48-34.28L59.32,0C38.12,13.05,19.57,26.68,4.15,40.54a12.55,12.55,0,0,0-.1,18.56A331.12,331.12,0,0,0,59.54,100Z"/><path class="cls-1" d="M88.22,60.41A134.61,134.61,0,0,1,72.68,50,172.43,172.43,0,0,1,88,39.57L76.65,23.93A169.69,169.69,0,0,0,52.38,41.8a10.87,10.87,0,0,0-.09,16.1A148.27,148.27,0,0,0,76.87,76.07Z"/></g></g></g></svg>