<svg xmlns="http://www.w3.org/2000/svg" viewBox="0 0 88.22 100"><defs><style>.cls-1{fill:#fff;}</style></defs><g id="Слой_2" data-name="Слой 2"><g id="icons"><g id="Double_Arrow_Right"><path class="cls-1" d="M17.33,84.34A317,317,0,0,0,65.55,49.92a382.15,382.15,0,0,0-48-34.28L28.9,0C50.1,13.05,68.65,26.68,84.06,40.54a12.54,12.54,0,0,1,.11,18.56A331.21,331.21,0,0,1,28.67,100Z"/><path class="cls-1" d="M0,60.41A135.34,135.34,0,0,0,15.53,50,170.76,170.76,0,0,0,.24,39.57L11.57,23.93A170.25,170.25,0,0,1,35.84,41.8a10.89,10.89,0,0,1,.09,16.1A147.94,147.94,0,0,1,11.34,76.07Z"/></g></g></g></svg>