<svg xmlns="http://www.w3.org/2000/svg" viewBox="0 0 100 88.22"><defs><style>.cls-1{fill:#fff;}</style></defs><g id="Слой_2" data-name="Слой 2"><g id="icons"><g id="Double_Arrow_Up"><path class="cls-1" d="M84.34,70.88A317.44,317.44,0,0,0,49.92,22.67a380.69,380.69,0,0,0-34.28,48L0,59.32C13.05,38.12,26.68,19.57,40.54,4.15a12.55,12.55,0,0,1,18.56-.1A331.12,331.12,0,0,1,100,59.54Z"/><path class="cls-1" d="M60.41,88.22A134.61,134.61,0,0,0,50,72.68,172.43,172.43,0,0,0,39.57,88L23.93,76.65A169.69,169.69,0,0,1,41.8,52.38a10.87,10.87,0,0,1,16.1-.09A148.27,148.27,0,0,1,76.07,76.87Z"/></g></g></g></svg>