<svg xmlns="http://www.w3.org/2000/svg" viewBox="0 0 100 88.22"><defs><style>.cls-1{fill:#fff;}</style></defs><g id="Слой_2" data-name="Слой 2"><g id="icons"><g id="Double_Arrow_Down"><path class="cls-1" d="M15.66,17.33A317,317,0,0,0,50.08,65.55a382.15,382.15,0,0,0,34.28-48L100,28.9C87,50.1,73.32,68.65,59.46,84.06a12.54,12.54,0,0,1-18.56.11A331.21,331.21,0,0,1,0,28.67Z"/><path class="cls-1" d="M39.59,0A135.34,135.34,0,0,0,50,15.53,170.76,170.76,0,0,0,60.43.24L76.07,11.57A170.25,170.25,0,0,1,58.2,35.84a10.89,10.89,0,0,1-16.1.09A147.94,147.94,0,0,1,23.93,11.34Z"/></g></g></g></svg>