<svg xmlns="http://www.w3.org/2000/svg" viewBox="0 0 100 96.75"><defs><style>.cls-1{fill:#fff;}</style></defs><g id="Слой_2" data-name="Слой 2"><g id="icons"><g id="Edit"><path class="cls-1" d="M88.78,2.82H96a5.6,5.6,0,0,1,5.6,5.6V12.5a0,0,0,0,1,0,0H83.18a0,0,0,0,1,0,0V8.42a5.6,5.6,0,0,1,5.6-5.6Z" transform="translate(33.26 -63.75) rotate(45.62)"/><path class="cls-1" d="M52.65,50.76a3.86,3.86,0,0,1-3.13-1.14h0a3.82,3.82,0,0,1-1.07-3.15l1.21-9.89L62.57,49.77Z"/><polygon class="cls-1" points="82.9 12.38 82.94 12.35 78.77 8.1 53.05 33.26 56.85 37.13 56.81 37.16 65.96 46.45 91.68 21.29 82.9 12.38"/><path class="cls-1" d="M82.93,23l0,0,1.22,1.23V21.5a8.71,8.71,0,0,0-.52-2.95L81,21.05Z"/><path class="cls-1" d="M75.41,47.83V87.89a.17.17,0,0,1-.16.16H8.86a.17.17,0,0,1-.16-.16V21.5a.17.17,0,0,1,.16-.16H54.37l8.89-8.7H8.86A8.87,8.87,0,0,0,0,21.5V87.89a8.87,8.87,0,0,0,8.86,8.86H75.25a8.87,8.87,0,0,0,8.87-8.86V39.32Z"/></g></g></g></svg>