<svg xmlns="http://www.w3.org/2000/svg" viewBox="0 0 99.08 100"><defs><style>.cls-1{fill:#fff;}</style></defs><g id="Слой_2" data-name="Слой 2"><g id="icons"><g id="Enter"><path class="cls-1" d="M85.6,26.19a2.73,2.73,0,0,0-5.07,1.41v11L42.61,34.36V62.9l37.92-4.54v11.3a2.73,2.73,0,0,0,5.07,1.41L99.08,48.63Z"/><path class="cls-1" d="M59.74,68.69v19.7a.29.29,0,0,1-.29.28H11.61a.29.29,0,0,1-.28-.28V11.61a.29.29,0,0,1,.28-.28H59.45a.29.29,0,0,1,.29.28V28.43L71.07,30V11.61A11.63,11.63,0,0,0,59.45,0H11.61A11.63,11.63,0,0,0,0,11.61V88.39A11.63,11.63,0,0,0,11.61,100H59.45A11.63,11.63,0,0,0,71.07,88.39V67.07Z"/></g></g></g></svg>