<svg xmlns="http://www.w3.org/2000/svg" viewBox="0 0 28.04 100"><defs><style>.cls-1{fill:#fff;}</style></defs><g id="Слой_2" data-name="Слой 2"><g id="icons"><g id="Exclamation"><path class="cls-1" d="M21,68.21H7.05a2.65,2.65,0,0,1-2.64-2.47L0,2.84A2.64,2.64,0,0,1,2.65,0H25.39A2.65,2.65,0,0,1,28,2.84l-4.4,62.9A2.66,2.66,0,0,1,21,68.21Z"/><path class="cls-1" d="M21.75,100H6.28a2.65,2.65,0,0,1-2.65-2.65L3.6,82a2.66,2.66,0,0,1,2.65-2.66H21.78A2.64,2.64,0,0,1,24.43,82l0,15.38A2.64,2.64,0,0,1,21.75,100Z"/></g></g></g></svg>