<svg xmlns="http://www.w3.org/2000/svg" viewBox="0 0 100 97.2"><defs><style>.cls-1{fill:#fff;}</style></defs><g id="Слой_2" data-name="Слой 2"><g id="icons"><g id="Export"><path class="cls-1" d="M76.2,47.15l.24,41.07a.18.18,0,0,1-.16.16H9a.17.17,0,0,1-.16-.16V20.92A.18.18,0,0,1,9,20.76H55.1l10.32-8.89L9,11.94a9,9,0,0,0-9,9v67.3a9,9,0,0,0,9,9h67.3a9,9,0,0,0,9-9V39Z"/><path class="cls-1" d="M98.66,4.76,72.86,0A1.63,1.63,0,0,0,71.3,2.66L78,10.91a1.63,1.63,0,0,1-.26,2.32L54.08,34a7.82,7.82,0,0,0-.6,11.17h0a7.82,7.82,0,0,0,10.88.64L87.81,25.53a1.63,1.63,0,0,1,2.33.2l6.8,8.33a1.63,1.63,0,0,0,2.89-1L100,6.38A1.65,1.65,0,0,0,98.66,4.76Z"/></g></g></g></svg>