<svg xmlns="http://www.w3.org/2000/svg" viewBox="0 0 100 86.58"><defs><style>.cls-1{fill:#fff;}</style></defs><g id="Слой_2" data-name="Слой 2"><g id="icons"><g id="Eyes_Hide"><path class="cls-1" d="M58.38,57.62A19,19,0,0,1,40.67,23.94L33.1,9.56C13.81,18.87,0,40.53,0,40.53S22.39,75.68,50,75.68A38.21,38.21,0,0,0,65.92,72Z"/><path class="cls-1" d="M50,5.39A35.41,35.41,0,0,0,40,6.88l7.76,14.75A18.62,18.62,0,0,1,50,21.49a19,19,0,0,1,14.3,31.6l8.08,15.37C88.75,58.17,100,40.53,100,40.53S77.61,5.39,50,5.39Z"/><rect class="cls-1" x="43.15" y="-5.14" width="7.34" height="96.86" rx="3.67" transform="translate(108.42 59.76) rotate(152.22)"/></g></g></g></svg>