<svg xmlns="http://www.w3.org/2000/svg" viewBox="0 0 100 76.8"><defs><style>.cls-1{fill:#fff;}</style></defs><g id="Слой_2" data-name="Слой 2"><g id="icons"><g id="Fence"><rect class="cls-1" y="30.64" width="100" height="12.5"/><path class="cls-1" d="M27.88,38.33V8.52L20.13.77a2.63,2.63,0,0,0-3.72,0L8.65,8.52V38.33Z"/><rect class="cls-1" x="8.65" y="50.83" width="19.23" height="25"/><path class="cls-1" d="M59.77,38.33,55.42,7.47,46.67.88A2.64,2.64,0,0,0,43,1.4l-6.59,8.75,4,28.18Z"/><polygon class="cls-1" points="42.11 50.83 45.77 76.8 64.81 74.12 61.53 50.83 42.11 50.83"/><path class="cls-1" d="M91.35,38.33V8.52L83.59.77a2.63,2.63,0,0,0-3.72,0L72.12,8.52V38.33Z"/><rect class="cls-1" x="72.12" y="50.83" width="19.23" height="25"/></g></g></g></svg>