<svg xmlns="http://www.w3.org/2000/svg" viewBox="0 0 100 81.69"><defs><style>.cls-1{fill:#fff;}</style></defs><g id="Слой_2" data-name="Слой 2"><g id="icons"><g id="File"><path class="cls-1" d="M100,35.26v1.67c-.16.53-.32,1.06-.47,1.59Q94.39,56.16,89.24,73.78c-1.57,5.38-4.92,7.91-10.54,7.91H10.3a3.81,3.81,0,0,1,.54-.24c4-1,6.37-3.63,7.5-7.56,3.52-12.21,7.1-24.4,10.65-36.6,1.43-4.91,4.46-7.19,9.59-7.19H87.64c2,0,4.09,0,6.14,0a5.88,5.88,0,0,1,5.58,3.33A13.16,13.16,0,0,1,100,35.26Z"/><path class="cls-1" d="M83.41,19.85H33.52c-6.56,0-11.25,3.53-13.08,9.83Q15,48.25,9.6,66.82c-.86,2.92-3,4.6-5.69,4.56A3.93,3.93,0,0,1,0,67.57c0-.16,0-.31,0-.47V8.18A7.9,7.9,0,0,1,6.13.24,10.38,10.38,0,0,1,8.43,0c7.22,0,14.44,0,21.66,0A10.07,10.07,0,0,1,38.4,4c1.09,1.38,2.25,2.72,3.33,4.12A4.65,4.65,0,0,0,45.67,10q14.69,0,29.37,0c3.95,0,7,2.25,7.93,5.86A29.39,29.39,0,0,1,83.41,19.85Z"/></g></g></g></svg>