<svg xmlns="http://www.w3.org/2000/svg" viewBox="0 0 89.07 100"><defs><style>.cls-1{fill:#fff;}</style></defs><g id="Слой_2" data-name="Слой 2"><g id="icons"><g id="Filter_2"><path class="cls-1" d="M87,0a3.5,3.5,0,0,1,2.07,3.74c-.1,2.43,0,4.86,0,7.34H0v-.86C0,8.06.1,5.89,0,3.74A3.47,3.47,0,0,1,2.07,0Z"/><path class="cls-1" d="M1.75,18.74H87.3c-.23.28-.39.48-.57.67Q73.45,32.86,60.15,46.31a2.14,2.14,0,0,1-1.34.57q-14.27,0-28.55,0a1.85,1.85,0,0,1-1.21-.44q-13.5-13.62-27-27.3C2,19.06,1.93,19,1.75,18.74Z"/><path class="cls-1" d="M33.41,55.54H55.62c0,.32,0,.61,0,.91,0,9.71,0,19.41,0,29.11A3.48,3.48,0,0,1,54,88.72Q46.06,94,38.18,99.25a3,3,0,0,1-3.29.41,3,3,0,0,1-1.49-3q0-20.11,0-40.23Z"/></g></g></g></svg>