<svg xmlns="http://www.w3.org/2000/svg" viewBox="0 0 85.92 100"><defs><style>.cls-1{fill:#fff;}</style></defs><g id="Слой_2" data-name="Слой 2"><g id="icons"><g id="Fire"><path class="cls-1" d="M12.68,3.37S28.31-4.28,35.14,4.49c7.86,10.11-4.5,18-14.6,19.09C20.54,23.58,31.77,11.23,12.68,3.37Z"/><path class="cls-1" d="M74.44,38.18C76.68,51.66,55.35,64,53.1,57.27S70,49.41,66.58,24.71,40.75,0,40.75,0s9,9,4.49,20.21C40.08,33.11,14.92,31.44,3.69,47.16-1.67,54.67-.38,61.52,2.44,71.33A39.65,39.65,0,0,0,27.15,97.64s3.49-1.07,2.37-4.43-11.11-12.31-9-18c3.37-9,15.72-10.11,16.84-7.86,0,0-10.11,4.49-4.49,13.47,1.38,2.21,5.28,3.68,8.16,6a6.37,6.37,0,0,1-3.46,11.26,47.78,47.78,0,0,1-10.44-.5A39.88,39.88,0,0,0,43,99.93c2.53-.15,5-.41,7.43-.74a39.7,39.7,0,0,0,32.4-27.7,87.79,87.79,0,0,0,2.87-12C87.91,44.92,74.44,38.18,74.44,38.18Z"/></g></g></g></svg>