<svg xmlns="http://www.w3.org/2000/svg" viewBox="0 0 88.06 100"><defs><style>.cls-1{fill:#fff;}</style></defs><g id="Слой_2" data-name="Слой 2"><g id="icons"><path id="Fire_More" class="cls-1" d="M75,36.75c0,5.4-4.05,9.1-7.57,3.24-3.24-5.41,3.24-6.49,3.24-15.13C70.68.86,42.58,0,42.58,0s8.65,8.65,4.33,19.45c-5,12.42-31.35,8.65-42.15,23.78C-.4,50.45-1.73,63.77,2.59,74.57,6.74,84.93,17.22,97.39,36.23,100V62.21h-13L44,40,64.85,62.21h-13v37.4C66.42,97,85.86,81.6,88,59.44,89.32,45.29,75,36.75,75,36.75Z"/></g></g></svg>