<svg xmlns="http://www.w3.org/2000/svg" viewBox="0 0 100 98.72"><defs><style>.cls-1{fill:#fff;}</style></defs><g id="Слой_2" data-name="Слой 2"><g id="icons"><g id="Fish"><path class="cls-1" d="M30.13,66.69C28.87,65.38,18.36,55.52.29,69.39a.75.75,0,0,0,.4,1.34c3.42.23,10.66,1.09,16.66,4.32,6.83,3.68,12.41-4.26,14-6.93A.74.74,0,0,0,31,67l-.5-.14A.8.8,0,0,1,30.13,66.69Z"/><path class="cls-1" d="M32,68.41c1.42,1.14,12.21,10.68.07,30a.75.75,0,0,1-1.37-.27c-.54-3.38-2.07-10.52-5.84-16.19-4.3-6.47,3.09-12.75,5.6-14.62a.74.74,0,0,1,1.13.34l.19.47A.7.7,0,0,0,32,68.41Z"/><circle class="cls-1" cx="72.36" cy="12.87" r="2.79"/><path class="cls-1" d="M94.25,18.83c-.15-5.54-1.33-11-4.53-14.92C81-1.52,70.8-.36,63.23,1.84A39.61,39.61,0,0,0,51.91,6.36C26.79,20.48,27.51,55.25,28.34,65.75l-.23.24.27.24c.14,1.64.27,2.57.27,2.57l1,1.79.71-.8,1.61.7s.39,0,1.11,0l.51.47.41-.45a83.21,83.21,0,0,0,28.53-5A48.8,48.8,0,0,0,94.25,18.83Zm-42.34-.39c6.5,14,22.3,21.38,22.3,21.38C51.91,39.82,51.91,18.44,51.91,18.44ZM72.36,20.3a7.44,7.44,0,1,1,7.43-7.43A7.44,7.44,0,0,1,72.36,20.3Z"/><path class="cls-1" d="M41.19,5.31c-4.13-1.22-12.95-3.18-17.31.81-5.6,5.13-11.3,32.62-1.13,38.48C24.18,32,28.59,15.57,41.19,5.31Z"/><path class="cls-1" d="M97.21,39.34A48.77,48.77,0,0,1,86.44,57.88c.75,2.63,2.87,5.12,8.53,3.43C103.34,58.8,99.18,44.77,97.21,39.34Z"/></g></g></g></svg>