<svg xmlns="http://www.w3.org/2000/svg" viewBox="0 0 85.12 100"><defs><style>.cls-1{fill:#fff;}</style></defs><g id="Слой_2" data-name="Слой 2"><g id="icons"><g id="Fist"><path class="cls-1" d="M71.79,29.94h6.74a2.3,2.3,0,0,1,2.3,2.3V46.8a5,5,0,0,1-5,5H74.5a5,5,0,0,1-5-5V32.24A2.3,2.3,0,0,1,71.79,29.94Z" transform="translate(36.29 -35.34) rotate(34.44)"/><path class="cls-1" d="M56.22,20.46h7a2.16,2.16,0,0,1,2.16,2.16V39.69a5,5,0,0,1-5,5H59.07a5,5,0,0,1-5-5V22.62a2.16,2.16,0,0,1,2.16-2.16Z" transform="translate(28.9 -28.07) rotate(34.44)"/><polygon class="cls-1" points="23.59 67.47 15.02 100 66.4 100 66.4 72.52 23.59 67.47"/><path class="cls-1" d="M54.26,15.05l-6-4.09a3.13,3.13,0,0,0-4.33.81l-6.13,8.94,12.05,6.23,5.18-7.56A3.12,3.12,0,0,0,54.26,15.05Z"/><path class="cls-1" d="M32.69,18.06,38.93,9a3.1,3.1,0,0,0-.81-4.32l-6-4.1a3.11,3.11,0,0,0-4.32.81L20.64,11.84Z"/><path class="cls-1" d="M76,54.79h0a1.35,1.35,0,0,0-1.4.92,4.43,4.43,0,0,1-.2.45l-.31.56a3.11,3.11,0,0,1-4.22,1.22L43.89,43.69l-.11-.07L22.32,45.34a2.84,2.84,0,0,1-3.12-2.87h0a3.45,3.45,0,0,1,3.12-3.37l18.13-1.45,2.29-3.33a2.81,2.81,0,0,0-1-4.09L19.93,19a5.27,5.27,0,0,0-6.8,1.75L0,40.39,22.6,72.8l43.94,6S79.9,75.28,76,54.79Z"/></g></g></g></svg>