<svg xmlns="http://www.w3.org/2000/svg" viewBox="0 0 96.91 100"><defs><style>.cls-1{fill:#fff;}</style></defs><g id="Слой_2" data-name="Слой 2"><g id="icons"><g id="Flag"><rect class="cls-1" x="13.4" y="7.22" width="70.1" height="12.37"/><path class="cls-1" d="M11.57,0h2.86a0,0,0,0,1,0,0V27.84a0,0,0,0,1,0,0H11.57a5.39,5.39,0,0,1-5.39-5.39V5.39A5.39,5.39,0,0,1,11.57,0Z"/><circle class="cls-1" cx="6.19" cy="13.4" r="6.19"/><path class="cls-1" d="M87.86,0h2.86a0,0,0,0,1,0,0V27.84a0,0,0,0,1,0,0H87.86a5.39,5.39,0,0,1-5.39-5.39V5.39A5.39,5.39,0,0,1,87.86,0Z" transform="translate(173.2 27.84) rotate(-180)"/><circle class="cls-1" cx="90.72" cy="13.4" r="6.19"/><polygon class="cls-1" points="48.45 86.23 65.27 75.53 65.27 29.2 31.64 29.2 31.64 75.53 48.45 86.23"/><path class="cls-1" d="M76.29,24V6.35A3.26,3.26,0,0,0,73,3.09H23.88a3.26,3.26,0,0,0-3.26,3.26V24Z"/><polygon class="cls-1" points="70.58 29.2 70.58 78.45 48.45 92.53 26.33 78.45 26.33 29.2 20.62 29.2 20.62 83.5 48.45 100 76.29 83.5 76.29 29.2 70.58 29.2"/></g></g></g></svg>