<svg xmlns="http://www.w3.org/2000/svg" viewBox="0 0 94.77 100"><defs><style>.cls-1{fill:#fff;}</style></defs><g id="Слой_2" data-name="Слой 2"><g id="icons"><g id="Flag_1"><path class="cls-1" d="M23.23,5.09h.1a4.2,4.2,0,0,1,4.2,4.2v93.55a0,0,0,0,1,0,0H19a0,0,0,0,1,0,0V9.29a4.2,4.2,0,0,1,4.2-4.2Z" transform="translate(-20.77 15.06) rotate(-25.22)"/><path class="cls-1" d="M48.2,1C43.39-3.14,27,6.68,16.89,13.45l15.52,33c21.72-19.08,36-14,36-14S55.28,7.05,48.2,1Z"/><path class="cls-1" d="M47.18,11.1s16.2,32.4,21.26,35.43S94.77,26.29,94.77,26.29,79.58,22.24,77.56,15.15A28.83,28.83,0,0,1,77.56,1S54.27,21.22,47.18,11.1Z"/></g></g></g></svg>