<svg xmlns="http://www.w3.org/2000/svg" viewBox="0 0 77.92 100"><defs><style>.cls-1{fill:#fff;}</style></defs><g id="Слой_2" data-name="Слой 2"><g id="icons"><g id="Flag_2"><path class="cls-1" d="M22.57,7.92h0A4.13,4.13,0,0,1,26.7,12v90.71a0,0,0,0,1,0,0H18.44a0,0,0,0,1,0,0V12a4.13,4.13,0,0,1,4.13-4.13Z" transform="translate(-21.43 14.89) rotate(-25.22)"/><path class="cls-1" d="M73.26,0s2,3.93-3.93,10.8S45.76,5.89,32,5.89c-6.8,0-12.39,3.84-16.31,7.73l15.05,32a30.33,30.33,0,0,1,9.12-7.28c9.82-4.91,34.37,2,37.32-15.72S73.26,0,73.26,0Z"/></g></g></g></svg>