<svg xmlns="http://www.w3.org/2000/svg" viewBox="0 0 90.19 100"><defs><style>.cls-1{fill:#fff;}</style></defs><g id="Слой_2" data-name="Слой 2"><g id="icons"><path id="Flower" class="cls-1" d="M90.15,28.36l0,0,0,0v0l0,0c-17.53-9.87-29.6-.53-36.48,8.61,5.6-10,9.29-24.78-6.8-36.86V0l0,0,0,0V.05C32.49,9.31,32.21,21.48,35.42,31.28,29.3,23,19.21,16.17,3.39,22.46l0,0v0l0,0,0,0c.46,17.36,11.12,23.88,21.34,26.12C14.26,49.47,2.83,54.5,0,71.64l0,0,0,0v0l0,0c17.53,9.87,29.6.53,36.48-8.61-5.6,10-9.29,24.78,6.8,36.86v0l0,0,0,0v0C57.7,90.69,58,78.52,54.77,68.72,60.89,77,71,83.83,86.8,77.54l0,0v0l0,0,0,0C86.38,60.13,75.73,53.61,65.5,51.37,75.93,50.53,87.36,45.5,90.15,28.36ZM44.52,60.43a11,11,0,1,1,11-11A11,11,0,0,1,44.52,60.43Z"/></g></g></svg>