<svg xmlns="http://www.w3.org/2000/svg" viewBox="0 0 100 89.37"><defs><style>.cls-1{fill:#fff;}</style></defs><g id="Слой_2" data-name="Слой 2"><g id="icons"><path id="Fly" class="cls-1" d="M95.05,23.67s0-7.81-.13-8.19c.33-18-19.85-18.08-18.23-11.43,1.81,7.47-10.9,29.66-37.93,36-18.84,4.37-27,9.49-30.21,12.19A20.52,20.52,0,1,0,34.86,83.52a20.49,20.49,0,0,0,3.5-7.37c1-4.55-.24-8.75-3.82-12.84s-7.41-4-9.93-3.13c-4.19,1.45-7.76,5.76-8,9.61-.11,2.18,1,3.76,3.27,4.84a3.82,3.82,0,0,0,3.83-.37,4.45,4.45,0,0,0,1.74-2h0a3.44,3.44,0,1,1,1.67-6.67,6.54,6.54,0,0,1,5.13,4.93c.65,3-.86,6.45-3.86,8.84A10.71,10.71,0,0,1,17,80.86c-4.85-2.26-7.49-6.43-7.23-11.43.34-6.61,5.75-13.38,12.58-15.75,6.29-2.18,12.61-.32,17.36,5.1,5,5.69,6.83,12.21,5.35,18.86a22.51,22.51,0,0,1-.85,2.84A82.33,82.33,0,0,0,57.8,83.64a16.47,16.47,0,0,0,2.53.18C80.5,83.56,83,72.36,83.08,67.35a3.75,3.75,0,0,1,3-3.43c8.86-3.79,8-11.75,6.76-16-.69-1.65-.69-2.63-.93-2.81C105.82,34.12,98.27,26.19,95.05,23.67Z"/></g></g></svg>