<svg xmlns="http://www.w3.org/2000/svg" viewBox="0 0 93.44 100.05"><defs><style>.cls-1{fill:#fff;}</style></defs><g id="Слой_2" data-name="Слой 2"><g id="icons"><g id="Fuel"><path class="cls-1" d="M9.15-.38h9.74a0,0,0,0,1,0,0V25.51a0,0,0,0,1,0,0H9.15a3.72,3.72,0,0,1-3.72-3.72V3.34A3.72,3.72,0,0,1,9.15-.38Z" transform="translate(11.64 -4.91) rotate(42.36)"/><path class="cls-1" d="M91.77,22.63l-11-11.74a6.14,6.14,0,0,0-4.5-2H37.4L8.53,40.86v53a6.16,6.16,0,0,0,6.17,6.16H87.27a6.16,6.16,0,0,0,6.17-6.16v-67A6.19,6.19,0,0,0,91.77,22.63ZM83.08,36.9,63.41,17.22h8a5.81,5.81,0,0,1,4.11,1.7l5.91,5.92A5.81,5.81,0,0,1,83.08,29Z"/></g></g></g></svg>