<svg xmlns="http://www.w3.org/2000/svg" viewBox="0 0 93.71 99.76"><defs><style>.cls-1{fill:#fff;}</style></defs><g id="Слой_2" data-name="Слой 2"><g id="icons"><g id="Gas_Mask"><path class="cls-1" d="M47.26,50.7A20.88,20.88,0,1,0,68.14,71.58,20.87,20.87,0,0,0,47.26,50.7Zm-.32,30.09a9,9,0,1,1,9-9A9,9,0,0,1,46.94,80.79Z"/><rect class="cls-1" x="56.66" y="73.63" width="21.54" height="15.26" transform="translate(37.8 -20.09) rotate(23.39)"/><path class="cls-1" d="M81.67,80.21h3.19a7.58,7.58,0,0,1,7.58,7.58v5.48a7.58,7.58,0,0,1-7.58,7.58H81.67a0,0,0,0,1,0,0V80.21A0,0,0,0,1,81.67,80.21Z" transform="matrix(0.92, 0.4, -0.4, 0.92, 43.1, -27.12)"/><rect class="cls-1" x="15.51" y="73.63" width="21.54" height="15.26" transform="translate(82.66 145.41) rotate(156.61)"/><path class="cls-1" d="M1.27,80.21H4.46A7.58,7.58,0,0,1,12,87.79v5.48a7.58,7.58,0,0,1-7.58,7.58H1.27a0,0,0,0,1,0,0V80.21A0,0,0,0,1,1.27,80.21Z" transform="translate(48.71 170.97) rotate(156.61)"/><path class="cls-1" d="M47.26,0C28.11,0,10.09,21.56,10.09,40.72c0,8,5.19,16.42,9.72,23.58a28.41,28.41,0,0,1,54.91,0c4.53-7.16,9.71-15.61,9.71-23.58C84.43,21.56,66.42,0,47.26,0ZM35.64,34.79c-3.38,1.91-10.8,4.81-13.18,1.49C19,31.42,25,23.81,28.37,21.91a7.21,7.21,0,0,1,9.75,3A7.21,7.21,0,0,1,35.64,34.79Zm36.54,1.49c-2.38,3.32-9.8.42-13.18-1.49a7.21,7.21,0,0,1-2.48-9.89,7.21,7.21,0,0,1,9.75-3C69.65,23.81,75.67,31.42,72.18,36.28Z"/></g></g></g></svg>