<svg xmlns="http://www.w3.org/2000/svg" viewBox="0 0 88.66 100"><defs><style>.cls-1{fill:#fff;}</style></defs><g id="Слой_2" data-name="Слой 2"><g id="icons"><g id="Geometric_Star"><polygon class="cls-1" points="0 76.49 25.3 76.49 12.65 54.58 0 76.49"/><polygon class="cls-1" points="44.33 0 31.68 21.91 56.98 21.91 44.33 0"/><polygon class="cls-1" points="76 54.98 63.35 76.89 88.66 76.89 76 54.98"/><polygon class="cls-1" points="44.33 100 56.98 78.09 31.68 78.09 44.33 100"/><polygon class="cls-1" points="0 23.51 12.65 45.42 25.3 23.51 0 23.51"/><polygon class="cls-1" points="88.66 23.51 63.35 23.51 76 45.42 88.66 23.51"/><path class="cls-1" d="M52.88,35.38,61.44,50.2,52.88,65H35.77L27.22,50.2l8.55-14.82H52.88M57,28.29H31.68L19,50.2,31.68,72.11H57L69.63,50.2,57,28.29Z"/></g></g></g></svg>