<svg xmlns="http://www.w3.org/2000/svg" viewBox="0 0 87.87 100"><defs><style>.cls-1{fill:#fff;}</style></defs><g id="Слой_2" data-name="Слой 2"><g id="icons"><g id="Gift"><path class="cls-1" d="M14.65,19.45S14.65,1.65,24.2,0a2.87,2.87,0,0,1,2.39.73A121.9,121.9,0,0,1,41.5,17v2.44Z"/><path class="cls-1" d="M73.23,19.45s0-17.8-9.56-19.41a2.85,2.85,0,0,0-2.38.73A121.22,121.22,0,0,0,46.38,17v2.44Z"/><path class="cls-1" d="M3.66,50V92a8,8,0,0,0,8,8H29.29V50Z"/><path class="cls-1" d="M58.58,50v50H76.24a8,8,0,0,0,8-8V50Z"/><rect class="cls-1" x="36.61" y="49.96" width="14.65" height="50.04"/><rect class="cls-1" x="36.61" y="24.33" width="14.65" height="15.87"/><path class="cls-1" d="M79.62,24.33h-21V40.2H87.87V32.58A8.25,8.25,0,0,0,79.62,24.33Z"/><path class="cls-1" d="M29.29,24.33h-21A8.26,8.26,0,0,0,0,32.58V40.2H29.29Z"/><path class="cls-1" d="M40.28,19.45a3.66,3.66,0,0,1,7.32,0Z"/></g></g></g></svg>