<svg xmlns="http://www.w3.org/2000/svg" viewBox="0 0 73.87 100"><defs><style>.cls-1{fill:#fff;}</style></defs><g id="Слой_2" data-name="Слой 2"><g id="icons"><g id="Glove"><polygon class="cls-1" points="62.97 73.52 25.5 73.52 20.53 40.03 67.94 40.03 62.97 73.52"/><path class="cls-1" d="M32.58,40.72,20.87,42.51,16.19,11.37a5.19,5.19,0,0,1,4.35-5.92h0A5.19,5.19,0,0,1,26.46,9.8Z"/><path class="cls-1" d="M30.68,53.87,25.5,73.52,1.87,45.28A5.2,5.2,0,0,1,1.2,38h0a5.19,5.19,0,0,1,7.32-.67Z"/><path class="cls-1" d="M45.3,41.31H31.44V5.19A5.19,5.19,0,0,1,36.63,0h1a5.19,5.19,0,0,1,5.19,5.19Z"/><path class="cls-1" d="M58.46,43.15,43.61,40.43,48.53,7.89a5.19,5.19,0,0,1,5.91-4.36l.12,0a5.19,5.19,0,0,1,4.36,5.91Z"/><path class="cls-1" d="M66.51,45.88l-11-3,8.15-26.1A5.2,5.2,0,0,1,70,13.14h0a5.2,5.2,0,0,1,3.65,6.38Z"/><polygon class="cls-1" points="24.35 81.3 25.36 81.3 62.52 81.3 62.52 100 24.35 95.56 24.35 81.3"/></g></g></g></svg>