<svg xmlns="http://www.w3.org/2000/svg" viewBox="0 0 100 94.99"><defs><style>.cls-1{fill:#fff;}</style></defs><g id="Слой_2" data-name="Слой 2"><g id="icons"><g id="Hammer"><path class="cls-1" d="M98.06,34.61,72.19,10.33,46.64,35.88,74.16,61.7a5,5,0,0,0,7.11-.23l17.07-18.2A6.12,6.12,0,0,0,98.06,34.61Z"/><path class="cls-1" d="M66.81,5.29,65.29,3.86a14.28,14.28,0,0,0-20.18.65L30.18,20.43,41.26,30.84Z"/><path class="cls-1" d="M39.24,43.09,1.66,80.67a5.74,5.74,0,0,0,0,8.07l4.59,4.59a5.72,5.72,0,0,0,8.07,0l38-38Z"/><path class="cls-1" d="M91.2,8.38,86.62,3.79a5.72,5.72,0,0,0-8.07,0L64.79,17.55,77.85,29.8,91.2,16.45A5.72,5.72,0,0,0,91.2,8.38Z"/></g></g></g></svg>