<svg xmlns="http://www.w3.org/2000/svg" viewBox="0 0 62.96 100"><defs><style>.cls-1{fill:#fff;}</style></defs><g id="Слой_2" data-name="Слой 2"><g id="icons"><g id="Hand_Points"><path class="cls-1" d="M56.68,36.47a8.44,8.44,0,0,0-5.13.3,8.39,8.39,0,0,0-11-5.59c-2-5-5.62-6.87-10.9-5.74v-1c0-3.23,0-6.45,0-9.68V8.31A8.34,8.34,0,0,0,21.3,0h0A8.34,8.34,0,0,0,13,8.31V10a10.33,10.33,0,0,0-.06,1.26q0,12.84,0,25.68a1.87,1.87,0,0,1-.59,1.46C9.73,41,7.14,43.58,4.54,46.19c-5.63,5.64-6.06,13.25-1.08,19.47Q9.19,72.83,14.91,80a1.67,1.67,0,0,0,1.47.69q16.41,0,32.81,0h8.62c.45,0,.78,0,1-.57a66,66,0,0,0,3.8-17.69c.34-5.88.35-11.79.37-17.69A8.2,8.2,0,0,0,56.68,36.47Z"/><rect class="cls-1" x="15.86" y="88.35" width="42.45" height="11.65"/></g></g></g></svg>