<svg xmlns="http://www.w3.org/2000/svg" viewBox="0 0 100 95.96"><defs><style>.cls-1{fill:#fff;}</style></defs><g id="Слой_2" data-name="Слой 2"><g id="icons"><g id="Hat"><path class="cls-1" d="M75.76,57.58c-2.94-16.27-7.7-42.78-12.12-46.47C57.58,6.06,46.46,0,46.46,0S25.25,13.13,12.12,21.21c0,0,20.2-5.05,22.22-4s1,7.07,1,7.07L23,63.37c3.32,2.25,11.79,5.39,26,5.39,18.75,0,27.52-5.48,27.6-7.14Zm-16.16-4c-.44,2.44-.81,5.49-2,8.08a31.27,31.27,0,0,1-2-8.08,35.58,35.58,0,0,1-8.09-2c2.64-1.18,5.71-1.56,8.09-2,.51-2.54.84-5.58,2-8.08,1.17,2.57,1.51,5.62,2,8.08,2.57.47,5.61.85,8.08,2C65.32,52.81,62.3,53.21,59.6,53.54Z"/><path class="cls-1" d="M49,76.84c-10.82,0-22.15-1.89-29.07-5.9l-.73,1.79v8.08h59.6V71.72l-.19-1.1C71.75,74.85,60.1,76.84,49,76.84Z"/><path class="cls-1" d="M83.85,65.27C80.07,73.2,64,76.84,49,76.84c-14.66,0-30.27-3.47-34.54-11C5.52,69.05,0,73.44,0,78.28,0,88.05,22.39,96,50,96s50-7.91,50-17.68C100,73.14,93.77,68.51,83.85,65.27Z"/></g></g></g></svg>