<svg xmlns="http://www.w3.org/2000/svg" viewBox="0 0 100 84.24"><defs><style>.cls-1{fill:#fff;}</style></defs><g id="Слой_2" data-name="Слой 2"><g id="icons"><g id="Hatchet"><path class="cls-1" d="M28.43,44.33,1.51,71.25a5.2,5.2,0,0,0,0,7.32l4.16,4.16a5.2,5.2,0,0,0,7.32,0L38.62,57.27Z"/><path class="cls-1" d="M82.73,5.67,78.57,1.51a5.2,5.2,0,0,0-7.32,0L58.77,14,70.61,25.1,82.73,13A5.2,5.2,0,0,0,82.73,5.67Z"/><path class="cls-1" d="M55.11,6.25h0A14.77,14.77,0,0,0,35.57,8.44L22.63,22.87l7.26,8.6Z"/><polygon class="cls-1" points="61.43 10.74 34.83 37.34 64.62 72.68 100 38.12 61.43 10.74"/></g></g></g></svg>