<svg xmlns="http://www.w3.org/2000/svg" viewBox="0 0 100 75.96"><defs><style>.cls-1{fill:#fff;}</style></defs><g id="Слой_2" data-name="Слой 2"><g id="icons"><g id="Headphones"><rect class="cls-1" x="75.34" y="33.27" width="14.78" height="42.69" rx="7.39" transform="translate(165.45 109.23) rotate(-180)"/><path class="cls-1" d="M88.05,40.19a16.73,16.73,0,0,1,0,32.07Z"/><rect class="cls-1" x="9.89" y="33.27" width="14.78" height="42.69" rx="7.39"/><path class="cls-1" d="M12,40.19a16.73,16.73,0,0,0,0,32.07Z"/><path class="cls-1" d="M51,0H49A37.66,37.66,0,0,0,13.15,28.83a7.35,7.35,0,0,1,11.16,1.58C27.65,19.26,37.91,10.92,50,11.05c12.09-.13,22.35,8.21,25.69,19.36a7.35,7.35,0,0,1,11.16-1.58A37.66,37.66,0,0,0,51,0Z"/></g></g></g></svg>