<svg xmlns="http://www.w3.org/2000/svg" viewBox="0 0 100 92.53"><defs><style>.cls-1{fill:#fff;}</style></defs><g id="Слой_2" data-name="Слой 2"><g id="icons"><g id="Heart_Pluse"><path class="cls-1" d="M50.63,25.29c-14.8,6.79-14.8,13-25.29,25.29A25.29,25.29,0,1,1,50.63,25.29Z"/><path class="cls-1" d="M100,25.29A25.29,25.29,0,0,1,74.69,50.58C72.84,45.65,64.21,37,49.4,25.29a25.29,25.29,0,0,1,50.58,0Z"/><path class="cls-1" d="M100,24.67H.05s-3.7,37,50,67.86C102.45,61.68,100,24.67,100,24.67ZM67.91,56.08h-13v13H45.14v-13h-13V46.32h13v-13H54.9v13h13Z"/></g></g></g></svg>