<svg xmlns="http://www.w3.org/2000/svg" viewBox="0 0 100 76.33"><defs><style>.cls-1{fill:#fff;}</style></defs><g id="Слой_2" data-name="Слой 2"><g id="icons"><g id="Helmet_Viking"><rect class="cls-1" x="1.12" y="56.24" width="97.56" height="20.08"/><path class="cls-1" d="M54.21,50.5H92A44,44,0,0,0,54.21,7Z"/><path class="cls-1" d="M45.6,7A44,44,0,0,0,7.82,50.5H45.6Z"/><path class="cls-1" d="M93.69,26.67c8.4-8,6.73-20.36,4.5-25.76a1.49,1.49,0,0,0-2.7-.09A23.71,23.71,0,0,1,83.21,11.58,36.8,36.8,0,0,1,93.69,26.67Z"/><path class="cls-1" d="M6.31,26.67c-8.4-8-6.73-20.36-4.5-25.76A1.49,1.49,0,0,1,4.51.82,23.71,23.71,0,0,0,16.79,11.58,36.8,36.8,0,0,0,6.31,26.67Z"/></g></g></g></svg>