<svg xmlns="http://www.w3.org/2000/svg" viewBox="0 0 100 93.48"><defs><style>.cls-1{fill:#fff;}</style></defs><g id="Слой_2" data-name="Слой 2"><g id="icons"><path id="Help_Question" class="cls-1" d="M12.9,0A12.91,12.91,0,0,0,0,12.9V62.29A11.63,11.63,0,0,0,11.63,73.91H20a6,6,0,0,1,5.23,3l9.55,16.55,9.55-16.55a6.05,6.05,0,0,1,5.24-3h38.8A11.63,11.63,0,0,0,100,62.29V0Zm41,58.35A1.62,1.62,0,0,1,52.25,60H46.1a1.62,1.62,0,0,1-1.62-1.62V50.58h9.4ZM64.13,22.42a14.56,14.56,0,0,1-.74,4.77,16.09,16.09,0,0,1-1.81,3.72,45.12,45.12,0,0,1-2.87,3.68q-1.68,2-2.62,3.4a14,14,0,0,0-1.6,3.17,11.66,11.66,0,0,0-.65,4h-9.4a16.27,16.27,0,0,1,2.71-9.26c.76-1.09,1.75-2.38,3-3.84,1-1.14,1.75-2.11,2.3-2.9a12.87,12.87,0,0,0,1.38-2.6,8.31,8.31,0,0,0,.57-3.11v0a5.23,5.23,0,0,0-1.15-3.62A4.11,4.11,0,0,0,50,18.47a3.91,3.91,0,0,0-3.21,1.43,6.36,6.36,0,0,0-1.18,4v0H35.87v0a17.52,17.52,0,0,1,1.89-7.73,11.69,11.69,0,0,1,4.81-4.89A15.35,15.35,0,0,1,50,9.59a17.65,17.65,0,0,1,7.64,1.51,10.79,10.79,0,0,1,4.86,4.37,13.55,13.55,0,0,1,1.66,6.91Z"/></g></g></svg>