<svg xmlns="http://www.w3.org/2000/svg" viewBox="0 0 67.35 100"><defs><style>.cls-1{fill:#fff;}</style></defs><g id="Слой_2" data-name="Слой 2"><g id="icons"><g id="Hidden_Hide" data-name="Hidden Hide"><path class="cls-1" d="M32.65,78.57a43.65,43.65,0,0,1-20.79-5.23L4.08,92.86H61.22L53.44,73.34A43.62,43.62,0,0,1,32.65,78.57Z"/><path class="cls-1" d="M4,91.84H61.29a3,3,0,0,1,3,3V100a0,0,0,0,1,0,0H1a0,0,0,0,1,0,0V94.84A3,3,0,0,1,4,91.84Z"/><path class="cls-1" d="M33.67,0A33.68,33.68,0,1,0,67.35,33.67,33.68,33.68,0,0,0,33.67,0ZM51.53,29.59a7.65,7.65,0,1,1,7.65-7.65A7.64,7.64,0,0,1,51.53,29.59Z"/></g></g></g></svg>