<svg xmlns="http://www.w3.org/2000/svg" viewBox="0 0 98.73 100"><defs><style>.cls-1{fill:#fff;}</style></defs><g id="Слой_2" data-name="Слой 2"><g id="icons"><path id="Hooves" class="cls-1" d="M64.87,0A2.94,2.94,0,0,0,62,3.74c.17.81.38,1.62.53,2.44C65,19,67.43,31.73,69.77,44.52A55.05,55.05,0,0,1,71,54.63a22.14,22.14,0,1,1-44.22-1.91c.3-3.28.82-6.54,1.42-9.78Q31.8,23.56,35.55,4.2C36.08,1.47,35,0,32.13,0,25.85,0,0,.38,0,.38L.13,11.75a3.45,3.45,0,0,0,3.44,3.52l6.91,0c1.16,0,2.32,0,3.68,0l-.67,1.28a91.42,91.42,0,0,0-9.2,24.34,54.26,54.26,0,0,0-1,19.75,44.41,44.41,0,0,0,11,23.72c11.19,12.33,25.17,17.33,41.62,15.1A42.86,42.86,0,0,0,79,88.79C90.58,78.46,95.82,65.47,94.72,50a77.84,77.84,0,0,0-6.87-25.92c-1.28-2.92-2.75-5.74-4.21-8.77H95.28a3.44,3.44,0,0,0,3.44-3.54V.38S65.77,0,64.87,0ZM23.19,81.26A4.76,4.76,0,1,1,28,76.51,4.75,4.75,0,0,1,23.19,81.26ZM49.36,94.35a5.95,5.95,0,1,1,6-5.95A5.95,5.95,0,0,1,49.36,94.35Zm25-13.09a4.76,4.76,0,1,1,4.76-4.75A4.76,4.76,0,0,1,74.34,81.26Z"/></g></g></svg>