<svg xmlns="http://www.w3.org/2000/svg" viewBox="0 0 92.58 100"><defs><style>.cls-1{fill:#fff;}</style></defs><g id="Слой_2" data-name="Слой 2"><g id="icons"><g id="Horn_" data-name="Horn
"><path class="cls-1" d="M92.5,59.84,76.74,1.52A2.06,2.06,0,0,0,73.19.71C61.17,14.29,45.79,21.33,32.36,25l10,37c13.43-3.63,30.26-5.3,47.49.38A2.06,2.06,0,0,0,92.5,59.84Z"/><path class="cls-1" d="M24.14,27.19,11.4,30.63a6,6,0,0,0-4.2,7.31l.67,2.46A10.64,10.64,0,1,0,13.42,61h0l.67,2.47a6,6,0,0,0,7.31,4.2l12.74-3.45Z"/><path class="cls-1" d="M40.75,72.31,26.37,76.2,46.86,97.94a6.57,6.57,0,0,0,9.56-9Z"/></g></g></g></svg>