<svg xmlns="http://www.w3.org/2000/svg" viewBox="0 0 73.58 100"><defs><style>.cls-1{fill:#fff;}</style></defs><g id="Слой_2" data-name="Слой 2"><g id="icons"><g id="Hourglass"><path class="cls-1" d="M36.79,51.27a26.8,26.8,0,0,1-15.37-5C11.12,39.05,4.72,25.15,4.72,10h7.54c0,12.73,5.17,24.26,13.49,30.08a19,19,0,0,0,11,3.65,18.75,18.75,0,0,0,9.81-2.84C55.54,35.47,61.32,23.35,61.32,10h7.55c0,15.93-7.21,30.59-18.36,37.35A26.22,26.22,0,0,1,36.79,51.27Z"/><path class="cls-1" d="M50.94,24.53a13.13,13.13,0,0,1-8.27,12,15.1,15.1,0,0,1-12.48-.33,13.07,13.07,0,0,1-7.55-11.64Z"/><path class="cls-1" d="M14.15,90.57c0-8.51,5.43-15.84,13.23-19.16a24.23,24.23,0,0,1,20,.53A20.92,20.92,0,0,1,59.43,90.57Z"/><path class="cls-1" d="M68.87,90H61.32c0-18.6-11-33.73-24.53-33.73S12.26,71.4,12.26,90H4.72c0-22.76,14.39-41.27,32.07-41.27S68.87,67.24,68.87,90Z"/><rect class="cls-1" width="73.58" height="12.5" rx="6.25"/><rect class="cls-1" y="87.5" width="73.58" height="12.5" rx="6.25"/></g></g></g></svg>