<svg xmlns="http://www.w3.org/2000/svg" viewBox="0 0 96.88 100"><defs><style>.cls-1{fill:#fff;}</style></defs><g id="Слой_2" data-name="Слой 2"><g id="icons"><g id="House_2"><path class="cls-1" d="M47.31.44.53,43.8a1.66,1.66,0,0,0,1.13,2.87H95.22a1.66,1.66,0,0,0,1.13-2.87L49.57.44A1.66,1.66,0,0,0,47.31.44Z"/><path class="cls-1" d="M4.2,46.06,11.87,100H85l7.67-53.94ZM61.77,84a1.45,1.45,0,0,1-1.44,1.44H39A1.45,1.45,0,0,1,37.53,84V59A1.44,1.44,0,0,1,39,57.58H60.33A1.44,1.44,0,0,1,61.77,59Z"/><rect class="cls-1" x="46.58" y="44.92" width="6.3" height="49.58"/></g></g></g></svg>