<svg xmlns="http://www.w3.org/2000/svg" viewBox="0 0 96.88 100"><defs><style>.cls-1{fill:#fff;}</style></defs><g id="Слой_2" data-name="Слой 2"><g id="icons"><g id="House_1"><path class="cls-1" d="M47.31.44.53,43.8a1.66,1.66,0,0,0,1.13,2.87H95.22a1.66,1.66,0,0,0,1.13-2.87L49.57.44A1.66,1.66,0,0,0,47.31.44Z"/><path class="cls-1" d="M4.2,46.06,11.87,100H85l7.67-53.94ZM61.77,91a1.67,1.67,0,0,1-1.44,1.82H39A1.67,1.67,0,0,1,37.53,91V59.4A1.67,1.67,0,0,1,39,57.58H60.33a1.67,1.67,0,0,1,1.44,1.82Z"/><rect class="cls-1" x="71.41" y="7.66" width="14.28" height="49.58" rx="1.44"/></g></g></g></svg>