<svg xmlns="http://www.w3.org/2000/svg" viewBox="0 0 85.78 100"><defs><style>.cls-1{fill:#fff;}</style></defs><g id="Слой_2" data-name="Слой 2"><g id="icons"><g id="Incognito"><path class="cls-1" d="M77,58.28a6.72,6.72,0,0,0,1.53-5C77.57,29.38,56.19,0,42.68,0s-33,31.22-34,53.25a7.73,7.73,0,0,0,.87,4.25C3.76,63.68,0,72.56,0,78.6v9.48c0,2.19,2.37,4,5.26,4l18.89,5.31A70.66,70.66,0,0,0,63,97.18l17.52-5.12c2.89,0,5.26-1.79,5.26-4V78.6C85.78,72.83,82.35,64.41,77,58.28ZM51,60.65a19.18,19.18,0,0,1-16.14,0c-5.89-2.77-15.53-8.81-14.89-18.41.92-13.78,14.69-18.37,23-18.37s22,4.59,23,18.37C66.48,51.84,56.84,57.88,51,60.65Z"/><path class="cls-1" d="M39.08,39.21A6.71,6.71,0,1,1,26.73,34Z"/><path class="cls-1" d="M46.63,39.21A6.71,6.71,0,1,0,59,34Z"/></g></g></g></svg>