<svg xmlns="http://www.w3.org/2000/svg" viewBox="0 0 100 94.39"><defs><style>.cls-1{fill:#fff;}</style></defs><g id="Слой_2" data-name="Слой 2"><g id="icons"><g id="Joystick_1"><circle class="cls-1" cx="74.07" cy="58.01" r="6.63"/><path class="cls-1" d="M99.89,73.72C98,63.65,96.17,53.59,94.34,43.52A15.3,15.3,0,0,0,79,30.57c-3.17,0-6.33,0-9.5,0a4.3,4.3,0,0,0-3,1.13c-1.61,1.43-3.23,2.85-4.89,4.22a2.37,2.37,0,0,1-1.39.51q-10.12,0-20.26,0a2.33,2.33,0,0,1-1.38-.52c-1.66-1.36-3.29-2.78-4.89-4.21a4.3,4.3,0,0,0-3-1.13c-3.17,0-6.33,0-9.5,0a15.31,15.31,0,0,0-15.35,13C4.06,53,2.36,62.39.53,71.8c-.88,4.55-.81,8.91,1.32,13.14C7.22,95.61,22.06,97.72,30,88.84c2.5-2.78,4.69-5.86,7.06-8.76a1.9,1.9,0,0,1,1.28-.63c7.79,0,15.6,0,23.4,0a1.54,1.54,0,0,1,1.37.7c1.85,2.41,3.7,4.81,5.59,7.18,4.18,5.25,9.55,7.78,16.29,6.92,6-.76,10.21-4.06,13.19-9.28C100.48,80.93,100,74.22,99.89,73.72ZM40.94,62.23H31v10H23.47v-10h-10V54.74h10v-10H31v10h10Zm33.13,10A14.2,14.2,0,1,1,88.27,58,14.22,14.22,0,0,1,74.07,72.21Z"/><rect class="cls-1" x="47.16" y="5.68" width="5.68" height="37.86" rx="2.84"/><circle class="cls-1" cx="50" cy="9.47" r="9.47"/></g></g></g></svg>