<svg xmlns="http://www.w3.org/2000/svg" viewBox="0 0 100 63.84"><defs><style>.cls-1{fill:#fff;}</style></defs><g id="Слой_2" data-name="Слой 2"><g id="icons"><g id="Joystick_2"><circle class="cls-1" cx="74.07" cy="27.45" r="6.63"/><path class="cls-1" d="M99.89,43.16C98,33.1,96.17,23,94.34,13A15.3,15.3,0,0,0,79,0c-3.17,0-6.33,0-9.5,0a4.27,4.27,0,0,0-3,1.14C64.85,2.57,63.23,4,61.57,5.35a2.37,2.37,0,0,1-1.39.51q-10.12.06-20.26,0a2.32,2.32,0,0,1-1.38-.51C36.88,4,35.25,2.56,33.65,1.13a4.3,4.3,0,0,0-3-1.13c-3.17,0-6.33,0-9.5,0A15.31,15.31,0,0,0,5.77,13C4.06,22.4,2.36,31.83.53,41.24c-.88,4.55-.81,8.91,1.32,13.15C7.22,65.05,22.06,67.16,30,58.29c2.5-2.79,4.69-5.86,7.06-8.77a1.85,1.85,0,0,1,1.28-.62c7.79,0,15.6,0,23.4,0a1.53,1.53,0,0,1,1.37.69c1.85,2.41,3.7,4.81,5.59,7.19C72.89,62,78.26,64.51,85,63.66c6-.77,10.21-4.07,13.19-9.28C100.48,50.37,100,43.67,99.89,43.16ZM40.94,31.67H31v10H23.47v-10h-10V24.18h10v-10H31v10h10Zm33.13,10a14.2,14.2,0,1,1,14.2-14.2A14.22,14.22,0,0,1,74.07,41.65Z"/></g></g></g></svg>