<svg xmlns="http://www.w3.org/2000/svg" viewBox="0 0 86.96 100"><defs><style>.cls-1{fill:#fff;}</style></defs><g id="Слой_2" data-name="Слой 2"><g id="icons"><g id="Key"><path class="cls-1" d="M83.2,33.14a13.79,13.79,0,0,0-4.25-3A19.49,19.49,0,0,0,58.56,8.66,13.67,13.67,0,0,0,36.4,3.77C30.91,9,20.66,33.6,36.38,50.15c15.15,15.94,40.84,7.57,46.32,2.36A13.7,13.7,0,0,0,83.2,33.14ZM44.67,42.27c-8.73-9.19-3-22.87,0-25.77a7.61,7.61,0,0,1,10.76.28A7.48,7.48,0,0,1,57,19.22,10.83,10.83,0,0,1,68.32,31.14a7.61,7.61,0,0,1,2.09,12.44C67.36,46.47,53.09,51.13,44.67,42.27Z"/><path class="cls-1" d="M16.85,34.95H27.64a0,0,0,0,1,0,0V86.82a5.39,5.39,0,0,1-5.39,5.39h0a5.39,5.39,0,0,1-5.39-5.39V34.95a0,0,0,0,1,0,0Z" transform="translate(53.02 3.66) rotate(46.47)"/><path class="cls-1" d="M33.64,86.05,30,82.21l4.64-4.41,3.64,3.84a3,3,0,0,0,4.39-4.17L33.3,67.61,11.94,87.9A6.23,6.23,0,0,1,10.37,89l9.57,10.07a3,3,0,0,0,4.39-4.16l-3.65-3.84,4.64-4.41L29,90.49a3,3,0,0,0,4.27.11l.13-.15.16-.13A3,3,0,0,0,33.64,86.05Z"/></g></g></g></svg>