<svg xmlns="http://www.w3.org/2000/svg" viewBox="0 0 89.88 100"><defs><style>.cls-1{fill:#fff;}</style></defs><g id="Слой_2" data-name="Слой 2"><g id="icons"><g id="Key_with_Star"><path class="cls-1" d="M2.15,91.76h0a6.83,6.83,0,0,1-.32-9.63L37.74,43.74a6.83,6.83,0,0,1,9.63-.32h0a6.83,6.83,0,0,1,.32,9.63L11.78,91.44a6.82,6.82,0,0,1-9.63.32Z"/><path class="cls-1" d="M80.62,7.88A29.2,29.2,0,1,0,82,49.15,29.19,29.19,0,0,0,80.62,7.88ZM70.91,36.8l-6.37.13a1.61,1.61,0,0,0-1.31.73L59.73,43a1.62,1.62,0,0,1-2.87-.36l-2.09-6a1.61,1.61,0,0,0-1.09-1L47.54,33.9A1.61,1.61,0,0,1,47,31.06l5.08-3.84a1.6,1.6,0,0,0,.63-1.36l-.29-6.36a1.61,1.61,0,0,1,2.52-1.4l5.23,3.64a1.65,1.65,0,0,0,1.49.19l6-2.25a1.6,1.6,0,0,1,2.1,2l-1.84,6.1a1.63,1.63,0,0,0,.28,1.47l4,5A1.61,1.61,0,0,1,70.91,36.8Z"/><path class="cls-1" d="M21.85,99.59,10.24,88.76,31.65,66.37,43.84,78.29a3.26,3.26,0,0,1-3.71,3.52l-7.69-1.09,2.18,3.38A1.9,1.9,0,0,1,32.82,87l-5.7-.62L24.44,98.76A1.57,1.57,0,0,1,21.85,99.59Z"/></g></g></g></svg>