<svg xmlns="http://www.w3.org/2000/svg" viewBox="0 0 95.3 100"><defs><style>.cls-1{fill:#fff;}</style></defs><g id="Слой_2" data-name="Слой 2"><g id="icons"><g id="Kirk"><path class="cls-1" d="M77.87,34.49,89.08,23.28a5.58,5.58,0,0,0,0-7.88L84.6,10.92a5.58,5.58,0,0,0-7.88,0l-9.65,9.64A93.78,93.78,0,0,1,77.87,34.49Z"/><path class="cls-1" d="M51.63,36l-50,50a5.58,5.58,0,0,0,0,7.88l4.48,4.48a5.58,5.58,0,0,0,7.88,0L62.88,49.49A126.28,126.28,0,0,0,51.63,36Z"/><path class="cls-1" d="M73.56,14.14,58.14,29.56C77.77,50.27,93.08,84.75,93.08,84.75,100.94,52.38,86.36,28.21,73.56,14.14Z"/><path class="cls-1" d="M49.23,21.47c1.43,1.08,2.86,2.27,4.27,3.55L69,9.48A83.58,83.58,0,0,0,57.52,0L48.7,7.94A8.79,8.79,0,0,0,49.23,21.47Z"/></g></g></g></svg>