<svg xmlns="http://www.w3.org/2000/svg" viewBox="0 0 90.65 100"><defs><style>.cls-1{fill:#fff;}</style></defs><g id="Слой_2" data-name="Слой 2"><g id="icons"><g id="Layers"><path class="cls-1" d="M45.32,48.24l-44-22.55a2.37,2.37,0,0,1,0-4.24L45.32,0l44,21.45a2.37,2.37,0,0,1,0,4.24Z"/><path class="cls-1" d="M89.32,47.34l-12.22-6L45.32,57.65,13.55,41.38l-12.22,6a2.36,2.36,0,0,0,0,4.23l44,22.55,44-22.55A2.36,2.36,0,0,0,89.32,47.34Z"/><path class="cls-1" d="M89.32,73.22l-12.22-6L45.32,83.53,13.55,67.26l-12.22,6a2.36,2.36,0,0,0,0,4.23l44,22.55,44-22.55A2.36,2.36,0,0,0,89.32,73.22Z"/></g></g></g></svg>