<svg xmlns="http://www.w3.org/2000/svg" viewBox="0 0 98 100.01"><defs><style>.cls-1{fill:#fff;}</style></defs><g id="Слой_2" data-name="Слой 2"><g id="icons"><g id="Letter_Open"><path class="cls-1" d="M51.66,66.57a4.91,4.91,0,0,1-5,0L.13,39.43H0V93.61A6.39,6.39,0,0,0,6.39,100H91.54a6.39,6.39,0,0,0,6.39-6.4v-54Z"/><path class="cls-1" d="M46.72.66.72,27.48a.72.72,0,0,0,.36,1.35H97.27a.73.73,0,0,0,.37-1.35L51.63.66A4.9,4.9,0,0,0,46.72.66Z"/><path class="cls-1" d="M97.25,28.33H1.11a.73.73,0,0,0-.37,1.36l20,11.65V34.71a2.85,2.85,0,0,1,2.85-2.85H76.43a2.86,2.86,0,0,1,2.85,2.85v5.67L97.61,29.69A.73.73,0,0,0,97.25,28.33Z"/></g></g></g></svg>