<svg xmlns="http://www.w3.org/2000/svg" viewBox="0 0 100 88.8"><defs><style>.cls-1{fill:#fff;}</style></defs><g id="Слой_2" data-name="Слой 2"><g id="icons"><g id="Lever"><path class="cls-1" d="M90,79.8H10V55.39a3.59,3.59,0,0,1,3.59-3.59H86.41A3.59,3.59,0,0,1,90,55.39Z"/><path class="cls-1" d="M100,88.8H0v-.4a8.6,8.6,0,0,1,8.6-8.6H91.4a8.6,8.6,0,0,1,8.6,8.6Z"/><path class="cls-1" d="M26,45.8a9,9,0,0,1,18,0Z"/><circle class="cls-1" cx="77.03" cy="17" r="17"/><polygon class="cls-1" points="52.89 45.8 78.72 3.94 87.47 9.34 64.98 45.8 52.89 45.8"/></g></g></g></svg>