<svg xmlns="http://www.w3.org/2000/svg" viewBox="0 0 84.5 100"><defs><style>.cls-1{fill:#fff;}</style></defs><g id="Слой_2" data-name="Слой 2"><g id="icons"><g id="Lightning"><path class="cls-1" d="M52.4.31l-36,50.77a.72.72,0,0,0,.37,1.11L37,58.56a.72.72,0,0,1,.48.88L27.06,99.09a.72.72,0,0,0,1.26.64L68,50.39a.72.72,0,0,0-.32-1.14L42.9,40.64a.73.73,0,0,1-.45-.89L53.68.93A.72.72,0,0,0,52.4.31Z"/><path class="cls-1" d="M57.15,11.84l-2.77,9.58a32.37,32.37,0,0,1,20.11,28,.71.71,0,0,1,.14,1l-.09.12c0,.28,0,.57,0,.85A32.36,32.36,0,0,1,48.33,83.09L39.92,93.54c.77,0,1.55.07,2.33.07a42.24,42.24,0,0,0,14.9-81.77Z"/><path class="cls-1" d="M25.32,78.85A32.29,32.29,0,0,1,9.94,51.36c0-.32,0-.64,0-1a.71.71,0,0,1-.16-1l.22-.31a32.35,32.35,0,0,1,19.41-27.4l8.78-12.4A42.23,42.23,0,0,0,22.7,88.79Z"/></g></g></g></svg>