<svg xmlns="http://www.w3.org/2000/svg" viewBox="0 0 100 85.32"><defs><style>.cls-1{fill:#fff;}</style></defs><g id="Слой_2" data-name="Слой 2"><g id="icons"><g id="Like"><rect class="cls-1" x="37.78" y="30.87" width="53.33" height="14.44" rx="6.5"/><rect class="cls-1" x="37.78" y="70.87" width="53.33" height="14.44" rx="6.5"/><path class="cls-1" d="M68.55,12.14,54.44,38.65c-2.71,2.9-13.07,5-16,2.27h0c-2.9-2.71-15.63-3.81-12.91-6.72L40.1,21.79A109.25,109.25,0,0,0,58,2.29h0A7.24,7.24,0,0,1,68.2,1.93h0A7.25,7.25,0,0,1,68.55,12.14Z"/><rect class="cls-1" x="37.78" y="45.32" width="60" height="14.44" rx="6.5"/><rect class="cls-1" x="40" y="59.76" width="60" height="14.44" rx="6.5"/><rect class="cls-1" x="24.44" y="31.98" width="35.56" height="53.33" rx="4.15"/><rect class="cls-1" y="31.98" width="17.78" height="53.33" rx="4.15"/></g></g></g></svg>