<svg xmlns="http://www.w3.org/2000/svg" viewBox="0 0 74.21 100"><defs><style>.cls-1{fill:#fff;}</style></defs><g id="Слой_2" data-name="Слой 2"><g id="icons"><g id="List_Of_Cases"><rect class="cls-1" x="20.66" y="5.14" width="31.66" height="13.69" rx="6.84" transform="translate(-0.05 0.16) rotate(-0.25)"/><rect class="cls-1" x="29.2" width="14.54" height="13.69" rx="6.84" transform="translate(-0.03 0.16) rotate(-0.25)"/><path class="cls-1" d="M66.87,8.65a61.61,61.61,0,0,0-7.45,0c0,.29,0,.6.1.91a14.17,14.17,0,0,1-13.4,16c-6.09.15-12.19.16-18.28.08a14,14,0,0,1-13.45-12,38.57,38.57,0,0,1-.05-4.94c-1.92,0-3.81,0-5.7,0A8.5,8.5,0,0,0,0,17.43Q.15,54.38.32,91.32A8.5,8.5,0,0,0,9.12,100q28.17-.1,56.35-.25a10.37,10.37,0,0,0,2.43-.31,8.51,8.51,0,0,0,6.31-8.62Q74,54.07,73.89,17.31c0-.25,0-.5,0-.75A8.25,8.25,0,0,0,66.87,8.65ZM8.54,39.22l2.37-2.1a.77.77,0,0,1,1.09.09,54.7,54.7,0,0,1,4.46,6.38.76.76,0,0,0,1.3,0c2.6-4.36,6.57-10.39,10.11-13.21a.77.77,0,0,1,1.11.17l1.79,2.61a.76.76,0,0,1-.15,1c-4,3.25-9.58,12.89-11.48,16.5l-1.45,2.74a.76.76,0,0,1-1.36,0L15,50.6a57,57,0,0,0-6.5-10.33A.76.76,0,0,1,8.54,39.22Zm9.15,42-1.44,2.74a.76.76,0,0,1-1.36,0l-1.37-2.78A56.66,56.66,0,0,0,7,70.77a.76.76,0,0,1,.09-1l2.37-2.1a.76.76,0,0,1,1.09.08A57,57,0,0,1,15,74.09a.76.76,0,0,0,1.3,0c2.6-4.36,6.57-10.4,10.11-13.21a.77.77,0,0,1,1.11.16l1.79,2.61a.76.76,0,0,1-.15,1C25.2,67.92,19.6,77.57,17.69,81.17Zm45-4a3.86,3.86,0,0,1-3.83,3.87l-25.67.11a3.85,3.85,0,0,1,0-7.7l25.67-.11A3.86,3.86,0,0,1,62.66,77.19ZM64.57,44a3.87,3.87,0,0,1-3.84,3.87L35.07,48a3.85,3.85,0,0,1,0-7.7l25.67-.11A3.86,3.86,0,0,1,64.57,44Z"/></g></g></g></svg>