<svg xmlns="http://www.w3.org/2000/svg" viewBox="0 0 82.26 100"><defs><style>.cls-1{fill:#fff;}</style></defs><g id="Слой_2" data-name="Слой 2"><g id="icons"><g id="Lock"><path class="cls-1" d="M82.26,86.74c0,7.32-18.41,13.26-41.13,13.26S0,94.06,0,86.74,20.2,87,42.91,87,82.26,79.42,82.26,86.74Z"/><path id="Lock-2" data-name="Lock" class="cls-1" d="M77,38.48H5.25A5.26,5.26,0,0,0,0,43.72V86.15A5.26,5.26,0,0,0,5.25,91.4H77a5.26,5.26,0,0,0,5.24-5.25V43.72A5.26,5.26,0,0,0,77,38.48ZM44.53,73.76v6a3.42,3.42,0,0,1-6.83,0v-6a8.74,8.74,0,1,1,6.83,0Z"/><path class="cls-1" d="M71.48,45.65H58.83V30.49a17.84,17.84,0,0,0-35.67,0V45.65H10.5V30.49a30.49,30.49,0,0,1,61,0Z"/></g></g></g></svg>