<svg xmlns="http://www.w3.org/2000/svg" viewBox="0 0 79.22 100"><defs><style>.cls-1{fill:#fff;}</style></defs><g id="Слой_2" data-name="Слой 2"><g id="icons"><g id="Lock_Open"><path class="cls-1" d="M79.22,87.23c0,7-17.73,12.77-39.61,12.77S0,94.28,0,87.23s19.45.26,41.33.26S79.22,80.18,79.22,87.23Z"/><path class="cls-1" d="M74.17,40.75H5.05a5.06,5.06,0,0,0-5,5V86.66a5.06,5.06,0,0,0,5.05,5H74.17a5.06,5.06,0,0,0,5-5V45.8A5.06,5.06,0,0,0,74.17,40.75Zm-31.29,34v5.8a3.29,3.29,0,0,1-6.57,0V74.72a8.42,8.42,0,1,1,6.57,0Z"/><path class="cls-1" d="M57.2,29.36a17.17,17.17,0,0,0-34.34,0V44H10.67V29.36a29.36,29.36,0,0,1,58.72,0Z"/></g></g></g></svg>