<svg xmlns="http://www.w3.org/2000/svg" viewBox="0 0 100 100"><defs><style>.cls-1{fill:#fff;}</style></defs><g id="Слой_2" data-name="Слой 2"><g id="icons"><g id="Loupe_Pluse"><path class="cls-1" d="M63.88,72.24A36.12,36.12,0,1,1,89.44,61.68h0A36.05,36.05,0,0,1,63.88,72.24Zm0-61.34a25.22,25.22,0,1,0,17.84,7.38A25.15,25.15,0,0,0,63.88,10.9Z"/><path class="cls-1" d="M31.06,69a35.93,35.93,0,0,1-5.26-6.66L1.55,83.14a4.44,4.44,0,0,0-.24,6.52l9,9a4.46,4.46,0,0,0,6.53-.25L37.7,74.18A35.79,35.79,0,0,1,31.06,69Z"/><path class="cls-1" d="M77.16,32.35h-9.6V22.76a2.48,2.48,0,0,0-2.47-2.48H62.42a2.49,2.49,0,0,0-2.48,2.48v9.59H50.35a2.48,2.48,0,0,0-2.47,2.47V37.5A2.48,2.48,0,0,0,50.35,40h9.59v9.59A2.48,2.48,0,0,0,62.42,52h2.67a2.48,2.48,0,0,0,2.47-2.47V40h9.6a2.48,2.48,0,0,0,2.47-2.47V34.82A2.48,2.48,0,0,0,77.16,32.35Z"/></g></g></g></svg>