<svg xmlns="http://www.w3.org/2000/svg" viewBox="0 0 73.87 100"><defs><style>.cls-1{fill:#fff;}</style></defs><g id="Слой_2" data-name="Слой 2"><g id="icons"><g id="Magic_Ball"><path class="cls-1" d="M36.94,81.08a38.55,38.55,0,0,1-18.36-4.62L11.71,93.69H62.16L55.29,76.46A38.48,38.48,0,0,1,36.94,81.08Z"/><path class="cls-1" d="M12,92.79H61.86a3,3,0,0,1,3,3V100a0,0,0,0,1,0,0H9a0,0,0,0,1,0,0V95.79A3,3,0,0,1,12,92.79Z"/><path class="cls-1" d="M11.68,25.31c7.26-7.66,18.06-11.95,27.51-10.91,6.32.7,11.45,3.8,14.41,8.75a15.09,15.09,0,0,1,1.87,12c-1.52,5.46-6,9.5-9.4,11.3a10.89,10.89,0,0,1-1.34.6,7.57,7.57,0,0,0,1,4.27c1,1.59,2.81,2.67,5.41,3.22,8.44,1.8,17.35-6,22.29-11.73a36.94,36.94,0,1,0-73-.42C3.36,36.49,7.2,30,11.68,25.31Z"/><path class="cls-1" d="M53.72,61.15a18.85,18.85,0,0,1-3.92-.41c-4.38-.93-7.58-3-9.5-6.14A13.34,13.34,0,0,1,38.42,48a14.16,14.16,0,0,1-4.51-1,9.58,9.58,0,0,1-5.82-5.95c-1.22-3.67-.54-7.18,1.86-9.63A9.77,9.77,0,0,1,39.49,29a6.52,6.52,0,0,1,4.61,5.17,3.15,3.15,0,0,1-6.22,1,2.77,2.77,0,0,0-2.8.2c-1.26.73-1.59,1.94-1,3.69a3.32,3.32,0,0,0,2.18,2.1,9.32,9.32,0,0,0,6.87-.28,13.2,13.2,0,0,0,6.27-7.41,8.77,8.77,0,0,0-1.19-7.1,12.46,12.46,0,0,0-9.7-5.73c-7.45-.81-16.38,2.79-22.25,9C10.63,35.58,6,44.94,3.08,51.7a36.94,36.94,0,0,0,65.7,4C64.44,58.74,59.27,61.15,53.72,61.15Z"/></g></g></g></svg>