<svg xmlns="http://www.w3.org/2000/svg" viewBox="0 0 87.07 100"><defs><style>.cls-1{fill:#fff;}</style></defs><g id="Слой_2" data-name="Слой 2"><g id="icons"><g id="Magnet"><polygon class="cls-1" points="14.74 12.37 22.59 12.37 26.52 32.37 15.1 20.94 7.47 20.94 1.34 0 14.74 12.37"/><path class="cls-1" d="M25.25,84.5c-3.81-5.29-11.68-16.16-11.82-16.35l18.1-13c.16.21,7.93,11,11.67,16.17a11.14,11.14,0,0,0,19-11.58,15.32,15.32,0,0,0-1.11-1.76c-3.63-5-11.25-15.62-11.44-15.88l18.1-13,.45.62L79.31,45.07C107.35,84,52.48,122.26,25.25,84.5Z"/><path class="cls-1" d="M27,48.89l-18,13L.76,50.51a4,4,0,0,1,.92-5.63L13.15,36.6a4,4,0,0,1,5.64.92Z"/><path class="cls-1" d="M55,11.4l8.2,11.38-18,13L37,24.4a4.05,4.05,0,0,1,.91-5.64l11.48-8.27A4,4,0,0,1,55,11.4Z"/></g></g></g></svg>