<svg xmlns="http://www.w3.org/2000/svg" viewBox="0 0 95.81 100"><defs><style>.cls-1{fill:#fff;}</style></defs><g id="Слой_2" data-name="Слой 2"><g id="icons"><g id="Meat"><path class="cls-1" d="M49.32,57.82,28.93,80.49c-1.85,2-1.19,2.61-.85,2.93a9.56,9.56,0,1,1-15.79,5A9.54,9.54,0,1,1,16,72.31c.34.31,1,.92,2.85-1.08L38.74,49.15Z"/><path class="cls-1" d="M89,16.14,76.2,4.9A19.91,19.91,0,0,0,50,34.86L62.82,46.1a20,20,0,0,0,28.09-1.87h0A20,20,0,0,0,89,16.14ZM79.21,31.85h0A8,8,0,0,1,68,32.6l-5.13-4.49a8,8,0,1,1,10.48-12l5.14,4.49A8,8,0,0,1,79.21,31.85Z"/><path class="cls-1" d="M57,54l-14.89-13a20,20,0,0,1-6-20.4l-6.3,7.2a28.52,28.52,0,0,0,2.67,40.13h0A28.51,28.51,0,0,0,72.55,65.2l8.35-9.53A20,20,0,0,1,57,54Z"/></g></g></g></svg>