<svg xmlns="http://www.w3.org/2000/svg" viewBox="0 0 100 98.15"><defs><style>.cls-1{fill:#fff;}</style></defs><g id="Слой_2" data-name="Слой 2"><g id="icons"><g id="Medal_3"><circle class="cls-1" cx="49.81" cy="69.85" r="22.41"/><path class="cls-1" d="M38.09,37.75l8-13.89L33,0H0L29.78,42.24A28.43,28.43,0,0,1,38.09,37.75Z"/><path class="cls-1" d="M50.69,35.37A29.06,29.06,0,0,1,68.94,41.8L100,0H64.84L45.55,35.83A29.07,29.07,0,0,1,50.69,35.37Z"/><path class="cls-1" d="M49.81,98.15A28.3,28.3,0,1,1,78.1,69.85,28.34,28.34,0,0,1,49.81,98.15Zm0-49.52A21.22,21.22,0,1,0,71,69.85,21.24,21.24,0,0,0,49.81,48.63Z"/></g></g></g></svg>