<svg xmlns="http://www.w3.org/2000/svg" viewBox="0 0 82.54 100"><defs><style>.cls-1{fill:#fff;}</style></defs><g id="Слой_2" data-name="Слой 2"><g id="icons"><g id="Medal_1"><path class="cls-1" d="M71.83,26.92a2.41,2.41,0,0,1-1.37-3.31A11.14,11.14,0,0,0,55.63,8.77,2.41,2.41,0,0,1,52.32,7.4,11,11,0,0,0,41.83,0h0A11,11,0,0,0,31.34,7.4,2.41,2.41,0,0,1,28,8.77,11.14,11.14,0,0,0,13.2,23.61a2.41,2.41,0,0,1-1.37,3.31,11.14,11.14,0,0,0,0,21,2.36,2.36,0,0,1,1.42,1.34,2.41,2.41,0,0,1-.05,2A11.14,11.14,0,0,0,28,66a2.41,2.41,0,0,1,3.31,1.37,11.14,11.14,0,0,0,21,0A2.41,2.41,0,0,1,55.63,66,11.14,11.14,0,0,0,70.46,51.2a2.4,2.4,0,0,1,1.37-3.3,11.13,11.13,0,0,0,0-21ZM21.48,37.54A20.22,20.22,0,1,1,41.7,57.76,20.24,20.24,0,0,1,21.48,37.54Z"/><circle class="cls-1" cx="42.09" cy="37.94" r="13.48"/><path class="cls-1" d="M28,73.15a2.62,2.62,0,0,0-3.59-1.49,11.92,11.92,0,0,1-12-1L.94,81.36a2.93,2.93,0,0,0,1.72,5.07l10.64,1L16.93,98a2.93,2.93,0,0,0,5.47.19L31,77.82A12.28,12.28,0,0,1,28,73.15Z"/><path class="cls-1" d="M54.52,73.15a2.63,2.63,0,0,1,3.6-1.49,11.92,11.92,0,0,0,12-1L81.6,81.36a2.94,2.94,0,0,1-1.73,5.07l-10.63,1L65.61,98a2.94,2.94,0,0,1-5.48.19L51.54,77.82A12,12,0,0,0,54.52,73.15Z"/></g></g></g></svg>