<svg xmlns="http://www.w3.org/2000/svg" viewBox="0 0 65.1 100"><defs><style>.cls-1{fill:#fff;}</style></defs><g id="Слой_2" data-name="Слой 2"><g id="icons"><g id="Medal"><path class="cls-1" d="M60.51,26.37a6.44,6.44,0,0,1-4.59-6.18,6.33,6.33,0,0,1,.77-3A6.49,6.49,0,0,0,51,7.61a6.41,6.41,0,0,0-3.08.8,6.41,6.41,0,0,1-3,.77A6.5,6.5,0,0,1,41.12,8a6.39,6.39,0,0,1-2.39-3.36,6.46,6.46,0,0,0-12.36,0h0a6.44,6.44,0,0,1-6.18,4.59,6.4,6.4,0,0,1-3-.77,6.41,6.41,0,0,0-3.09-.8A6.58,6.58,0,0,0,7.6,14.07a6.42,6.42,0,0,0,.81,3.08,6.45,6.45,0,0,1-3.82,9.22,6.46,6.46,0,0,0,0,12.36A6.45,6.45,0,0,1,8.41,48a6.42,6.42,0,0,0,8.74,8.73A6.72,6.72,0,0,1,19.33,56a8.29,8.29,0,0,1,.85-.06,6.44,6.44,0,0,1,6.18,4.59h0a6.33,6.33,0,0,0,6.18,4.59A6.58,6.58,0,0,0,36.28,64a6.39,6.39,0,0,0,2.45-3.45,6.45,6.45,0,0,1,6.18-4.59,8.67,8.67,0,0,1,.87.06,6.82,6.82,0,0,1,2.17.71A6.42,6.42,0,0,0,51,57.5,6.57,6.57,0,0,0,57.49,51a6.38,6.38,0,0,0-.8-3.08,6.37,6.37,0,0,1-.77-3.05,6.46,6.46,0,0,1,4.59-6.18,6.46,6.46,0,0,0,0-12.36ZM49.05,29.89l-8.49,6.16a1.11,1.11,0,0,0-.4,1.24l3.24,10a1,1,0,0,1,0,.78,1.1,1.1,0,0,1-1.67.47L41,48.05,33.2,42.36a1.05,1.05,0,0,0-1.3,0l-7.84,5.69-.66.47a1.1,1.1,0,0,1-1.67-.47,1,1,0,0,1,0-.78l3.24-10a1.11,1.11,0,0,0-.4-1.24l-8.49-6.16a1.11,1.11,0,0,1,.65-2H27.2a1.1,1.1,0,0,0,1.05-.76l3.25-10a1.1,1.1,0,0,1,2.1,0l3.25,10a1.1,1.1,0,0,0,1,.76H48.4A1.11,1.11,0,0,1,49.05,29.89Z"/><path class="cls-1" d="M32.55,72.7a13.18,13.18,0,0,1-12.57-9l-.65.29v36l13.22-8.53L45.77,100V64l-.65-.29A13.18,13.18,0,0,1,32.55,72.7Z"/></g></g></g></svg>