<svg xmlns="http://www.w3.org/2000/svg" viewBox="0 0 100 84.49"><defs><style>.cls-1{fill:#fff;}</style></defs><g id="Слой_2" data-name="Слой 2"><g id="icons"><g id="Menu_4"><path class="cls-1" d="M3.72,0h92a3.72,3.72,0,0,1,3.72,3.72V22.46a0,0,0,0,1,0,0H0a0,0,0,0,1,0,0V3.72A3.72,3.72,0,0,1,3.72,0Z"/><rect class="cls-1" y="31.02" width="99.47" height="22.46"/><path class="cls-1" d="M.53,62H100a0,0,0,0,1,0,0V80.77a3.72,3.72,0,0,1-3.72,3.72h-92A3.72,3.72,0,0,1,.53,80.77V62a0,0,0,0,1,0,0Z"/></g></g></g></svg>