<svg xmlns="http://www.w3.org/2000/svg" viewBox="0 0 100 100"><defs><style>.cls-1{fill:#fff;}</style></defs><g id="Слой_2" data-name="Слой 2"><g id="icons"><g id="Menu_2"><path class="cls-1" d="M3.12,0h42a0,0,0,0,1,0,0V45.12a0,0,0,0,1,0,0H0a0,0,0,0,1,0,0v-42A3.12,3.12,0,0,1,3.12,0Z"/><path class="cls-1" d="M54.88,0h42A3.12,3.12,0,0,1,100,3.12v42a0,0,0,0,1,0,0H54.88a0,0,0,0,1,0,0V0A0,0,0,0,1,54.88,0Z"/><path class="cls-1" d="M0,54.88H45.12a0,0,0,0,1,0,0V100a0,0,0,0,1,0,0h-42A3.12,3.12,0,0,1,0,96.88v-42a0,0,0,0,1,0,0Z"/><path class="cls-1" d="M54.88,54.88H100a0,0,0,0,1,0,0v42A3.12,3.12,0,0,1,96.88,100h-42a0,0,0,0,1,0,0V54.88A0,0,0,0,1,54.88,54.88Z"/></g></g></g></svg>