<svg xmlns="http://www.w3.org/2000/svg" viewBox="0 0 100 100"><defs><style>.cls-1{fill:#fff;}</style></defs><g id="Слой_2" data-name="Слой 2"><g id="icons"><g id="Menu"><path class="cls-1" d="M3.82,0H27.18a0,0,0,0,1,0,0V27.18a0,0,0,0,1,0,0H0a0,0,0,0,1,0,0V3.82A3.82,3.82,0,0,1,3.82,0Z"/><rect class="cls-1" x="36.67" width="27.18" height="27.18"/><path class="cls-1" d="M72.82,0H96.18A3.82,3.82,0,0,1,100,3.82V27.18a0,0,0,0,1,0,0H72.82a0,0,0,0,1,0,0V0A0,0,0,0,1,72.82,0Z"/><rect class="cls-1" y="36.67" width="27.18" height="27.18"/><rect class="cls-1" x="36.67" y="36.67" width="27.18" height="27.18"/><rect class="cls-1" x="72.82" y="36.67" width="27.18" height="27.18"/><path class="cls-1" d="M0,72.82H27.18a0,0,0,0,1,0,0V100a0,0,0,0,1,0,0H3.82A3.82,3.82,0,0,1,0,96.18V72.82A0,0,0,0,1,0,72.82Z"/><rect class="cls-1" x="36.67" y="72.82" width="27.18" height="27.18"/><path class="cls-1" d="M72.82,72.82H100a0,0,0,0,1,0,0V96.18A3.82,3.82,0,0,1,96.18,100H72.82a0,0,0,0,1,0,0V72.82A0,0,0,0,1,72.82,72.82Z"/></g></g></g></svg>