<svg xmlns="http://www.w3.org/2000/svg" viewBox="0 0 100 84.49"><defs><style>.cls-1{fill:#fff;}</style></defs><g id="Слой_2" data-name="Слой 2"><g id="icons"><g id="Message"><polygon class="cls-1" points="25.43 84.49 42.27 55.34 8.6 55.34 25.43 84.49"/><path class="cls-1" d="M50,0C22.39,0,0,15.89,0,35.48S22.39,71,50,71s50-15.89,50-35.49S77.61,0,50,0ZM27.71,42.76A7.28,7.28,0,1,1,35,35.48,7.28,7.28,0,0,1,27.71,42.76Zm22.74,0a7.28,7.28,0,1,1,7.28-7.28A7.28,7.28,0,0,1,50.45,42.76Zm21.84,0a7.28,7.28,0,1,1,7.28-7.28A7.28,7.28,0,0,1,72.29,42.76Z"/></g></g></g></svg>