<svg xmlns="http://www.w3.org/2000/svg" viewBox="0 0 60.37 100"><defs><style>.cls-1{fill:#fff;}</style></defs><g id="Слой_2" data-name="Слой 2"><g id="icons"><g id="Microphone_Off"><path class="cls-1" d="M17.77,6.36,43.12,54.57a13.17,13.17,0,0,0,2.09-7.77c-.22-5.36,0-10.74,0-16.1v-17a12.17,12.17,0,0,0-2.07-7A15.71,15.71,0,0,0,26.22.47a15,15,0,0,0-8.65,5.59C17.63,6.16,17.71,6.25,17.77,6.36Z"/><path class="cls-1" d="M15.07,16.13c0,10.55-.06,21.1,0,31.64a13.63,13.63,0,0,0,1.34,5.52c2.64,5.51,8.68,8.55,15.39,7.93a15.73,15.73,0,0,0,6-1.82Z"/><path class="cls-1" d="M50.86,69.29c7.18-6,10.55-15.05,9.23-26.4h-7.4c0,2.31,0,4.54,0,6.77A17.84,17.84,0,0,1,48.2,61.73c-.28.31-.56.6-.84.89Z"/><path class="cls-1" d="M43.25,90.59H37.64c0-4.46.06-8.73,0-13,0-1.27.34-1.73,1.59-2.12A38.77,38.77,0,0,0,45,73.11L41.83,67c-5.11,2.94-11,3.61-17.35,2.18C16.63,67.43,10.94,62.8,8.41,54.94a25.63,25.63,0,0,1-.85-6c-.13-2,0-4,0-6.06H0c0,2.35,0,4.64,0,6.94A24.39,24.39,0,0,0,2.65,60.63c4,7.83,10.52,12.59,18.88,15a1.23,1.23,0,0,1,1.08,1.44c0,4.11,0,8.23,0,12.34v1.23H17A9.36,9.36,0,0,0,7.6,100h45v0A9.38,9.38,0,0,0,43.25,90.59Z"/><rect class="cls-1" x="21.92" y="-3.05" width="6.94" height="91.51" rx="3.47" transform="translate(67.75 68.65) rotate(152.22)"/></g></g></g></svg>