<svg xmlns="http://www.w3.org/2000/svg" viewBox="0 0 60.37 100"><defs><style>.cls-1{fill:#fff;}</style></defs><g id="Слой_2" data-name="Слой 2"><g id="icons"><g id="Microphone_On"><path class="cls-1" d="M45.17,30.7c0,5.36-.18,10.74,0,16.1.33,7.93-6,13.74-13.36,14.42-6.71.62-12.75-2.42-15.39-7.93a13.63,13.63,0,0,1-1.34-5.52C15,36.37,15,25,15.07,13.56c0-6.23,4.57-11.51,11.15-13.09A15.71,15.71,0,0,1,43.1,6.66a12.17,12.17,0,0,1,2.07,7V30.7Z"/><path class="cls-1" d="M37.64,90.59h5.61A9.38,9.38,0,0,1,52.63,100v0H7.6A9.36,9.36,0,0,1,17,90.63h5.62V89.4c0-4.11,0-8.23,0-12.34a1.23,1.23,0,0,0-1.08-1.44c-8.36-2.4-14.88-7.16-18.88-15A24.39,24.39,0,0,1,0,49.81c0-2.3,0-4.59,0-6.94H7.53c0,2-.1,4.05,0,6.06a25.63,25.63,0,0,0,.85,6c2.53,7.86,8.22,12.49,16.07,14.25,9.23,2.06,17.34-.24,23.72-7.46a17.84,17.84,0,0,0,4.49-12.07c0-2.23,0-4.46,0-6.77h7.4C62,59.25,54.15,70.79,39.2,75.47c-1.25.39-1.61.85-1.59,2.12C37.7,81.86,37.64,86.13,37.64,90.59Z"/></g></g></g></svg>