<svg xmlns="http://www.w3.org/2000/svg" viewBox="0 0 100 98"><defs><style>.cls-1{fill:#fff;}</style></defs><g id="Слой_2" data-name="Слой 2"><g id="icons"><g id="Minimize"><rect class="cls-1" x="42" width="16" height="98" rx="8"/><path class="cls-1" d="M33.5,47.89A169.9,169.9,0,0,0,3,25.72,1.55,1.55,0,0,0,.73,27,334.22,334.22,0,0,0,.73,71a1.55,1.55,0,0,0,2.34,1.22,199.69,199.69,0,0,0,30.42-22.1A1.53,1.53,0,0,0,33.5,47.89Z"/><path class="cls-1" d="M66.5,47.89A169.9,169.9,0,0,1,97,25.72,1.55,1.55,0,0,1,99.27,27a334.22,334.22,0,0,1,0,44.08,1.55,1.55,0,0,1-2.34,1.22,199.69,199.69,0,0,1-30.42-22.1A1.53,1.53,0,0,1,66.5,47.89Z"/></g></g></g></svg>