<svg xmlns="http://www.w3.org/2000/svg" viewBox="0 0 100 88"><defs><style>.cls-1{fill:#fff;}</style></defs><g id="Слой_2" data-name="Слой 2"><g id="icons"><g id="Mission_Accomplished"><path class="cls-1" d="M16,0V88H84V0ZM69.53,29.56C62.61,35.58,53.17,53.1,50,59.64l-2.43,5a1.36,1.36,0,0,1-2.42,0l-2.6-4.89a101.08,101.08,0,0,0-12.2-18.06,1.36,1.36,0,0,1,.1-1.88L34.53,36a1.36,1.36,0,0,1,2,.09,99.75,99.75,0,0,1,8.3,11.13,1.36,1.36,0,0,0,2.33-.09c4.38-7.92,11.12-18.92,17.29-24.14a1.36,1.36,0,0,1,2,.23l3.35,4.56A1.36,1.36,0,0,1,69.53,29.56Z"/><path class="cls-1" d="M6.95,0H10a0,0,0,0,1,0,0V21a0,0,0,0,1,0,0H6.95A6.95,6.95,0,0,1,0,14.05V6.95A6.95,6.95,0,0,1,6.95,0Z"/><path class="cls-1" d="M6.95,67H10a0,0,0,0,1,0,0V88a0,0,0,0,1,0,0H6.95A6.95,6.95,0,0,1,0,81.05v-7.1A6.95,6.95,0,0,1,6.95,67Z"/><path class="cls-1" d="M96.95,67H100a0,0,0,0,1,0,0V88a0,0,0,0,1,0,0H96.95A6.95,6.95,0,0,1,90,81.05v-7.1A6.95,6.95,0,0,1,96.95,67Z" transform="translate(190 155) rotate(180)"/><path class="cls-1" d="M96.95,0H100a0,0,0,0,1,0,0V21a0,0,0,0,1,0,0H96.95A6.95,6.95,0,0,1,90,14.05V6.95A6.95,6.95,0,0,1,96.95,0Z" transform="translate(190 21) rotate(180)"/></g></g></g></svg>