<svg xmlns="http://www.w3.org/2000/svg" viewBox="0 0 100 89.73"><defs><style>.cls-1{fill:#fff;}</style></defs><g id="Слой_2" data-name="Слой 2"><g id="icons"><g id="Moneybox"><path class="cls-1" d="M32.69,9.44,30.17,2.3a2,2,0,0,0-3.66-.11L21,15.25A41.45,41.45,0,0,1,32.69,9.44Z"/><polygon class="cls-1" points="70.36 89.73 61.48 89.73 61.48 69 78.26 66.04 70.36 89.73"/><polygon class="cls-1" points="36.8 89.73 27.92 89.73 21.01 62.09 42.73 68.01 36.8 89.73"/><rect class="cls-1" y="36.99" width="11.84" height="14.81" rx="2.22"/><path class="cls-1" d="M84.17,44.44a11.1,11.1,0,0,0,5,5,5.79,5.79,0,0,0,7.24-1.67,7.55,7.55,0,0,0,1.69-6.91A26.58,26.58,0,0,0,100,34a1.37,1.37,0,0,0-1.15-1.58,1.38,1.38,0,0,0-1.59,1.15,29.42,29.42,0,0,1-1,4.26,4.4,4.4,0,0,0-3.4-1.21c-.84.09-2.89.64-3.82,3.87a3.89,3.89,0,0,0,1.08,3.87,3.83,3.83,0,0,0,3.92.85,4.59,4.59,0,0,0,1-.51A6.1,6.1,0,0,1,94.28,46a3.07,3.07,0,0,1-4,.91,8.48,8.48,0,0,1-3.81-3.92A4.92,4.92,0,0,1,84.17,44.44Zm7.89-2.11a1.12,1.12,0,0,1-.34-1.09c.33-1.13.86-1.82,1.46-1.88a2.27,2.27,0,0,1,1.89,1.3,7.11,7.11,0,0,1-.54.81,3.08,3.08,0,0,1-1.35,1.09A1,1,0,0,1,92.06,42.33Z"/><path class="cls-1" d="M34.41,15.28,40.33,1.2A2,2,0,0,1,44,1.31l4.23,12Z"/><path class="cls-1" d="M47.24,11.33c-21.81,0-39.49,15.25-39.49,34.05S25.43,79.44,47.24,79.44,86.72,64.19,86.72,45.38,69,11.33,47.24,11.33ZM31,35a4.44,4.44,0,1,1,4.44-4.44A4.44,4.44,0,0,1,31,35Zm46.48,2a2.31,2.31,0,0,1-1.19.32,2.36,2.36,0,0,1-2-1.15C68.53,26.54,55,22.7,48.64,24.81a2.35,2.35,0,1,1-1.49-4.46c7.71-2.57,24.06,1.48,31.12,13.45A2.35,2.35,0,0,1,77.43,37Z"/></g></g></g></svg>