<svg xmlns="http://www.w3.org/2000/svg" viewBox="0 0 100 86.81"><defs><style>.cls-1{fill:#fff;}</style></defs><g id="Слой_2" data-name="Слой 2"><g id="icons"><g id="Muscles"><path class="cls-1" d="M32.23,1.39H44.82a7.81,7.81,0,0,1,7.81,7.81V19.84a7.81,7.81,0,0,1-7.81,7.81H30.44a7.81,7.81,0,0,1-7.81-7.81V11a9.61,9.61,0,0,1,9.61-9.61Z" transform="translate(5.71 -10.14) rotate(16.59)"/><path class="cls-1" d="M98,34.57a26.74,26.74,0,0,0-32.15,4.18,19.67,19.67,0,0,0-2.77,18.54,2.35,2.35,0,0,1-1.43,3,2.44,2.44,0,0,1-.79.14,2.36,2.36,0,0,1-2.22-1.58,23.52,23.52,0,0,1-.27-15.52,38.23,38.23,0,0,0-4.31-.25c-6.11,0-18.17-.56-23.5,13.82a2.41,2.41,0,0,1-2.94,1.57,2.48,2.48,0,0,1-.71-.35,2.35,2.35,0,0,1-.86-2.59A23.49,23.49,0,0,1,36.2,42.08c-1.37-5.56-2.8-15,.42-22.79,4.93-12,2.55-20.55-7-17.08S-7.93,47.89,2.16,69C9.8,85,38.48,86.8,51.89,86.74c.73,0,1.46.07,2.2.07a38.8,38.8,0,0,0,4.74-.29h.06a34.1,34.1,0,0,0,14-4.81,26.73,26.73,0,0,0,27.16-2Z"/></g></g></g></svg>