<svg xmlns="http://www.w3.org/2000/svg" viewBox="0 0 89 74"><defs><style>.cls-1{fill:#fff;}</style></defs><g id="Слой_2" data-name="Слой 2"><g id="icons"><g id="Music_On"><path class="cls-1" d="M18.05,55a18.05,18.05,0,0,1,0-36.1Z"/><path class="cls-1" d="M58.9,25a12,12,0,1,1,0,23.93Z"/><path class="cls-1" d="M55.12,73.5,22.92,55.29V18.71L55.12.5a3.86,3.86,0,0,1,5.75,3.36V70.14A3.86,3.86,0,0,1,55.12,73.5Z"/><path class="cls-1" d="M66.41,6.21a31.73,31.73,0,0,1,0,60.77s0-8.34,0-9.13a23.13,23.13,0,0,0,0-42.5Z"/></g></g></g></svg>