<svg xmlns="http://www.w3.org/2000/svg" viewBox="0 0 66.36 100"><defs><style>.cls-1{fill:#fff;}</style></defs><g id="Слой_2" data-name="Слой 2"><g id="icons"><g id="Necklace"><path class="cls-1" d="M66.36,42.27,33.18,45.45,0,42.27V52a6.89,6.89,0,0,0,7.55,6.86l20.7-2L25,100H42.27L39,56.82l19.77,2a6.89,6.89,0,0,0,7.57-6.85Z"/><path class="cls-1" d="M33.18,0A15.24,15.24,0,0,0,17.94,15.24c0,8.42,6.82,36.58,15.24,36.58S48.42,23.66,48.42,15.24A15.24,15.24,0,0,0,33.18,0Zm0,35.55c-4,0-7.27-13.44-7.27-17.46a7.27,7.27,0,0,1,14.54,0C40.45,22.11,37.2,35.55,33.18,35.55Z"/></g></g></g></svg>