<svg xmlns="http://www.w3.org/2000/svg" viewBox="0 0 100 75.41"><defs><style>.cls-1{fill:#fff;}</style></defs><g id="Слой_2" data-name="Слой 2"><g id="icons"><g id="Next"><path class="cls-1" d="M99.2,39.49A272.87,272.87,0,0,1,50.28,75.08a2.5,2.5,0,0,1-3.69-2c-2.93-20.88-2.93-49,0-70.79a2.51,2.51,0,0,1,3.75-2c18.55,11.19,35,23,48.85,35.49A2.47,2.47,0,0,1,99.2,39.49Z"/><path class="cls-1" d="M54.81,39.49A273.23,273.23,0,0,1,5.89,75.08a2.51,2.51,0,0,1-3.7-2c-2.92-20.88-2.92-49,0-70.79a2.51,2.51,0,0,1,3.75-2c18.55,11.19,35,23,48.85,35.49A2.47,2.47,0,0,1,54.81,39.49Z"/></g></g></g></svg>