<svg xmlns="http://www.w3.org/2000/svg" viewBox="0 0 31.26 100"><defs><style>.cls-1{fill:#fff;}</style></defs><g id="Слой_2" data-name="Слой 2"><g id="icons"><g id="Note"><path class="cls-1" d="M9.36,38.63H21.89a2.38,2.38,0,0,1,2.38,2.22l4,56.6A2.39,2.39,0,0,1,25.86,100H5.4A2.38,2.38,0,0,1,3,97.45l4-56.6A2.39,2.39,0,0,1,9.36,38.63Z"/><path class="cls-1" d="M15.54,0h.17A15.54,15.54,0,0,1,31.25,15.51h0A15.53,15.53,0,0,1,15.71,31.08h-.17A15.54,15.54,0,0,1,0,15.51H0A15.54,15.54,0,0,1,15.54,0Z"/></g></g></g></svg>