<svg xmlns="http://www.w3.org/2000/svg" viewBox="0 0 100 94.82"><defs><style>.cls-1{fill:#fff;}</style></defs><g id="Слой_2" data-name="Слой 2"><g id="icons"><g id="Nuclear_Missile"><path class="cls-1" d="M94.22,7.85h0A23.32,23.32,0,0,0,61.41,5.78L41.19,23.61A19.49,19.49,0,0,0,39.46,51l5,5.72a19.48,19.48,0,0,0,27.42,1.73L92.15,40.65A23.31,23.31,0,0,0,94.22,7.85ZM64.81,36.16c-1.26,2.17-2.52,4.33-3.77,6.5l-.24.4a.78.78,0,0,1-1.18.3A18.91,18.91,0,0,1,58,42.22a14.57,14.57,0,0,1-5.13-7.71c-.24-.88-.33-1.8-.49-2.7l-.06-.33v-1.1a1,1,0,0,1,1.06-.62h7.73c.77,0,1,.22,1.06,1a5,5,0,0,0,2.28,4,1.83,1.83,0,0,1,.51.49A.87.87,0,0,1,64.81,36.16ZM69.14,33a3.55,3.55,0,1,1,3.55-3.55A3.55,3.55,0,0,1,69.14,33ZM71.66,22.7a4.93,4.93,0,0,0-4-.26,5.44,5.44,0,0,0-.66.28.86.86,0,0,1-1.3-.41l-2.93-5-1-1.77a.87.87,0,0,1,.35-1.3,15,15,0,0,1,14.56,0A.87.87,0,0,1,77,15.5l-3.34,5.75-.59,1C72.65,22.91,72.3,23,71.66,22.7Zm7,21.16a.8.8,0,0,1-1.21-.3q-2-3.51-4.07-7a.78.78,0,0,1,.28-1.17,5.29,5.29,0,0,0,2-2.22,5.37,5.37,0,0,0,.47-2c0-.62.31-.87,1-.87h7.81c.84,0,1.18.34,1.14,1.19A14.71,14.71,0,0,1,78.66,43.86Z"/><path class="cls-1" d="M39.18,61.19l-5-5.72a19.32,19.32,0,0,1-4.76-11.4,12.11,12.11,0,0,0-12.17,2.28L0,61.52l24.16,8.29,5.19,25L46.57,79.65a12.1,12.1,0,0,0,3.67-12.24A19.27,19.27,0,0,1,39.18,61.19Z"/></g></g></g></svg>