<svg xmlns="http://www.w3.org/2000/svg" viewBox="0 0 93.53 100"><defs><style>.cls-1{fill:#fff;}</style></defs><g id="Слой_2" data-name="Слой 2"><g id="icons"><path id="Ok" class="cls-1" d="M46.71,86.58,41,98.22a3.17,3.17,0,0,1-5.66.09L29.3,86.88A236.73,236.73,0,0,0,.77,44.63,3.15,3.15,0,0,1,1,40.26l9.6-9.08a3.19,3.19,0,0,1,4.57.21,234.35,234.35,0,0,1,19.42,26,3.17,3.17,0,0,0,5.44-.2C50.29,38.68,66,13,80.47.76a3.18,3.18,0,0,1,4.63.54L92.92,12a3.16,3.16,0,0,1-.48,4.27C76.26,30.32,54.18,71.29,46.71,86.58Z"/></g></g></svg>