<svg xmlns="http://www.w3.org/2000/svg" viewBox="0 0 100 100"><defs><style>.cls-1{fill:#fff;}</style></defs><g id="Слой_2" data-name="Слой 2"><g id="icons"><g id="Onion"><path class="cls-1" d="M94.57,69.78c.22-1.36.32-2.75.48-4.12V58.6c-.06-.24-.13-.47-.17-.71-.33-1.83-.51-3.69-1-5.47A16.24,16.24,0,0,0,83.68,40.87,25.55,25.55,0,0,0,73.11,39.3a5.84,5.84,0,0,1-3-.61l-8.84-8.91a6.52,6.52,0,0,1-.59-2.9,44.25,44.25,0,0,0-.36-6.09C59.2,12.94,54.4,7.72,46.67,5.87,45,5.47,43.28,5.25,41.58,5H34.16c-1.35.16-2.7.26-4,.48C26.08,6.08,22,6.84,18,7.45c-3.51.53-7,1-10.59.45A15.49,15.49,0,0,1,.19,5H0a14.74,14.74,0,0,0,6.86,9.52A8.31,8.31,0,0,1,8.31,15.6q18,18,36,36a.46.46,0,0,0,.07.07l.29.3c12,12,27.67,27.66,39.69,39.7a8.31,8.31,0,0,1,1.13,1.45A14.84,14.84,0,0,0,95.05,100v-.19a15.83,15.83,0,0,1-3-7.2,29,29,0,0,1,.27-9.21C93,78.85,93.85,74.32,94.57,69.78Zm-8.71,1.59c-.69,4.34-1.48,8.66-2.21,13-.1.56-.11,1.13-.18,1.94L47.11,49.93a4.77,4.77,0,0,0-.58-.62L14.64,17.41c-.25-.25-.49-.52-.84-.9.74-.06,1.29-.07,1.83-.16l11.88-2a46.45,46.45,0,0,1,13.67-.63A12.36,12.36,0,0,1,48.69,17c3,3,3.54,6.89,3.36,10.84-.23,4.89,3.2,10.07,6.85,13.08l0,0c.6.7,2.91,3,3.56,3.6a11,11,0,0,0,7.09,3.29C71.27,48,73,48,74.66,48,81,48.21,85,51.62,86.14,57.8A39.9,39.9,0,0,1,85.86,71.37Z"/><circle class="cls-1" cx="4.95" cy="4.95" r="4.95"/><circle class="cls-1" cx="95.05" cy="95.05" r="4.95"/><path class="cls-1" d="M34,57.43c1.16-.06,1.67.27,1.63,1.54s0,2.67-.06,4l42-39.84a15.48,15.48,0,0,1,0-4.77,11.3,11.3,0,0,1-4.89-.14L31.25,57.54C32.17,57.5,33.09,57.48,34,57.43Z"/><path class="cls-1" d="M31,60.4c-2.94.15-5.89.18-8.83.36a2.94,2.94,0,0,0-1.68.84C15,67.09,9.48,72.61,4,78.12a12.38,12.38,0,0,0-.78,1c.57,0,.88.08,1.18.07,2.77-.08,5.54-.15,8.31-.26,1.07,0,1.55.36,1.47,1.46-.1,1.4-.18,2.81-.21,4.21,0,1.79,0,3.58,0,5.62a7,7,0,0,0,.67-.49c5.76-5.75,11.54-11.5,17.26-17.3a3.1,3.1,0,0,0,.7-1.88c.09-2.86,0-5.73.11-8.59C32.71,60.67,32.2,60.34,31,60.4Z"/><path class="cls-1" d="M92.08,4.91l-.29-.3C83.88,9.19,78,10.2,66.64,9.8c1.65,1.68,7.4,6.9,13.91,5.6-1.3,9.1,4.74,12.52,6.5,14.3C85.75,19.3,87.51,12.79,92.08,4.91Z"/><rect class="cls-1" x="36.63" y="46.53" width="19.8" height="3.96" rx="1.98" transform="translate(47.93 -18.7) rotate(45)"/></g></g></g></svg>