<svg xmlns="http://www.w3.org/2000/svg" viewBox="0 0 97.06 100"><defs><style>.cls-1{fill:#fff;}</style></defs><g id="Слой_2" data-name="Слой 2"><g id="icons"><g id="Palm"><path class="cls-1" d="M47.63,18.15C48.39,7.22,60.06-.87,73.7.08S97.78,10.65,97,21.58Z"/><path class="cls-1" d="M49.44,18.15C48.68,7.22,37-.87,23.36.08S-.72,10.65,0,21.58Z"/><polygon class="cls-1" points="57.61 43.35 57.2 38.23 48.88 30.31 40.65 38.15 40.23 43.35 57.61 43.35"/><polygon class="cls-1" points="39.81 48.66 38.81 61.06 59.03 61.06 58.04 48.66 39.81 48.66"/><polygon class="cls-1" points="60.53 79.64 59.53 67.25 38.31 67.25 37.31 79.64 60.53 79.64"/><polygon class="cls-1" points="36.75 86.72 35.68 100 62.17 100 61.1 86.72 36.75 86.72"/><path class="cls-1" d="M77.14,20.33c-8.58-8.17-20.35-10.18-28.26-5.4-7.9-4.78-19.68-2.77-28.26,5.4-9.89,9.44-11.79,23.51-4.23,31.44l32.49-31L70.23,41.15l2.31,2.2,2.16,2.06,6.68,6.36C88.94,43.84,87,29.77,77.14,20.33Z"/></g></g></g></svg>