<svg xmlns="http://www.w3.org/2000/svg" viewBox="0 0 97.22 100"><defs><style>.cls-1{fill:#fff;}</style></defs><g id="Слой_2" data-name="Слой 2"><g id="icons"><g id="Paper_Airplane"><path class="cls-1" d="M84.81,80a2.92,2.92,0,0,1-4,2.47C66.93,77.72,53.06,73,39,68.16L79.22,19.74l-.13-.14a5.58,5.58,0,0,0-.56.39Q53.18,41.66,27.84,63.36a1.66,1.66,0,0,1-1.9.36q-11.73-4.06-23.5-8A3.05,3.05,0,0,1,2,49.82C31.7,34.32,97.22,0,97.22,0S85.7,74.21,84.81,80Z"/><path class="cls-1" d="M28.27,73l20.32,6.94c-.21.34-.37.61-.55.85-4.23,5.77-8.48,11.54-12.7,17.31A3.89,3.89,0,0,1,31.67,100a3.71,3.71,0,0,1-3.39-4c0-7,0-13.93,0-20.89Z"/></g></g></g></svg>