<svg xmlns="http://www.w3.org/2000/svg" viewBox="0 0 76.93 100"><defs><style>.cls-1{fill:#fff;}</style></defs><g id="Слой_2" data-name="Слой 2"><g id="icons"><g id="Pause"><path class="cls-1" d="M29.61,100H4.6a2.48,2.48,0,0,1-2.48-2.26,538,538,0,0,1,0-95.48A2.48,2.48,0,0,1,4.6,0h25a2.48,2.48,0,0,1,2.48,2.48v95A2.48,2.48,0,0,1,29.61,100Z"/><path class="cls-1" d="M72.64,100h-25a2.48,2.48,0,0,1-2.48-2.48v-95A2.48,2.48,0,0,1,47.66,0h25a2.48,2.48,0,0,1,2.48,2.29,630.57,630.57,0,0,1,0,95.42A2.48,2.48,0,0,1,72.64,100Z"/></g></g></g></svg>