<svg xmlns="http://www.w3.org/2000/svg" viewBox="0 0 100 92.44"><defs><style>.cls-1{fill:#fff;}</style></defs><g id="Слой_2" data-name="Слой 2"><g id="icons"><g id="Paw"><path class="cls-1" d="M79,59.69c-13.63-27.12-44.39-27.12-59,0C13.41,73,14.78,87.15,23.1,91.29c5.76,2.87,13.33.19,19.64-6.14a9.51,9.51,0,0,1,13.55,0c6.32,6.33,13.89,9,19.65,6.14C84.26,87.15,85.63,73,79,59.69Z"/><path class="cls-1" d="M19.23,39.3c0,6.31-4.3,11.42-9.61,11.42S0,45.61,0,39.3,4.3,23.08,9.62,23.08,19.23,33,19.23,39.3Z"/><path class="cls-1" d="M43.27,16.23c0,6.3-4.31,11.41-9.62,11.41S24,22.53,24,16.23,28.34,0,33.65,0,43.27,9.92,43.27,16.23Z"/><path class="cls-1" d="M75,17.19c0,6.3-4.3,11.42-9.62,11.42s-9.61-5.12-9.61-11.42S60.07,1,65.38,1,75,10.88,75,17.19Z"/><path class="cls-1" d="M100,38.34c0,6.31-4.3,11.42-9.62,11.42s-9.61-5.11-9.61-11.42,4.3-16.22,9.61-16.22S100,32,100,38.34Z"/></g></g></g></svg>