<svg xmlns="http://www.w3.org/2000/svg" viewBox="0 0 99.43 100"><defs><style>.cls-1{fill:#fff;}</style></defs><g id="Слой_2" data-name="Слой 2"><g id="icons"><g id="PC"><path class="cls-1" d="M83.51,72H15.92A15.92,15.92,0,0,1,0,56.08V15.92A15.92,15.92,0,0,1,15.92,0H83.51A15.92,15.92,0,0,1,99.43,15.92V56.08A15.92,15.92,0,0,1,83.51,72ZM15.92,10.29a5.63,5.63,0,0,0-5.63,5.63V56.08a5.63,5.63,0,0,0,5.63,5.63H83.51a5.63,5.63,0,0,0,5.63-5.63V15.92a5.63,5.63,0,0,0-5.63-5.63Z"/><path class="cls-1" d="M74.55,96.15c-5-3.58-9.44-8.8-11.31-15H39c-1.88,6.21-6.31,11.43-11.31,15A2.13,2.13,0,0,0,28.93,100H73.29A2.13,2.13,0,0,0,74.55,96.15Z"/></g></g></g></svg>