<svg xmlns="http://www.w3.org/2000/svg" viewBox="0 0 68.27 99.96"><defs><style>.cls-1{fill:#fff;}</style></defs><g id="Слой_2" data-name="Слой 2"><g id="icons"><g id="Pen"><path class="cls-1" d="M5.58,4.27H24.76a5.6,5.6,0,0,1,5.6,5.6V20.23a0,0,0,0,1,0,0H0a0,0,0,0,1,0,0V9.87a5.6,5.6,0,0,1,5.6-5.6Z" transform="translate(-4 8.68) rotate(-28.37)"/><path class="cls-1" d="M65.33,94.77a6.29,6.29,0,0,1-3.21,4.43h0a6.33,6.33,0,0,1-5.47.26L41.53,93.05,68.27,78.61Z"/><rect class="cls-1" x="23.15" y="28.15" width="9.8" height="59.25" transform="translate(-24.08 20.26) rotate(-28.37)"/><rect class="cls-1" x="36.66" y="19.53" width="14.7" height="59.25" transform="matrix(0.88, -0.48, 0.48, 0.88, -18.07, 26.81)"/></g></g></g></svg>