<svg xmlns="http://www.w3.org/2000/svg" viewBox="0 0 100 82.2"><defs><style>.cls-1{fill:#fff;}</style></defs><g id="Слой_2" data-name="Слой 2"><g id="icons"><g id="People"><path class="cls-1" d="M48.92,82.08v.09c4,0,8.1.08,12.14,0,3.12-.08,6.24-.3,9.35-.6a4.31,4.31,0,0,0,3.65-2.87,7.36,7.36,0,0,0,.72-2.53c0-6.07.24-12.16-.17-18.2C74,49.2,66.8,41,58.3,38.89a38.92,38.92,0,0,0-11.7-.65,22.44,22.44,0,0,0-8.85,2.25c-8.06,4-12.18,10.7-12.55,19.61-.21,5.27-.07,10.55,0,15.82a6,6,0,0,0,2.37,4.69,7,7,0,0,0,4.72,1.47ZM50,0A16,16,0,1,0,66,16,16,16,0,0,0,50,0ZM24.59,41.05A8.63,8.63,0,0,0,20,38.74a56.56,56.56,0,0,0-7.69-.43A12.34,12.34,0,0,0,0,50.94v19.4c0,3.51,2.21,5.8,5.69,5.84,3.28,0,6.57,0,9.85,0a11.23,11.23,0,0,0,1.21-.12v-1c.06-5.63,0-11.28.23-16.91A24.63,24.63,0,0,1,21.5,45C22.45,43.63,23.53,42.38,24.59,41.05ZM14.77,11.78A10.11,10.11,0,1,0,24.85,21.92,10.09,10.09,0,0,0,14.77,11.78Z"/><path class="cls-1" d="M100,71.64a2.81,2.81,0,0,0-.19.39,5.41,5.41,0,0,1-5.08,4.1c-3.59.12-7.17.05-10.76.05a4.26,4.26,0,0,1-.72-.14v-1c0-4.76.09-9.51,0-14.26C83.1,55.14,81.91,49.74,78.55,45c-1-1.35-2-2.6-3.13-4a9.9,9.9,0,0,1,4.86-2.41,26.9,26.9,0,0,1,10,0,12.26,12.26,0,0,1,9.59,10.09,3,3,0,0,0,.17.5Z"/><path class="cls-1" d="M48.92,82.08H32.27a7,7,0,0,1-4.72-1.47,6,6,0,0,1-2.37-4.69c-.05-5.27-.19-10.55,0-15.82.37-8.91,4.49-15.56,12.55-19.61a22.44,22.44,0,0,1,8.85-2.25,38.92,38.92,0,0,1,11.7.65C66.8,41,74,49.2,74.61,58c.41,6,.19,12.13.17,18.2a7.36,7.36,0,0,1-.72,2.53,4.31,4.31,0,0,1-3.65,2.87c-3.11.3-6.23.52-9.35.6-4,.1-8.09,0-12.14,0Z"/><path class="cls-1" d="M50,0A16,16,0,1,1,34,16,16,16,0,0,1,50,0Z"/><path class="cls-1" d="M85.31,11.78A10.11,10.11,0,1,1,75.16,21.84,10.1,10.1,0,0,1,85.31,11.78Z"/></g></g></g></svg>