<svg xmlns="http://www.w3.org/2000/svg" viewBox="0 0 86 100"><defs><style>.cls-1{fill:#fff;}</style></defs><g id="Слой_2" data-name="Слой 2"><g id="icons"><g id="Petal"><path class="cls-1" d="M79.64,33.34C85.59,24.9,86,1.15,86,1.15,77.94,6,55.1,22.85,55.1,22.85,13.25,55.48,0,98.21,0,98.21L7.41,100c4.45-25.21,13.13-25.9,13.13-25.9,8.26,4.23,17.85,2.5,17.85,2.5L53.56,65.85c-11.13,1.34-13.82-5.76-13.82-5.76L60.8,58.48c6.71-5.18,11.86-16.31,11.86-16.31-6,2.3-14.83-7.41-14.83-7.41C66.09,35.33,79.64,33.34,79.64,33.34Z"/><path class="cls-1" d="M79.09.18c-3.9-1.95-42.92,12.68-45.84,15.6-1,2.93,0,8.78,0,8.78L27.4,19.69S6.91,37.24,6.91,54.8l1.95,9.75S39.1,18.71,79.09.18Z"/></g></g></g></svg>