<svg xmlns="http://www.w3.org/2000/svg" viewBox="0 0 100 64.27"><defs><style>.cls-1{fill:#fff;}</style></defs><g id="Слой_2" data-name="Слой 2"><g id="icons"><g id="Petals"><path class="cls-1" d="M71.06,45.16C61,57.47,50.28,65.35,47.09,62.75s2.38-14.7,12.42-27a63.78,63.78,0,0,1,24-17.59A64,64,0,0,1,71.06,45.16Z"/><path class="cls-1" d="M76.26,58.16c-14.68,6.08-27.86,7.93-29.44,4.13S55.88,50.48,70.56,44.4A63.86,63.86,0,0,1,100,40.27,63.77,63.77,0,0,1,76.26,58.16Z"/><path class="cls-1" d="M28.94,45.16C39,57.47,49.72,65.35,52.91,62.75s-2.38-14.7-12.42-27a63.78,63.78,0,0,0-24-17.59A64,64,0,0,0,28.94,45.16Z"/><path class="cls-1" d="M23.74,58.16c14.68,6.08,27.86,7.93,29.44,4.13S44.12,50.48,29.44,44.4A63.86,63.86,0,0,0,0,40.27,63.77,63.77,0,0,0,23.74,58.16Z"/><polygon class="cls-1" points="49.67 28.09 39.96 14.05 49.67 0 59.37 14.05 49.67 28.09"/></g></g></g></svg>