<svg xmlns="http://www.w3.org/2000/svg" viewBox="0 0 96.35 100"><defs><style>.cls-1{fill:#fff;}</style></defs><g id="Слой_2" data-name="Слой 2"><g id="icons"><g id="Pisces_Skeleton"><rect class="cls-1" x="49.38" y="12.89" width="7.53" height="64.97" transform="translate(44.43 -23.96) rotate(42.34)"/><path class="cls-1" d="M30.52,67.55C29.24,66.23,18.6,56.24.3,70.29a.76.76,0,0,0,.4,1.36c3.46.23,10.8,1.1,16.87,4.37,6.93,3.73,12.57-4.31,14.22-7a.75.75,0,0,0-.44-1.11l-.5-.14A.7.7,0,0,1,30.52,67.55Z"/><path class="cls-1" d="M32.44,69.3c1.43,1.15,12.36,10.82.07,30.34a.76.76,0,0,1-1.39-.27C30.57,96,29,88.72,25.2,83c-4.35-6.55,3.13-12.91,5.68-14.8A.74.74,0,0,1,32,68.5l.19.49A.7.7,0,0,0,32.44,69.3Z"/><path class="cls-1" d="M71.85,54.2a3.84,3.84,0,0,1-1.19-2.27c-3.43-24.88-24.31-23.47-25.19-23.4A3.77,3.77,0,1,1,44.86,21c.28,0,28.87-2,33.26,29.88a3.77,3.77,0,0,1-6.27,3.3Z"/><path class="cls-1" d="M57.62,62.83a3.71,3.71,0,0,1-1.19-2.27C54,42.92,39.78,43.39,38.17,43.51A3.77,3.77,0,0,1,37.58,36c7.89-.64,23.54,3.45,26.31,23.53a3.77,3.77,0,0,1-6.27,3.3Z"/><path class="cls-1" d="M45.9,68.71,31.28,55.39a3.77,3.77,0,0,1,5.07-5.57L51,63.14a3.77,3.77,0,1,1-5.07,5.57Z"/><path class="cls-1" d="M90.88,4C74.66-6.2,53,6.39,53,6.39L72.49,24.15,92,41.91S102.5,19.17,90.88,4ZM84.59,13.8H78.77v5.83H74.41V13.8H68.59V9.44h5.82V3.62h4.36V9.44h5.82Z"/></g></g></g></svg>