<svg xmlns="http://www.w3.org/2000/svg" viewBox="0 0 100 86.75"><defs><style>.cls-1{fill:#fff;}</style></defs><g id="Слой_2" data-name="Слой 2"><g id="icons"><g id="Pistol"><path class="cls-1" d="M71,8.24S71,1.71,80.89,0a2.28,2.28,0,0,1,2.66,2.24V9.46H71.72Z"/><path class="cls-1" d="M90.14,7.2H5.07A4.16,4.16,0,0,0,.92,11.34V31.58a4.17,4.17,0,0,0,4.15,4.15H90.14a4.16,4.16,0,0,0,4.14-4.15V11.34A4.15,4.15,0,0,0,90.14,7.2ZM65.2,14.45A2.58,2.58,0,0,1,62.62,17H43.08a2.58,2.58,0,0,1-2.58-2.57v-.59a2.58,2.58,0,0,1,2.58-2.57H62.62a2.58,2.58,0,0,1,2.58,2.57Z"/><path class="cls-1" d="M51.39,42.64A47.09,47.09,0,0,0,46.73,49a3.33,3.33,0,0,1-2.84,1.59h-9.6a19.05,19.05,0,0,0,.88-7.9H8.11c1.38,3.2,2.37,9.34-2.74,18.89-8,15-4.69,25.22-4.69,25.22h23a5,5,0,0,0,4.79-6.46C27,75.65,26.1,69.2,28.85,63.36c1-2.16,2-4.2,2.86-6.15h16.1a3.34,3.34,0,0,0,3-1.93c0-.08,3.71-7.86,10.36-12.64Z"/><rect class="cls-1" x="86.66" y="15.96" width="13.34" height="11.44" rx="2.75"/></g></g></g></svg>