<svg xmlns="http://www.w3.org/2000/svg" viewBox="0 0 100 99.65"><defs><style>.cls-1{fill:#fff;}</style></defs><g id="Слой_2" data-name="Слой 2"><g id="icons"><path id="Plane" class="cls-1" d="M82,32.44,95.52,18.89c4-4,6.43-12.72,2.41-16.74h0c-4-4-13-1.89-17,2.13L66.68,18.5a10.58,10.58,0,0,0-1.18,1.42,2.41,2.41,0,0,1-2,.58Q45.14,17.24,26.81,14c-2.15-.39-4.4-.89-6.25.49a42.33,42.33,0,0,0-5.29,5,1.8,1.8,0,0,0,.46,2.58,7.63,7.63,0,0,0,1.2.72L44.47,37.11a9,9,0,0,1,1.14.64c1.13.81,1.17,1.45.19,2.43-1.17,1.17-2.37,2.32-3.55,3.49q-6.55,6.51-13.11,13a4.51,4.51,0,0,1-3.78,1.5c-3.76-.43-7.53-.82-11.26-1.42a8.71,8.71,0,0,0-8.42,2.94c-1.3,1.43-2.75,2.74-4.1,4.13C1,64.46.53,65.15,0,65.8v1.32a3.46,3.46,0,0,0,2.57,1.73q10.14,2.34,20.24,4.84a4.61,4.61,0,0,1,3.49,3.57C27.89,84.1,29.4,91,31,97.81a2.89,2.89,0,0,0,1.28,1.57A2.11,2.11,0,0,0,35,98.85c2.06-2,4.14-4,6.1-6.12A7.12,7.12,0,0,0,43,87c-.17-1.71-.43-3.41-.63-5.12q-.45-3.58-.87-7.17a3.58,3.58,0,0,1,1.25-3.35c1-.9,2-1.93,2.94-2.9L59.86,54.41c1.18-1.17,1.68-1.08,2.44.39Q63.64,57.38,65,60q6,11.52,12,23c1,1.94,2.4,2.15,4,.62,1-1,2-2,3-3a9.79,9.79,0,0,0,1.34-1.91c1-1.88.69-3.86.34-5.85-2.07-11.79-4.1-23.59-6.18-35.38a3.61,3.61,0,0,1,1-3.39C81,33.55,81.46,33,82,32.44Z"/></g></g></svg>