<svg xmlns="http://www.w3.org/2000/svg" viewBox="0 0 100 75.11"><defs><style>.cls-1{fill:#fff;}</style></defs><g id="Слой_2" data-name="Слой 2"><g id="icons"><g id="Planet"><path class="cls-1" d="M98.82,5.2C93.35-3.16,64,2.14,37.07,19.79s-41.39,41-35.92,49.33S36.49,73,63.46,55.32,104.29,13.56,98.82,5.2ZM54.48,44.38C33.6,58.05,13.7,64.6,10,59s10.31-21.2,31.19-34.87S82,3.92,85.67,9.51,75.36,30.71,54.48,44.38Z"/><path class="cls-1" d="M50.93,38.8c13.66-8.95,24.36-18.73,29.1-26A37.54,37.54,0,0,0,18.28,54.48C26.78,52.37,38.68,46.81,50.93,38.8Z"/><path class="cls-1" d="M66.5,60.4a123.38,123.38,0,0,1-26,13A37.53,37.53,0,0,0,89.17,41.07,114.54,114.54,0,0,1,66.5,60.4Z"/></g></g></g></svg>