<svg xmlns="http://www.w3.org/2000/svg" viewBox="0 0 68.93 100"><defs><style>.cls-1{fill:#fff;}</style></defs><g id="Слой_2" data-name="Слой 2"><g id="icons"><g id="Poison_1"><rect class="cls-1" x="13.58" width="43" height="13.15" rx="2"/><path class="cls-1" d="M35,51.65c-.9,0-1.64,2.81-1.64,3.71a1.64,1.64,0,0,0,3.28,0C36.59,54.46,35.85,51.65,35,51.65Z"/><path class="cls-1" d="M43.08,47.05l-5.26,2.8a3.38,3.38,0,1,0,5.26-2.8Z"/><path class="cls-1" d="M25.64,49.85a3.38,3.38,0,1,0,6.75,0l-5.26-2.8A3.38,3.38,0,0,0,25.64,49.85Z"/><path class="cls-1" d="M61.46,26.43H59.71A7.47,7.47,0,0,1,53.44,23l-2.13-4.3H18.56l-2.5,4.71a7.46,7.46,0,0,1-6,3H7.47A7.46,7.46,0,0,0,0,33.9V92.53A7.46,7.46,0,0,0,7.47,100h54a7.46,7.46,0,0,0,7.47-7.47V33.9A7.46,7.46,0,0,0,61.46,26.43ZM21.11,45.85a13.84,13.84,0,1,1,27,4.2A5.42,5.42,0,0,1,42.46,59l-.88,2.12c-.83,2-2.95,3.42-4.26,1.45H37.2a2.45,2.45,0,0,1-4.83.07c-1.87,2.06-3.6.4-4.38-1.72L27.3,59a5.35,5.35,0,0,1-1.66.27,5.42,5.42,0,0,1-3.87-9.22A13.88,13.88,0,0,1,21.11,45.85Zm-.45,40.27c-.93.41-.8.71-.73.87a3.54,3.54,0,1,1-6.1-.64,3.53,3.53,0,1,1,3.67-4.92c.07.16.2.47,1.13.06L24.26,79l6.31,2.76Zm37.26-1.85a3.53,3.53,0,0,1-2.82,2.08A3.53,3.53,0,1,1,49,87c.07-.16.2-.46-.72-.87l-29.65-13c-.93-.4-1.06-.1-1.13.06a3.54,3.54,0,1,1-3.67-4.92,3.53,3.53,0,1,1,6.1-.64c-.07.16-.2.46.73.87l29.64,13c.93.41,1.06.1,1.13-.06a3.54,3.54,0,0,1,6.49,2.84ZM56.1,75a3.54,3.54,0,0,1-4.67-1.82c-.07-.16-.2-.46-1.13-.06L43.7,76l-6.31-2.76,10.89-4.77c.92-.41.79-.71.72-.87a3.54,3.54,0,1,1,6.1.64,3.53,3.53,0,0,1,1,6.74Z"/><rect class="cls-1" x="16.68" y="6.55" width="5.62" height="18.72" rx="2.72"/><rect class="cls-1" x="47.57" y="6.55" width="5.62" height="18.72" rx="2.72"/></g></g></g></svg>