<svg xmlns="http://www.w3.org/2000/svg" viewBox="0 0 84.35 100"><defs><style>.cls-1{fill:#fff;}</style></defs><g id="Слой_2" data-name="Слой 2"><g id="icons"><g id="Poison_2"><path class="cls-1" d="M39,72.46a4.32,4.32,0,0,0-.55-5.76,5.49,5.49,0,0,0-3.89-1.37c-4.81,0-4.81,3.53-4.81,3.53V69c0,1.43,0,5.24,5.13,5.24A4.84,4.84,0,0,0,39,72.46Z"/><path class="cls-1" d="M44,77.64a2.29,2.29,0,0,0-.65-.74,2,2,0,0,0-.82-.33h-.09l-.25,0-.23,0h-.1a2.15,2.15,0,0,0-.82.33,2.11,2.11,0,0,0-.63.74l-2.3,3.22a2,2,0,0,0,3.31,2.37l.77-1.09L43,83.23a2,2,0,0,0,3.31-2.37Z"/><path class="cls-1" d="M49.78,65.33a5.49,5.49,0,0,0-3.89,1.37,4.32,4.32,0,0,0-.55,5.76,4.83,4.83,0,0,0,4.11,1.79c5.14,0,5.14-3.81,5.14-5.24v-.15S54.59,65.33,49.78,65.33Z"/><path class="cls-1" d="M56.17,36.16A2.84,2.84,0,0,1,56,31.31l4.85-2.48a8.57,8.57,0,0,0,4.69-7.65V17.4s-6.78,7.05-23.35,7.05-23.34-7-23.34-7v3.78a8.57,8.57,0,0,0,4.69,7.65l4.86,2.48a2.84,2.84,0,0,1-.19,4.85C19.42,41,0,53.62,0,69.37,0,82.89,18.64,92.75,31.13,97.84a29.32,29.32,0,0,0,22.09,0c12.5-5.09,31.13-15,31.13-28.47C84.35,53.62,64.93,41,56.17,36.16Zm5.51,39c0,2.62-3.37,4.5-5.63,4.5s-2.25,1.5-2.25,1.5V86c0,2.62-11.63,2.8-11.63,2.8S30.55,88.65,30.55,86V81.15s0-1.5-2.25-1.5-5.62-1.88-5.62-4.5V63.1S25.3,46.65,42.17,46.65,61.68,63.1,61.68,63.1Z"/><path class="cls-1" d="M42.17,18c9.71,0,14.23-2.59,16.3-4.66a5.26,5.26,0,0,0,1.36-5C57.49-.75,42.17,0,42.17,0S26.85-.75,24.52,8.38a5.26,5.26,0,0,0,1.36,5C28,15.43,32.47,18,42.17,18Z"/></g></g></g></svg>