<svg xmlns="http://www.w3.org/2000/svg" viewBox="0 0 100 100"><defs><style>.cls-1{fill:#fff;}</style></defs><g id="Слой_2" data-name="Слой 2"><g id="icons"><g id="Pokeball"><path class="cls-1" d="M91.43,57.84a42.17,42.17,0,0,1-82.86,0H.62a50,50,0,0,0,98.76,0Z"/><path class="cls-1" d="M50,76.47A26.47,26.47,0,1,1,76.47,50,26.49,26.49,0,0,1,50,76.47Zm0-45.1A18.63,18.63,0,1,0,68.63,50,18.65,18.65,0,0,0,50,31.37Z"/><circle class="cls-1" cx="50" cy="50" r="9.8"/><path class="cls-1" d="M50,0A50,50,0,0,0,0,50H27.45a22.55,22.55,0,0,1,45.1,0H100A50,50,0,0,0,50,0Z"/></g></g></g></svg>