<svg xmlns="http://www.w3.org/2000/svg" viewBox="0 0 82.19 100"><defs><style>.cls-1{fill:#fff;}</style></defs><g id="Слой_2" data-name="Слой 2"><g id="icons"><g id="Potion_2"><path class="cls-1" d="M75.65,26.63,53.08,10.07.92,81.44h0a4.53,4.53,0,0,0,.87,6.34l14.94,11.3a4.52,4.52,0,0,0,6.38-.93ZM54.78,21.15l9.79,7.18L20.62,88.5a2.8,2.8,0,0,1-4,.58l-5.21-3.94a2.8,2.8,0,0,1-.57-3.89Z"/><rect class="cls-1" x="45.75" y="15.32" width="35.36" height="8.6" rx="3.92" transform="translate(23.89 -33.72) rotate(36.27)"/><path class="cls-1" d="M65.1,25.93l-7.61-6L63.43,1A1.41,1.41,0,0,1,65.61.27L81.61,12a1.41,1.41,0,0,1,0,2.29Z"/><path class="cls-1" d="M41.68,54.67,20.88,83.86a3.55,3.55,0,0,1-5,.8h0a3.55,3.55,0,0,1-.76-5l17-23.2Z"/></g></g></g></svg>