<svg xmlns="http://www.w3.org/2000/svg" viewBox="0 0 87.42 100"><defs><style>.cls-1{fill:#fff;}</style></defs><g id="Слой_2" data-name="Слой 2"><g id="icons"><g id="Potion_1"><path class="cls-1" d="M65.3,41.55a35.46,35.46,0,0,0-3-3.46l-4.21,5.73c.59.63,1.14,1.29,1.67,2A29.38,29.38,0,1,1,47.1,36.26c.82.33,1.63.69,2.43,1.1l4.18-5.7a35.61,35.61,0,0,0-4.05-1.91A36.38,36.38,0,1,0,65.3,41.55Z"/><path class="cls-1" d="M11.49,64h0a24.49,24.49,0,0,0,49,0H11.49Z"/><polygon class="cls-1" points="63.97 47.61 58.33 43.47 71.88 25 63.24 18.66 49.65 37.19 44.01 33.05 61.74 8.88 81.66 23.5 63.97 47.61"/><polygon class="cls-1" points="63.97 47.61 58.33 43.47 71.88 25 63.24 18.66 49.65 37.19 44.01 33.05 61.74 8.88 81.66 23.5 63.97 47.61"/><rect class="cls-1" x="55.28" y="13.52" width="31.2" height="7.59" rx="3.79" transform="translate(23.97 -38.57) rotate(36.27)"/><path class="cls-1" d="M72.34,22.88l-6.71-5.31L70.87.87A1.25,1.25,0,0,1,72.79.24L86.91,10.6a1.24,1.24,0,0,1,0,2Z"/></g></g></g></svg>