<svg xmlns="http://www.w3.org/2000/svg" viewBox="0 0 100 100"><defs><style>.cls-1{fill:#fff;}</style></defs><g id="Слой_2" data-name="Слой 2"><g id="icons"><g id="Printer"><path class="cls-1" d="M23.87,0h50a2.28,2.28,0,0,1,2.28,2.28v25a0,0,0,0,1,0,0H21.59a0,0,0,0,1,0,0v-25A2.28,2.28,0,0,1,23.87,0Z"/><polygon class="cls-1" points="20.45 100 27.04 76.14 75.23 76.14 81.82 100 20.45 100"/><path class="cls-1" d="M93.38,35.23H6.62A6.62,6.62,0,0,0,0,41.85V76.14H18.18V69.32H83v6.82h17V41.85A6.62,6.62,0,0,0,93.38,35.23Zm-7,18.18a4.55,4.55,0,1,1,4.55-4.55A4.55,4.55,0,0,1,86.36,53.41Z"/></g></g></g></svg>