<svg xmlns="http://www.w3.org/2000/svg" viewBox="0 0 82.41 100"><defs><style>.cls-1{fill:#fff;}</style></defs><g id="Слой_2" data-name="Слой 2"><g id="icons"><g id="Profile_Pluse"><circle class="cls-1" cx="37.02" cy="33.45" r="27.73"/><circle class="cls-1" cx="63.56" cy="39.4" r="5.95"/><circle class="cls-1" cx="10.46" cy="39.4" r="5.95"/><path class="cls-1" d="M10.6,35.19s0-23.93,17.69-32.26c20.33-9.56,22.6,7.16,31.17,9.2,4.93,1.18,8-.44,9.83-2.26A1.58,1.58,0,0,1,72,11c.12,5.21-.94,13.53-8.28,17.2C52.6,33.7,25.86,24,10.6,35.19Z"/><path class="cls-1" d="M58.47,16.46s6.24-2.08,6.24-7.28A8.69,8.69,0,0,0,59.29,1a1.92,1.92,0,0,0-2.73,1.89c.3,2.69-1.73,5.78-14.74,3.17C23.42,2.38,51.19,23.75,58.47,16.46Z"/><path class="cls-1" d="M37.66,84.11a23.84,23.84,0,0,1,5.55-15.33,27.54,27.54,0,0,1-23.8-5.59A21.74,21.74,0,0,0,0,84.74V95.48A4.53,4.53,0,0,0,4.52,100H43.7A23.83,23.83,0,0,1,37.66,84.11Z"/><rect class="cls-1" x="59.87" y="62.81" width="8.72" height="36.35" rx="2.72"/><rect class="cls-1" x="59.87" y="62.81" width="8.72" height="36.35" rx="2.72" transform="translate(145.22 16.76) rotate(90)"/><path class="cls-1" d="M22.68,14.47s-4.8-2.17-9,.95S7.48,33.11,10.39,39.36C12.23,43.29,22.68,14.47,22.68,14.47Z"/></g></g></g></svg>