<svg xmlns="http://www.w3.org/2000/svg" viewBox="0 0 100 100"><defs><style>.cls-1{fill:#fff;}</style></defs><g id="Слой_2" data-name="Слой 2"><g id="icons"><g id="Profile_2"><path class="cls-1" d="M50.23,52.52a9,9,0,0,0,9-9H41.29A9,9,0,0,0,50.23,52.52Z"/><path class="cls-1" d="M87.76,0H12.24A12.28,12.28,0,0,0,0,12.24V87.76A12.28,12.28,0,0,0,12.24,100H87.76A12.28,12.28,0,0,0,100,87.76V12.24A12.28,12.28,0,0,0,87.76,0ZM32,39.36c-.33-4.6,1-10.56,3.07-12.14a5.55,5.55,0,0,1,1.76-.87,18.23,18.23,0,0,1,8-7.46c9.16-4.31,12.83-.62,16,2.65,2.51-.33,3-1.56,2.86-2.68a1.28,1.28,0,0,1,1.83-1.26,5.79,5.79,0,0,1,3.62,5.46,4.2,4.2,0,0,1-.63,2.19,6,6,0,0,0,3.68-1.73,1.06,1.06,0,0,1,1.8.72c.08,3.4-.6,8.76-5.2,11.29a19.08,19.08,0,0,1,.37,3.72v.08a4,4,0,0,1-.79,7.86,3.83,3.83,0,0,1-1-.13,18.47,18.47,0,0,1-33.5,0A4,4,0,1,1,32,39.36ZM75.05,80.64a3,3,0,0,1-3,3H28.89a3,3,0,0,1-3-3V73.47a14.5,14.5,0,0,1,13-14.37,18.5,18.5,0,0,0,23.46,0A14.5,14.5,0,0,1,75.05,73.47Z"/></g></g></g></svg>