<svg xmlns="http://www.w3.org/2000/svg" viewBox="0 0 100 100"><defs><style>.cls-1{fill:#fff;}</style></defs><g id="Слой_2" data-name="Слой 2"><g id="icons"><g id="Prohibited_2"><path class="cls-1" d="M50,100a50,50,0,1,1,50-50A50.06,50.06,0,0,1,50,100Zm0-87.8A37.8,37.8,0,1,0,87.8,50,37.83,37.83,0,0,0,50,12.2Z"/><path class="cls-1" d="M36.22,76.21,77,35.42a38.27,38.27,0,0,0-10.43-12L24,66A37.9,37.9,0,0,0,36.22,76.21Z"/><path class="cls-1" d="M15.3,74.71l-1.63,1.62a38.07,38.07,0,0,0,12,10.43l1.62-1.62A50.48,50.48,0,0,1,15.3,74.71Z"/></g></g></g></svg>