<svg xmlns="http://www.w3.org/2000/svg" viewBox="0 0 94.74 100"><defs><style>.cls-1{fill:#fff;}</style></defs><g id="Слой_2" data-name="Слой 2"><g id="icons"><g id="Pumpkin"><path class="cls-1" d="M44,23.24a18.23,18.23,0,0,1-1.62-11.7C43.25,8,45.54,6.1,49.19,6a13.69,13.69,0,0,1,3.26.27,9.92,9.92,0,0,0-2.26,1.12,8.22,8.22,0,0,0-3.75,7.81,8.33,8.33,0,0,0,5.14,7c6.75,2.7,10.41-.06,11.67-1.37a9.53,9.53,0,0,0,2.45-7.39,63.07,63.07,0,0,1,8.53,4,3,3,0,1,0,2.9-5.24A57.75,57.75,0,0,0,63,6.29C60.41,2.79,55.74-.18,49,0c-6.38.18-10.92,3.87-12.45,10.1a23.93,23.93,0,0,0,1.78,15.1A10.69,10.69,0,0,1,44,23.24Zm9.5-10.87a6.62,6.62,0,0,1,3.64-.85,14.68,14.68,0,0,1,2.1.14c.76,1.94.66,4-.28,5s-2.77.91-5.14,0a2.38,2.38,0,0,1-1.42-2A2.24,2.24,0,0,1,53.49,12.37Z"/><path class="cls-1" d="M69.26,25.17c-4.63,0-8.85,3.39-12.09,9-3.05-4.36-6.79-6.93-10.84-6.93-3.58,0-6.91,2-9.73,5.51-3.12-4.69-7-7.48-11.22-7.47C15.19,25.26,0,33.1,0,53.21S15.31,98.06,25.5,98a11.51,11.51,0,0,0,7.68-3.32c2.74,3.36,6.91,5.29,13.27,5.28,6.82,0,11.11-2.52,13.82-6.76,2.69,3,5.8,4.73,9.11,4.73,10.19,0,25.39-24.82,25.36-44.92S79.45,25.15,69.26,25.17Zm-2,12.23s5.74,6.12.77,11.13c-4.09,4.12-15,1.75-15,1.75Zm-40.37.07L41.19,50.3s-10.88,2.41-15-1.71C21.22,43.6,26.94,37.47,26.94,37.47ZM59.2,82l-5.9-10-5.86,9.07L43,73l-8.81,8.17L21,63.05l14.7,3.61L43,62.11l5.89,5.43,8.81-5.45,4.41,4.52L76.8,63.87Z"/></g></g></g></svg>