<svg xmlns="http://www.w3.org/2000/svg" viewBox="0 0 80.63 100.05"><defs><style>.cls-1{fill:#fff;}</style></defs><g id="Слой_2" data-name="Слой 2"><g id="icons"><g id="Push_Pin"><rect class="cls-1" x="-1.2" y="8.31" width="64.34" height="27.19" rx="12" transform="translate(-6.33 15.02) rotate(-24.82)"/><polygon class="cls-1" points="26.9 61.75 65.48 43.91 80.63 47.72 20.5 75.65 26.9 61.75"/><path class="cls-1" d="M66.77,54.28,33.28,69.77A56.79,56.79,0,0,0,17.68,36L51.17,20.56A80.2,80.2,0,0,0,66.77,54.28Z"/><path class="cls-1" d="M66.84,97.34l.27,2.71-1.9-2a70.37,70.37,0,0,1-13.38-19.5l-3.59-7.75,8.83-4.09,3.58,7.76A70.27,70.27,0,0,1,66.84,97.34Z"/></g></g></g></svg>