<svg xmlns="http://www.w3.org/2000/svg" viewBox="0 0 100 99.96"><defs><style>.cls-1{fill:#fff;}</style></defs><g id="Слой_2" data-name="Слой 2"><g id="icons"><g id="Puzzle"><path class="cls-1" d="M64.06,79.36a10.39,10.39,0,1,1,17.69-7.55L99,54.33a3.33,3.33,0,0,0,0-4.71L49.81,1A3.33,3.33,0,0,0,45.1,1L27.82,18.47A10.39,10.39,0,1,1,17.39,29L1.56,45a5.42,5.42,0,0,0,.05,7.66L47.84,98.39a5.41,5.41,0,0,0,7.66,0l15.82-16A10.33,10.33,0,0,1,64.06,79.36Z"/><circle class="cls-1" cx="19.61" cy="80.7" r="10.39"/><circle class="cls-1" cx="80.26" cy="19.38" r="10.39"/></g></g></g></svg>