<svg xmlns="http://www.w3.org/2000/svg" viewBox="0 0 62.84 100"><defs><style>.cls-1{fill:#fff;}</style></defs><g id="Слой_2" data-name="Слой 2"><g id="icons"><g id="Question"><path class="cls-1" d="M51.26,52.45c-4.23,4.5-7.08,7-9.13,10.09-2.29,3.74-2.66,5.45-2.71,9.29a1.63,1.63,0,0,1-1.62,1.61H21.44a1.63,1.63,0,0,1-1.62-1.71A34.2,34.2,0,0,1,24,56.27c3.41-7,7.36-7.9,14.58-15.54,3.67-4.09,4.63-7.76,4.63-12.53a10.49,10.49,0,0,0-1.77-6.53c-2.18-3-6-4.23-10.08-4.23-3.14,0-6.27.68-8.31,2.32a9.14,9.14,0,0,0-3.65,6.92A1.63,1.63,0,0,1,17.8,28.2H1.62A1.62,1.62,0,0,1,0,26.3C1.47,17.41,6,9.64,12.57,5.31A33.47,33.47,0,0,1,30.55,0c10.36,0,20,3,26,10.36a27.51,27.51,0,0,1,6.27,17.3C62.84,37.6,57.79,45.5,51.26,52.45ZM21.54,80.38H37.79A1.62,1.62,0,0,1,39.41,82V98.38A1.62,1.62,0,0,1,37.79,100H21.54a1.61,1.61,0,0,1-1.61-1.62V82A1.61,1.61,0,0,1,21.54,80.38Z"/></g></g></g></svg>