<svg xmlns="http://www.w3.org/2000/svg" viewBox="0 0 100 85.92"><defs><style>.cls-1{fill:#fff;}</style></defs><g id="Слой_2" data-name="Слой 2"><g id="icons"><g id="Rating"><path class="cls-1" d="M33.33,0V85.92H66.67V0ZM56.86,53.54H44.17V49.85h4.47V25.18H44.17v-3.7H52.4V49.85h4.46Z"/><path class="cls-1" d="M0,29.41V85.92H33.33V29.41ZM23.78,56.67q0,4.45-4.4,7.62-4.86,3.46-4.86,6.22v2.58h9.26v3.83H10.63V70.09c0-2.91,1.46-5.41,4.38-7.52,3.24-2.29,4.86-4.3,4.87-6V49.83q0-2.85-2.64-2.85h0c-1.78,0-2.68,1-2.68,2.85v4.06H10.63V49.83q0-6.69,6.57-6.69t6.58,6.69Z"/><path class="cls-1" d="M66.67,44.12v41.8H100V44.12ZM89.21,59a5.48,5.48,0,0,1-3.29,5.13c2.19,1.12,3.29,2.7,3.29,4.72v5.6q0,6.6-6.49,6.61t-6.53-6.61V70.38h3.86v4.06c0,1.86.89,2.8,2.67,2.8s2.63-.94,2.63-2.8V68.76c0-1.77-1-2.7-2.88-2.8H80.61V62.15H82.5a3,3,0,0,0,2.85-3.22V53.67c0-1.87-.87-2.81-2.63-2.81s-2.67.94-2.67,2.81v4.06H76.19V53.67q0-6.6,6.53-6.61t6.49,6.61Z"/></g></g></g></svg>