<svg xmlns="http://www.w3.org/2000/svg" viewBox="0 0 100 100"><defs><style>.cls-1{fill:#fff;}</style></defs><g id="Слой_2" data-name="Слой 2"><g id="icons"><g id="Reduce"><path class="cls-1" d="M79.41,50,97.19,67.21A1.66,1.66,0,0,0,100,66V34a1.66,1.66,0,0,0-2.81-1.19Z"/><path class="cls-1" d="M20.59,50,2.81,67.21A1.66,1.66,0,0,1,0,66V34a1.66,1.66,0,0,1,2.81-1.19Z"/><path class="cls-1" d="M50.49,20.59,67.7,2.81A1.66,1.66,0,0,0,66.51,0h-32a1.66,1.66,0,0,0-1.19,2.81Z"/><path class="cls-1" d="M50.49,79.41,67.7,97.19A1.66,1.66,0,0,1,66.51,100h-32a1.66,1.66,0,0,1-1.19-2.81Z"/><path class="cls-1" d="M65.69,50l7.84-7.59V29.21a2.74,2.74,0,0,0-2.74-2.74H57.59L50,34.31l-7.59-7.84H29.21a2.74,2.74,0,0,0-2.74,2.74v13.2L34.31,50l-7.84,7.59v13.2a2.74,2.74,0,0,0,2.74,2.74h13.2L50,65.69l7.59,7.84h13.2a2.74,2.74,0,0,0,2.74-2.74V57.59Z"/></g></g></g></svg>