<svg xmlns="http://www.w3.org/2000/svg" viewBox="0 0 98.6 100"><defs><style>.cls-1{fill:#fff;}</style></defs><g id="Слой_2" data-name="Слой 2"><g id="icons"><g id="Restart"><path class="cls-1" d="M12.11,20.75a2.54,2.54,0,0,0-3.3.79A49.94,49.94,0,0,0,.52,42.65,51.76,51.76,0,0,0,0,51.41,50.08,50.08,0,0,0,77.14,92.06S53.23,76.76,44.19,72.37a10.19,10.19,0,0,0-3.94-1c-.24,0-.41,0-.39,0,2.76,9.87-5.84,16-14.48,10.48-9.79-6.22-19.89-26-4.21-53.24a2.52,2.52,0,0,0-1-3.46Z"/><path class="cls-1" d="M86.49,79.25a2.54,2.54,0,0,0,3.3-.79,49.94,49.94,0,0,0,8.29-21.11,50.75,50.75,0,0,0,.5-8.76A50.08,50.08,0,0,0,21.46,7.94s23.91,15.3,32.95,19.69a10.23,10.23,0,0,0,3.94,1c.24,0,.41,0,.4,0-2.77-9.87,5.83-16,14.48-10.48,9.78,6.22,19.88,26,4.21,53.24a2.51,2.51,0,0,0,1,3.46Z"/></g></g></g></svg>