<svg xmlns="http://www.w3.org/2000/svg" viewBox="0 0 84.19 100"><defs><style>.cls-1{fill:#fff;}</style></defs><g id="Слой_2" data-name="Слой 2"><g id="icons"><g id="Right_Left_Arrows"><polygon class="cls-1" points="72.8 34.6 4.9 29 6.73 6.86 74.62 12.46 84.19 24.43 72.8 34.6"/><polygon class="cls-1" points="11.39 73.81 79.29 68.22 77.46 46.08 9.57 51.67 0 63.65 11.39 73.81"/><path class="cls-1" d="M45.91,13V4.41A4.42,4.42,0,0,0,41.49,0h0a4.42,4.42,0,0,0-4.41,4.41V12.3Z"/><polygon class="cls-1" points="45.91 54.56 45.91 39.24 37.08 38.52 37.08 55.29 45.91 54.56"/><polygon class="cls-1" points="37.08 77.58 37.08 100 45.91 100 45.91 76.85 37.08 77.58"/></g></g></g></svg>