<svg xmlns="http://www.w3.org/2000/svg" viewBox="0 0 81.36 100"><defs><style>.cls-1{fill:#fff;}</style></defs><g id="Слой_2" data-name="Слой 2"><g id="icons"><g id="Ring"><path class="cls-1" d="M40.68,100a40.69,40.69,0,0,1-20.8-75.65l4.52,7.58a31.86,31.86,0,1,0,32.34-.13l4.46-7.61A40.68,40.68,0,0,1,40.68,100Z"/><path class="cls-1" d="M22.79,32.77l-4.56-6.5a2.7,2.7,0,0,1,.66-3.75l.52-.36,7.85,10.77-.75.51A2.68,2.68,0,0,1,22.79,32.77Z"/><path class="cls-1" d="M59.38,32.82l4.56-6.5a2.7,2.7,0,0,0-.66-3.75l-.52-.36L54.91,33l.75.51A2.69,2.69,0,0,0,59.38,32.82Z"/><polygon class="cls-1" points="59.48 6.33 54.28 0 27.44 0 22.71 6.33 59.48 6.33"/><polygon class="cls-1" points="22 10.77 37.14 31.55 41.1 33.52 45.15 31.55 60.28 10.77 22 10.77"/></g></g></g></svg>