<svg xmlns="http://www.w3.org/2000/svg" viewBox="0 0 98.81 100"><defs><style>.cls-1{fill:#fff;}</style></defs><g id="Слой_2" data-name="Слой 2"><g id="icons"><g id="Rocket"><path class="cls-1" d="M28.77,81a10.61,10.61,0,0,1-5.19,9.44,81.67,81.67,0,0,1-9,4.64c-3.92,1.73-7.95,3.21-12,4.77-1.64.63-3-.46-2.58-2.16,1.87-7.46,3.74-15,7.16-21.9a11.12,11.12,0,0,1,12.59-5.84A11.6,11.6,0,0,1,28.77,81Z"/><path class="cls-1" d="M97.67,4.21c-.37-2.09-1-2.71-3-3.11A66.24,66.24,0,0,0,79.84,0,38,38,0,0,0,56.23,8.51a53.06,53.06,0,0,0-11,12.67,1.93,1.93,0,0,1-1.87,1c-5.42-.05-10.85,0-16.28,0a8.47,8.47,0,0,0-7.91,4.63c-3,5.58-5.72,11.25-8.49,16.92a4.07,4.07,0,0,0,2.12,5.87,6.3,6.3,0,0,0,2.16.33c5.23,0,10.47,0,15.7,0H31.9l.17.33c-2.54,2.43-7.1,7.79-7.1,7.79L40.91,74s5.35-4.77,7.85-7.33l.29.13v1.21c0,5.28,0,10.55,0,15.82,0,4.18,3.46,6.08,7.24,3.72A127.47,127.47,0,0,1,70.8,80.34a9.13,9.13,0,0,0,5.79-9c0-5.31,0-10.62,0-15.93a2.05,2.05,0,0,1,1-2c2.32-1.61,4.64-3.25,6.8-5.06C91.15,42.67,95.89,35.68,97.74,27A59.23,59.23,0,0,0,97.67,4.21Zm-19.43,25a9.68,9.68,0,1,1,9.68-9.67A9.67,9.67,0,0,1,78.24,29.22Z"/></g></g></g></svg>