<svg xmlns="http://www.w3.org/2000/svg" viewBox="0 0 89.3 100"><defs><style>.cls-1{fill:#fff;}</style></defs><g id="Слой_2" data-name="Слой 2"><g id="icons"><g id="Rubiks"><path class="cls-1" d="M46,100a6,6,0,0,1-6-6V46.53l3.07-1.09A118.3,118.3,0,0,0,78.74,25.71a5.55,5.55,0,0,1,9,3.52,157.73,157.73,0,0,1-.19,45.67,5.53,5.53,0,0,1-2.25,3.67h0A218.34,218.34,0,0,1,48.53,99.46,6.08,6.08,0,0,1,46,100Zm3.24-47V88.92A204.69,204.69,0,0,0,78.64,72a147.94,147.94,0,0,0,.7-35.08A127.6,127.6,0,0,1,49.27,53Z"/><path class="cls-1" d="M45.17,54.7a5.4,5.4,0,0,1-1.73-.28C28.67,49.44,17.24,43.18,4,32.81A6,6,0,0,1,3.29,24C14.49,12,29.05,5.83,41.9.42a5.51,5.51,0,0,1,4.22,0A152.69,152.69,0,0,1,85.05,24a5.44,5.44,0,0,1-.33,8.62C69.4,43.46,58.17,49.94,47.18,54.31A5.33,5.33,0,0,1,45.17,54.7Zm-1.4-9h0Zm-31.2-18A113.43,113.43,0,0,0,45.05,45.21c8.9-3.68,18.18-9,30.19-17.23A140.67,140.67,0,0,0,44,9.56C33.39,14,21.71,19.17,12.57,27.75Z"/><path class="cls-1" d="M42.51,99.58A6.78,6.78,0,0,1,39.67,99,216.4,216.4,0,0,1,4.45,78.89h0a6.81,6.81,0,0,1-2.77-4.52A157.61,157.61,0,0,1,1.6,29a5.44,5.44,0,0,1,8.81-3.45A118.08,118.08,0,0,0,46.2,45.44l3.07,1.09V92.81a6.77,6.77,0,0,1-6.76,6.77ZM10.66,72A204.69,204.69,0,0,0,40,88.92V53A127.86,127.86,0,0,1,10,36.89,148.46,148.46,0,0,0,10.66,72Z"/><circle class="cls-1" cx="44.51" cy="26.9" r="6.93"/><circle class="cls-1" cx="71.3" cy="53.69" r="4.16"/><circle class="cls-1" cx="60.22" cy="71.24" r="4.16"/><circle class="cls-1" cx="31.58" cy="74.01" r="4.16"/><circle class="cls-1" cx="24.2" cy="62.92" r="4.16"/><circle class="cls-1" cx="17.73" cy="51.84" r="4.16"/></g></g></g></svg>