<svg xmlns="http://www.w3.org/2000/svg" viewBox="0 0 91.1 100"><defs><style>.cls-1{fill:#fff;}</style></defs><g id="Слой_2" data-name="Слой 2"><g id="icons"><g id="Rubik"><path class="cls-1" d="M45.77,57.78A5.17,5.17,0,0,1,44,57.47l-.38-.13L2.49,34l-.28-.23A5.93,5.93,0,0,1,1.66,25l.42-.45L43.31.39a5.36,5.36,0,0,1,4.14,0L48,.75l40.39,25.3.25.21a5.35,5.35,0,0,1-.46,8.46l-.34.22L48,57.31l-.3.11A5.22,5.22,0,0,1,45.77,57.78ZM12,29.13,45.78,48.31,78.16,30.15,45.26,9.54Z"/><ellipse class="cls-1" cx="44.73" cy="27.84" rx="7.63" ry="9.11" transform="matrix(0.13, -0.99, 0.99, 0.13, 11.37, 68.61)"/><path class="cls-1" d="M89.49,29.06l-39.72,22V98.51a1.49,1.49,0,0,0,2.11,1.35L90.5,77.94a1,1,0,0,0,.41-.67L91.1,29.7A1,1,0,0,0,89.49,29.06ZM64.15,82.51c-3,0-5.46-3.11-5.46-6.94s2.45-6.94,5.46-6.94,5.45,3.11,5.45,6.94S67.16,82.51,64.15,82.51ZM79,57.73c-3,0-5.46-3.11-5.46-6.94S76,43.85,79,43.85s5.45,3.11,5.45,6.94S82,57.73,79,57.73Z"/><path class="cls-1" d="M41.35,51.57a1,1,0,0,0-.41-.67L2.31,29a1.48,1.48,0,0,0-2.1,1.35V77.77l39.72,22a1,1,0,0,0,1.61-.64Zm-30.58,3c-2.55,0-4.61-2.63-4.61-5.87s2.06-5.87,4.61-5.87,4.61,2.63,4.61,5.87S13.32,54.6,10.77,54.6Zm8.62,15c-2.55,0-4.62-2.62-4.62-5.87s2.07-5.87,4.62-5.87S24,60.51,24,63.75,21.93,69.62,19.39,69.62ZM29.3,85.49c-2.55,0-4.61-2.63-4.61-5.88s2.06-5.87,4.61-5.87,4.61,2.63,4.61,5.87S31.85,85.49,29.3,85.49Z"/></g></g></g></svg>