<svg xmlns="http://www.w3.org/2000/svg" viewBox="0 0 100 92.77"><defs><style>.cls-1{fill:#fff;}</style></defs><g id="Слой_2" data-name="Слой 2"><g id="icons"><path id="Sad_Face" class="cls-1" d="M96.79,3.33A3.91,3.91,0,0,0,92.91,0H6.9A3.92,3.92,0,0,0,3,3.36,309.26,309.26,0,0,0,3,89.41,3.92,3.92,0,0,0,6.9,92.77h86a3.91,3.91,0,0,0,3.88-3.32A290.42,290.42,0,0,0,96.79,3.33ZM13.84,18.07l5.52-5.53,8.17,8.17L36,12.27,42,18.34,33.6,26.78,41.77,35l-5.53,5.52-8.16-8.16-8.44,8.44-6.08-6.08L22,26.23ZM79.65,73.81c-.11-.07-11.51-8.09-29.76-8.09-18.41,0-29.64,8-29.75,8.09l-4.55-6.25C16.13,67.17,29,58,49.89,58s33.77,9.19,34.3,9.58ZM85.94,35l-5.52,5.52-8.16-8.16-8.44,8.44-6.08-6.08,8.44-8.44L58,18.07l5.52-5.53,8.16,8.17,8.45-8.44,6.07,6.07-8.44,8.44Z"/></g></g></svg>