<svg xmlns="http://www.w3.org/2000/svg" viewBox="0 0 93.18 100"><defs><style>.cls-1{fill:#fff;}</style></defs><g id="Слой_2" data-name="Слой 2"><g id="icons"><path id="Save" class="cls-1" d="M91.35,15,79.28,2.14A6.76,6.76,0,0,0,74.34,0H6.76A6.76,6.76,0,0,0,0,6.76V93.24A6.76,6.76,0,0,0,6.76,100H86.42a6.76,6.76,0,0,0,6.76-6.76V19.65A6.74,6.74,0,0,0,91.35,15ZM79,76.56a3.55,3.55,0,0,1-3.55,3.55H18.89a3.55,3.55,0,0,1-3.55-3.55V47.3a3.55,3.55,0,0,1,3.55-3.55H75.43A3.55,3.55,0,0,1,79,47.3Z"/></g></g></svg>