<svg xmlns="http://www.w3.org/2000/svg" viewBox="0 0 99.76 100"><defs><style>.cls-1{fill:#fff;}</style></defs><g id="Слой_2" data-name="Слой 2"><g id="icons"><path id="Saw" class="cls-1" d="M88,37.52a39.11,39.11,0,0,0-41.36-27C44.05,10.76,48.47,0,48.47,0,28.64,1.38,32.24,14.92,32.24,14.92A39.15,39.15,0,0,0,12.11,43.24c-.47,3-11.88-3.39-11.88-3.39C-2.06,59.07,13.48,61.23,13.48,61.23A39.08,39.08,0,0,0,44.79,88c2.92.45-2.29,12-2.29,12,16.84-.93,20.1-13.36,20.1-13.36A39.11,39.11,0,0,0,89.28,56.07c.48-2.78,10.13,2.31,10.13,2.31C102.14,42.32,88,37.52,88,37.52ZM65.26,63.58a20.86,20.86,0,0,1-17.6,5.76s-4,6-11.68,1.25c0,0,5.3-3.21,4.11-3.91A20.86,20.86,0,0,1,30.93,42S28,34.4,32.66,29.43c0,0,2.52,5.24,3.61,4.2A20.82,20.82,0,0,1,57.38,29s7.6-3.21,12.85.64c0,0-5.88,3.29-4.78,4.4a20.85,20.85,0,0,1,4.93,21.41s4.29,7.35-1.1,13.36C69.28,68.8,66.41,62.46,65.26,63.58Z"/></g></g></svg>