<svg xmlns="http://www.w3.org/2000/svg" viewBox="0 0 97.8 100"><defs><style>.cls-1{fill:#fff;}</style></defs><g id="Слой_2" data-name="Слой 2"><g id="icons"><g id="Scissors"><path class="cls-1" d="M41.77,6.94h0a6.28,6.28,0,0,1,.75,0,7.81,7.81,0,0,1-.72,15.58c-.25,0-.5,0-.75,0a7.81,7.81,0,0,1,.72-15.58m0-6.94A14.75,14.75,0,0,0,40.4,29.43c.47,0,.94.07,1.4.07A14.75,14.75,0,0,0,43.17.07,13.26,13.26,0,0,0,41.77,0Z"/><path class="cls-1" d="M14.73,34.88h0a6.28,6.28,0,0,1,.75,0,7.81,7.81,0,0,1-.71,15.58,6.45,6.45,0,0,1-.76,0,7.81,7.81,0,0,1,.72-15.58m0-6.94a14.75,14.75,0,0,0-1.37,29.43,13.31,13.31,0,0,0,1.41.07A14.75,14.75,0,0,0,16.14,28a13.45,13.45,0,0,0-1.41-.07Z"/><path class="cls-1" d="M53,55.47c0-.23-.05-.46-.09-.78h0l-2-14.1h0l-.35-2.49-.27-1.9h0c-.43-3-.85-6-1.27-8.93l-9.14.28c.65,4.83,1.35,9.65,2,14.48,0,.3.06.61.1.94l-.35,0c-5.11-1.08-10.23-2.14-15.33-3.26L26,49,39,51.7c.07.45.15.89.21,1.32q2.52,17.66,5,35.31a13.05,13.05,0,0,0,6,9.52,13.51,13.51,0,0,0,9.08,2.06l.13-.12a5.08,5.08,0,0,1-.2-.74Z"/><path class="cls-1" d="M97.74,59.74a13.07,13.07,0,0,0-10.67-11.5L58.12,42.13l2,14,36.54,7.7a6.48,6.48,0,0,1,.81.28l.12-.12A29.44,29.44,0,0,0,97.74,59.74Z"/></g></g></g></svg>