<svg xmlns="http://www.w3.org/2000/svg" viewBox="0 0 100 100"><defs><style>.cls-1{fill:#fff;}</style></defs><g id="Слой_2" data-name="Слой 2"><g id="icons"><g id="Scope"><path class="cls-1" d="M50,90.78A40.3,40.3,0,1,1,90.29,50.49,40.34,40.34,0,0,1,50,90.78Zm0-71.85A31.56,31.56,0,1,0,81.55,50.49,31.59,31.59,0,0,0,50,18.93Z"/><path class="cls-1" d="M50,26.21h0a4.12,4.12,0,0,1-4.06-3.44L42.23,0H57.77L54.06,22.77A4.12,4.12,0,0,1,50,26.21Z"/><path class="cls-1" d="M50,73.79h0a4.12,4.12,0,0,1,4.06,3.44L57.77,100H42.23l3.71-22.77A4.12,4.12,0,0,1,50,73.79Z"/><path class="cls-1" d="M73.79,50h0a4.12,4.12,0,0,1,3.44-4.06L100,42.23V57.77L77.23,54.06A4.12,4.12,0,0,1,73.79,50Z"/><path class="cls-1" d="M26.21,50h0a4.12,4.12,0,0,1-3.44,4.06L0,57.77V42.23l22.77,3.71A4.12,4.12,0,0,1,26.21,50Z"/><circle class="cls-1" cx="50" cy="50.49" r="15.53"/></g></g></g></svg>