<svg xmlns="http://www.w3.org/2000/svg" viewBox="0 0 99.92 99.92"><defs><style>.cls-1{fill:#fff;}</style></defs><g id="Слой_2" data-name="Слой 2"><g id="icons"><g id="Settings_2"><path class="cls-1" d="M65.52,21h-21V3.49A3.49,3.49,0,0,1,48,0H62a3.49,3.49,0,0,1,3.49,3.49Z"/><path class="cls-1" d="M0,62V48a3.49,3.49,0,0,1,3.49-3.49H21v21H3.49A3.49,3.49,0,0,1,0,62Z"/><path class="cls-1" d="M86.54,38.36,71.71,23.53,84.07,11.18a3.48,3.48,0,0,1,4.94,0l9.88,9.88a3.48,3.48,0,0,1,0,4.94Z"/><path class="cls-1" d="M21.06,98.89,11.18,89a3.48,3.48,0,0,1,0-4.94L23.53,71.71,38.36,86.54,26,98.89A3.48,3.48,0,0,1,21.06,98.89Z"/><path class="cls-1" d="M11.18,21.06l9.88-9.88a3.48,3.48,0,0,1,4.94,0L38.36,23.53,23.53,38.36,11.18,26A3.48,3.48,0,0,1,11.18,21.06Z"/><path class="cls-1" d="M55,96A41,41,0,1,1,96,55H84.84A29.81,29.81,0,1,0,55,84.84Z"/><path class="cls-1" d="M90.24,79.41,72.52,62.64a9.9,9.9,0,0,1-3.14-7.53c0-.28,0-.55,0-.82a14.38,14.38,0,0,0-23.2-11.06l10.53,6.36c1.52,6.1-6.5,10.11-6.5,10.11l-9.56-6c0,.28,0,.57,0,.86A14.37,14.37,0,0,0,58.89,68.43a1.94,1.94,0,0,0,.23.27L80.61,89a7.06,7.06,0,0,0,9.76-.14h0A6.61,6.61,0,0,0,90.24,79.41Z"/></g></g></g></svg>