<svg xmlns="http://www.w3.org/2000/svg" viewBox="0 0 100 100"><defs><style>.cls-1{fill:#fff;}</style></defs><g id="Слой_2" data-name="Слой 2"><g id="icons"><g id="Settings_1"><path class="cls-1" d="M59.52,19.05h-19V3.49A3.49,3.49,0,0,1,44,0H56a3.49,3.49,0,0,1,3.49,3.49Z"/><path class="cls-1" d="M56,100H44a3.49,3.49,0,0,1-3.49-3.49V81h19V96.51A3.49,3.49,0,0,1,56,100Z"/><path class="cls-1" d="M81,59.52v-19H96.51A3.49,3.49,0,0,1,100,44V56a3.49,3.49,0,0,1-3.49,3.49Z"/><path class="cls-1" d="M0,56V44a3.49,3.49,0,0,1,3.49-3.49H19.05v19H3.49A3.49,3.49,0,0,1,0,56Z"/><path class="cls-1" d="M78.62,34.85,65.15,21.38l11-11a3.5,3.5,0,0,1,4.94,0l8.53,8.53a3.5,3.5,0,0,1,0,4.94Z"/><path class="cls-1" d="M18.91,89.62l-8.53-8.53a3.5,3.5,0,0,1,0-4.94l11-11L34.85,78.62l-11,11A3.5,3.5,0,0,1,18.91,89.62Z"/><path class="cls-1" d="M65.15,78.62,78.62,65.15l11,11a3.5,3.5,0,0,1,0,4.94l-8.53,8.53a3.5,3.5,0,0,1-4.94,0Z"/><path class="cls-1" d="M10.38,18.91l8.53-8.53a3.5,3.5,0,0,1,4.94,0l11,11L21.38,34.85l-11-11A3.5,3.5,0,0,1,10.38,18.91Z"/><path class="cls-1" d="M50,86.49A36.49,36.49,0,1,1,86.49,50,36.53,36.53,0,0,1,50,86.49Zm0-60.72A24.23,24.23,0,1,0,74.23,50,24.26,24.26,0,0,0,50,25.77Z"/><circle class="cls-1" cx="50" cy="50" r="11.9"/></g></g></g></svg>