<svg xmlns="http://www.w3.org/2000/svg" viewBox="0 0 100 93.88"><defs><style>.cls-1{fill:#fff;}</style></defs><g id="Слой_2" data-name="Слой 2"><g id="icons"><g id="Settings"><rect class="cls-1" x="57.14" width="13.27" height="44.9" rx="6.5"/><path class="cls-1" d="M70.41,16.84H2.75A2.75,2.75,0,0,0,0,19.58v5.73a2.76,2.76,0,0,0,2.75,2.75H70.41Z"/><path class="cls-1" d="M97.25,16.84H78.57V28.06H97.25A2.76,2.76,0,0,0,100,25.31V19.58A2.75,2.75,0,0,0,97.25,16.84Z"/><rect class="cls-1" x="23.47" y="48.98" width="13.27" height="44.9" rx="6.5"/><path class="cls-1" d="M97.25,65.82H44.9V77H97.25A2.76,2.76,0,0,0,100,74.29V68.56A2.75,2.75,0,0,0,97.25,65.82Z"/><path class="cls-1" d="M36.73,65.82h-34A2.75,2.75,0,0,0,0,68.56v5.73A2.76,2.76,0,0,0,2.75,77h34Z"/></g></g></g></svg>