<svg xmlns="http://www.w3.org/2000/svg" viewBox="0 0 70.82 100"><defs><style>.cls-1{fill:#fff;}</style></defs><g id="Слой_2" data-name="Слой 2"><g id="icons"><path id="Sheet" class="cls-1" d="M69.53,45.84C61.38,14.2,12.68,0,12.68,0a15,15,0,0,1-.53,12.18C5.74,25.11-7.08,56.24,5,78.46c10.77,19.83,33.17,23.27,42.56,20.87-8.84-11-11.22-30.19-9.81-37.92.88-4.89,1.72-9.51,1-15.68C36.77,29,24.53,14.44,24.35,14.28L18.83,6.55c.86.72,26.3,17.85,28.68,38.14.89,7.49-.16,13.23-1.08,18.3-1.15,6.32-.42,14.24,3.34,23.25a7.26,7.26,0,0,1,2.76-2.68C61,78.9,75.14,67.62,69.53,45.84Z"/></g></g></svg>