<svg xmlns="http://www.w3.org/2000/svg" viewBox="0 0 75.52 100"><defs><style>.cls-1{fill:#fff;}</style></defs><g id="Слой_2" data-name="Слой 2"><g id="icons"><path id="Shield" class="cls-1" d="M75.51,20a3,3,0,0,0-3.21-3.28,43.51,43.51,0,0,1-31-13.16l-.4-.37h0A20.72,20.72,0,0,1,38.79.6a1.46,1.46,0,0,0-2.41.08l-.12.2a17.18,17.18,0,0,1-2.35,3A43.44,43.44,0,0,1,3.21,16.69,3,3,0,0,0,0,20c0,9.54,0,19.08,0,28.62A51.44,51.44,0,0,0,2.24,63.83Q10.13,89.09,34.6,99.24a8.81,8.81,0,0,0,2.93.75h.19a10.25,10.25,0,0,0,3.2-.75Q65.34,89,73.27,63.83A51.12,51.12,0,0,0,75.5,48.59C75.53,39.05,75.51,29.51,75.51,20Z"/></g></g></svg>