<svg xmlns="http://www.w3.org/2000/svg" viewBox="0 0 75.52 100"><defs><style>.cls-1{fill:#fff;}</style></defs><g id="Слой_2" data-name="Слой 2"><g id="icons"><g id="Shield_with_Lock"><path class="cls-1" d="M45.57,36.73a8.79,8.79,0,0,0-17.58,0v3.94H45.57Z"/><path class="cls-1" d="M36.84,63.59a2.36,2.36,0,0,0,2.35-2.35V57.09a6,6,0,1,0-4.71,0v4.16A2.36,2.36,0,0,0,36.84,63.59Z"/><path class="cls-1" d="M75.51,20a3,3,0,0,0-3.21-3.28,43.51,43.51,0,0,1-31-13.16l-.4-.37h0A20.72,20.72,0,0,1,38.79.6a1.46,1.46,0,0,0-2.41.08l-.12.2a17.18,17.18,0,0,1-2.35,3A43.44,43.44,0,0,1,3.21,16.69,2.94,2.94,0,0,0,0,20c0,9.54,0,19.08,0,28.62A51.44,51.44,0,0,0,2.24,63.83Q10.13,89.09,34.6,99.24a8.81,8.81,0,0,0,2.93.75h.19a10.25,10.25,0,0,0,3.2-.75Q65.34,89,73.27,63.83A51.12,51.12,0,0,0,75.5,48.59C75.53,39.05,75.51,29.51,75.51,20ZM57.12,64.17c0,.06,0,.11,0,.17s0,.07,0,.12C57.12,68.06,48,71,36.85,71s-20.27-2.93-20.27-6.53c0-.06,0-.11,0-.16s0-.09,0-.13V43.26a2.59,2.59,0,0,1,2.58-2.59h2.59V36.73a15,15,0,0,1,30.05,0v3.94h2.73a2.6,2.6,0,0,1,2.59,2.59Z"/></g></g></g></svg>