<svg xmlns="http://www.w3.org/2000/svg" viewBox="0 0 75.52 100"><defs><style>.cls-1{fill:#fff;}</style></defs><g id="Слой_2" data-name="Слой 2"><g id="icons"><g id="Shield_2"><path class="cls-1" d="M37.79,22.18l0-.05-.22.23a31.36,31.36,0,0,1-21,9.23v2.75c0,4.91,0,9.82,0,14.74A30.32,30.32,0,0,0,17.81,58c3.12,10,9.38,16.86,19.13,20.94a3,3,0,0,0,.75.23,3.48,3.48,0,0,0,.88-.23C48.33,74.87,54.59,68,57.71,58A30.32,30.32,0,0,0,59,49.08q0-7.15,0-14.32V31.59A31.39,31.39,0,0,1,37.79,22.18Z"/><path class="cls-1" d="M75.51,20a3,3,0,0,0-3.21-3.28,43.51,43.51,0,0,1-31-13.16l-.4-.37h0A20.72,20.72,0,0,1,38.79.6a1.46,1.46,0,0,0-2.41.08l-.12.2a17.18,17.18,0,0,1-2.35,3A43.44,43.44,0,0,1,3.21,16.69,3,3,0,0,0,0,20c0,9.54,0,19.08,0,28.62A51.44,51.44,0,0,0,2.24,63.83Q10.13,89.09,34.6,99.24a8.81,8.81,0,0,0,2.93.75h.19a10.25,10.25,0,0,0,3.2-.75Q65.34,89,73.27,63.83A51.12,51.12,0,0,0,75.5,48.59C75.53,39.05,75.51,29.51,75.51,20ZM65.4,49.1a37.07,37.07,0,0,1-1.59,10.81A38.36,38.36,0,0,1,41,84.84a10.63,10.63,0,0,1-1.87.56l-.18.17H36.15l-.21-.25a10.44,10.44,0,0,1-1.46-.49C23,80.05,15.37,71.67,11.71,59.9a36.63,36.63,0,0,1-1.59-10.81q0-7.37,0-14.75V30.55a5.1,5.1,0,0,1,5.22-5.32A24.85,24.85,0,0,0,33,17.82a7.75,7.75,0,0,0,1-1.33l.08-.11A4.13,4.13,0,0,1,41,16.13a10.75,10.75,0,0,0,1,1.21c.11.1.22.2.32.31a24.87,24.87,0,0,0,17.88,7.58,5.1,5.1,0,0,1,5.22,5.32v4.21Q65.41,41.93,65.4,49.1Z"/></g></g></g></svg>