<svg xmlns="http://www.w3.org/2000/svg" viewBox="0 0 100 91.92"><defs><style>.cls-1{fill:#fff;}</style></defs><g id="Слой_2" data-name="Слой 2"><g id="icons"><g id="Shoot"><polygon class="cls-1" points="19.63 17.91 33.77 17.91 38.66 0 24.52 0 19.63 17.91"/><polygon class="cls-1" points="60.88 0 47.75 0 42.87 17.91 56 17.91 60.88 0"/><path class="cls-1" d="M15.43,0H5.15A5.16,5.16,0,0,0,0,5.15V17.91H10.54Z"/><path class="cls-1" d="M93.2,0,88.32,17.91h6A5.65,5.65,0,0,0,100,12.26V0Z"/><polygon class="cls-1" points="84.11 0 69.97 0 65.09 17.91 79.23 17.91 84.11 0"/><path class="cls-1" d="M.29,26.26,3,80.2A11.72,11.72,0,0,0,14.68,91.92h71A11.72,11.72,0,0,0,97.37,80.2l2.5-53.94Zm64.62,35L45.06,75.69a2.94,2.94,0,0,1-4.66-2.37V44.53a2.94,2.94,0,0,1,4.66-2.38l19.85,14.4A2.94,2.94,0,0,1,64.91,61.3Z"/></g></g></g></svg>