<svg xmlns="http://www.w3.org/2000/svg" viewBox="0 0 100 86"><defs><style>.cls-1{fill:#fff;}</style></defs><g id="Слой_2" data-name="Слой 2"><g id="icons"><g id="Shop_1"><rect class="cls-1" x="10.73" y="43" width="6.83" height="35"/><path class="cls-1" d="M15.85,43V78H57.68V43ZM49.69,65.2H22.14V49H49.69Z"/><rect class="cls-1" x="82.44" y="43" width="6.83" height="35"/><rect class="cls-1" x="57.68" y="43" width="6.83" height="35"/><rect class="cls-1" x="61.1" y="43" width="23.9" height="6.83"/><rect class="cls-1" y="78" width="100" height="8"/><path class="cls-1" d="M8,11.7H24.2a0,0,0,0,1,0,0V28a8,8,0,0,1-8,8H16a8,8,0,0,1-8-8V11.7A0,0,0,0,1,8,11.7Z"/><path class="cls-1" d="M24.2,11.7H40.4a0,0,0,0,1,0,0V28a8,8,0,0,1-8,8h-.2a8,8,0,0,1-8-8V11.7A0,0,0,0,1,24.2,11.7Z"/><path class="cls-1" d="M40.4,11.7H56.6a0,0,0,0,1,0,0V28a8,8,0,0,1-8,8h-.2a8,8,0,0,1-8-8V11.7a0,0,0,0,1,0,0Z"/><path class="cls-1" d="M56.6,11.7H72.8a0,0,0,0,1,0,0V28a8,8,0,0,1-8,8h-.2a8,8,0,0,1-8-8V11.7A0,0,0,0,1,56.6,11.7Z"/><path class="cls-1" d="M72.8,11.7H89a0,0,0,0,1,0,0V28a8,8,0,0,1-8,8h-.2a8,8,0,0,1-8-8V11.7A0,0,0,0,1,72.8,11.7Z"/><polygon class="cls-1" points="89 8 8 8 16.1 0 80.9 0 89 8"/></g></g></g></svg>