<svg xmlns="http://www.w3.org/2000/svg" viewBox="0 0 100 100"><defs><style>.cls-1{fill:#fff;}</style></defs><g id="Слой_2" data-name="Слой 2"><g id="icons"><g id="Shuriken"><path class="cls-1" d="M75.4,73.44,64.12,50.65a1.42,1.42,0,0,1,0-1.3L75.4,26.56a1.46,1.46,0,0,0-2-2L50.65,35.88a1.42,1.42,0,0,1-1.3,0L26.56,24.6a1.46,1.46,0,0,0-2,2L35.88,49.35a1.42,1.42,0,0,1,0,1.3L24.6,73.44a1.46,1.46,0,0,0,2,2L49.35,64.12a1.42,1.42,0,0,1,1.3,0L73.44,75.4A1.46,1.46,0,0,0,75.4,73.44ZM50,57a7,7,0,1,1,7-7A7,7,0,0,1,50,57Z"/><path id="Shuriken-2" data-name="Shuriken" class="cls-1" d="M62.63,37.37,50,0,37.37,37.37,0,50,37.37,62.63,50,100,62.63,62.63,100,50ZM50,56.14A6.14,6.14,0,1,1,56.14,50,6.14,6.14,0,0,1,50,56.14Z"/></g></g></g></svg>