<svg xmlns="http://www.w3.org/2000/svg" viewBox="0 0 100 100"><defs><style>.cls-1{fill:#fff;}</style></defs><g id="Слой_2" data-name="Слой 2"><g id="icons"><g id="Skull_Circle"><path class="cls-1" d="M50,100a50,50,0,1,1,50-50A50.06,50.06,0,0,1,50,100ZM50,7.14A42.86,42.86,0,1,0,92.86,50,42.91,42.91,0,0,0,50,7.14Z"/><path class="cls-1" d="M40.14,43.83a6.1,6.1,0,1,0,6.09,6.09A6.09,6.09,0,0,0,40.14,43.83Z"/><path class="cls-1" d="M50,55.13c-1.39,0-2.51,4.31-2.51,5.69a2.51,2.51,0,1,0,5,0C52.51,59.44,51.39,55.13,50,55.13Z"/><path class="cls-1" d="M59.52,43.83a6.1,6.1,0,1,0,6.1,6.09A6.09,6.09,0,0,0,59.52,43.83Z"/><path class="cls-1" d="M50,14.29A35.71,35.71,0,1,0,85.71,50,35.71,35.71,0,0,0,50,14.29ZM64.28,66.82a8.13,8.13,0,0,1-2.76-.48L60.17,69.6c-1.28,3.11-4.52,5.25-6.53,2.22h-.19a3.76,3.76,0,0,1-7.41.11c-2.86,3.16-5.53.61-6.72-2.65l-1-2.87a8.31,8.31,0,0,1-8.49-13.73,21.23,21.23,0,1,1,40.44,0,8.32,8.32,0,0,1-5.94,14.14Z"/></g></g></g></svg>