<svg xmlns="http://www.w3.org/2000/svg" viewBox="0 0 90.42 100"><defs><style>.cls-1{fill:#fff;}</style></defs><g id="Слой_2" data-name="Слой 2"><g id="icons"><g id="Skull"><path class="cls-1" d="M82.75,53A16.65,16.65,0,1,1,61.67,78.43Z"/><path class="cls-1" d="M30.2,76.66A16.65,16.65,0,1,1,7.66,53Z"/><path class="cls-1" d="M52.48,93.64l-15.13.15c-5.75,6.44-11.1,1.32-13.5-5.22L17.94,72.43l27.23,8.36a.89.89,0,0,0,.51,0l26.8-8.36L65.55,89.2C63,95.41,56.5,99.7,52.48,93.64Z"/><path class="cls-1" d="M45.21,0A42.46,42.46,0,1,0,87.66,42.46,42.46,42.46,0,0,0,45.21,0ZM25.48,62A12.19,12.19,0,1,1,37.67,49.85,12.18,12.18,0,0,1,25.48,62ZM45.21,76.66a5,5,0,0,1-5-5c0-2.77,2.25-11.38,5-11.38s5,8.61,5,11.38A5,5,0,0,1,45.21,76.66ZM64.26,62A12.19,12.19,0,1,1,76.44,49.85,12.19,12.19,0,0,1,64.26,62Z"/><circle class="cls-1" cx="44.69" cy="92.46" r="7.54"/></g></g></g></svg>