<svg xmlns="http://www.w3.org/2000/svg" viewBox="0 0 99.47 100"><defs><style>.cls-1{fill:#fff;}</style></defs><g id="Слой_2" data-name="Слой 2"><g id="icons"><g id="Skull_with_Horns"><path class="cls-1" d="M84.34,56.27A15.48,15.48,0,1,1,64.73,79.94Z"/><path class="cls-1" d="M35.47,78.3a15.48,15.48,0,1,1-21-22Z"/><path class="cls-1" d="M56.19,94.08l-14.07.15c-5.35,6-10.33,1.23-12.56-4.86l-5.49-15,25.32,7.76a.79.79,0,0,0,.48,0l24.92-7.76L68.35,90C66,95.73,59.93,99.72,56.19,94.08Z"/><path class="cls-1" d="M49.43,7A39.48,39.48,0,1,0,88.91,46.49,39.47,39.47,0,0,0,49.43,7ZM32.5,67.54a9.63,9.63,0,0,1-5.39-17.61l15,8A9.63,9.63,0,0,1,32.5,67.54ZM49.43,78.3a4.67,4.67,0,0,1-4.67-4.67c0-2.58,2.09-10.58,4.67-10.58s4.66,8,4.66,10.58A4.67,4.67,0,0,1,49.43,78.3ZM67.24,67.54a9.63,9.63,0,0,1-9.63-9.63l15-8a9.63,9.63,0,0,1-5.38,17.61Z"/><circle class="cls-1" cx="48.94" cy="92.98" r="7.02"/><path class="cls-1" d="M92.67,28.73c9-8.66,7.25-21.93,4.85-27.75a1.6,1.6,0,0,0-2.91-.1,25.56,25.56,0,0,1-13.23,11.6A39.55,39.55,0,0,1,92.67,28.73Z"/><path class="cls-1" d="M6.8,28.73C-2.25,20.07-.46,6.8,2,1A1.6,1.6,0,0,1,4.86.88a25.53,25.53,0,0,0,13.23,11.6A39.45,39.45,0,0,0,6.8,28.73Z"/></g></g></g></svg>