<svg xmlns="http://www.w3.org/2000/svg" viewBox="0 0 99.95 97"><defs><style>.cls-1{fill:#fff;}</style></defs><g id="Слой_2" data-name="Слой 2"><g id="icons"><g id="Sledgehammer"><path class="cls-1" d="M39.35,46.05,1.53,83.87a5.24,5.24,0,0,0,0,7.4l4.2,4.2a5.24,5.24,0,0,0,7.4,0L51.32,57.28A30.14,30.14,0,0,0,39.35,46.05Z"/><path class="cls-1" d="M83.6,17.6l-4.21-4.2a5.25,5.25,0,0,0-7.39,0L59.39,26l12,11.23L83.6,25A5.26,5.26,0,0,0,83.6,17.6Z"/><path class="cls-1" d="M68.08,63.61A90.46,90.46,0,0,0,36,31.53L57.16,10.37A71.79,71.79,0,0,0,89.24,42.45Z"/><path class="cls-1" d="M76.64,37.86h9.18a3.37,3.37,0,0,1,3.37,3.37V74.08a3.37,3.37,0,0,1-3.37,3.37H76.64a0,0,0,0,1,0,0V37.86A0,0,0,0,1,76.64,37.86Z" transform="translate(65.05 -41.74) rotate(45)"/><path class="cls-1" d="M39.87-3.09h8.36a0,0,0,0,1,0,0V36.49a0,0,0,0,1,0,0H39.87a4.19,4.19,0,0,1-4.19-4.19V1.09a4.19,4.19,0,0,1,4.19-4.19Z" transform="translate(24.1 -24.78) rotate(45)"/></g></g></g></svg>