<svg xmlns="http://www.w3.org/2000/svg" viewBox="0 0 100 100"><defs><style>.cls-1{fill:#fff;}</style></defs><g id="Слой_2" data-name="Слой 2"><g id="icons"><path id="Smile_Fun" class="cls-1" d="M50,0a50,50,0,1,0,50,50A50,50,0,0,0,50,0ZM21.43,32.42a3.57,3.57,0,0,1-7.14,0c0-6.42,6.5-12,13.92-12s13.46,5.51,13.46,12a3.58,3.58,0,0,1-7.15,0c0-2.31-2.7-4.9-6.31-4.9S21.43,30.21,21.43,32.42ZM50,81A26.19,26.19,0,0,1,23.81,54.76H76.19A26.19,26.19,0,0,1,50,81ZM81,36a3.57,3.57,0,0,1-3.57-3.57c0-2.31-2.7-4.9-6.31-4.9s-6.78,2.69-6.78,4.9a3.58,3.58,0,0,1-7.15,0c0-6.42,6.51-12,13.93-12s13.45,5.51,13.45,12A3.57,3.57,0,0,1,81,36Z"/></g></g></svg>