<svg xmlns="http://www.w3.org/2000/svg" viewBox="0 0 100 100"><defs><style>.cls-1{fill:#fff;}</style></defs><g id="Слой_2" data-name="Слой 2"><g id="icons"><path id="Smile_Inadequate" class="cls-1" d="M50,0a50,50,0,1,0,50,50A50,50,0,0,0,50,0ZM30.33,13.72,50,33.39,69.67,13.72l5.9,5.89L50,45.18,24.43,19.61ZM16.67,47.62A10.71,10.71,0,0,1,27.38,36.9L38.1,47.62a10.72,10.72,0,0,1-21.43,0Zm53,38.66L50,66.61,30.33,86.28l-5.9-5.89L50,54.82,75.57,80.39Zm3-27.95A10.71,10.71,0,0,1,61.9,47.62L72.62,36.9a10.72,10.72,0,0,1,0,21.43Z"/></g></g></svg>