<svg xmlns="http://www.w3.org/2000/svg" viewBox="0 0 91.81 100"><defs><style>.cls-1{fill:#fff;}</style></defs><g id="Слой_2" data-name="Слой 2"><g id="icons"><g id="Smile_Shock"><path class="cls-1" d="M45.91,8.19a45.91,45.91,0,1,0,45.9,45.9A45.9,45.9,0,0,0,45.91,8.19ZM21.41,30.05c0-5.44,3.63-9.84,8.1-9.84s8.1,4.4,8.1,9.84-3.62,9.83-8.1,9.83S21.41,35.48,21.41,30.05Zm24.5,59c-8.45,0-15.31-8.32-15.31-18.58s6.86-18.58,15.31-18.58,15.3,8.32,15.3,18.58S54.36,89.07,45.91,89.07ZM63.39,39.88c-4.47,0-8.1-4.4-8.1-9.83s3.63-9.84,8.1-9.84,8.11,4.4,8.11,9.84S67.87,39.88,63.39,39.88Z"/><path class="cls-1" d="M83.55,15a3.28,3.28,0,0,1-3-1.95c-1.39-3.15-3.28-5.17-5.62-6-3.71-1.34-7.6.49-7.64.51a3.28,3.28,0,0,1-2.91-5.88c.26-.13,6.41-3.1,12.79-.79,4.08,1.48,7.24,4.69,9.38,9.53a3.29,3.29,0,0,1-1.68,4.33A3.25,3.25,0,0,1,83.55,15Z"/><path class="cls-1" d="M6.81,15a3.25,3.25,0,0,1-1.32-.27,3.29,3.29,0,0,1-1.68-4.33C6,5.57,9.1,2.36,13.19.88c6.38-2.32,12.53.66,12.79.79a3.28,3.28,0,0,1-2.89,5.89c-.1,0-4-1.86-7.71-.5-2.32.86-4.19,2.88-5.57,6A3.28,3.28,0,0,1,6.81,15Z"/></g></g></g></svg>