<svg xmlns="http://www.w3.org/2000/svg" viewBox="0 0 100 100"><defs><style>.cls-1{fill:#fff;}</style></defs><g id="Слой_2" data-name="Слой 2"><g id="icons"><path id="Smile_Sad" class="cls-1" d="M50,0a50,50,0,1,0,50,50A50,50,0,0,0,50,0ZM15.44,32.61a3.57,3.57,0,0,1,7.14-.11c0,2.32,2.78,4.86,6.39,4.81s6.74-2.8,6.71-5a3.57,3.57,0,1,1,7.14-.1c.1,6.41-6.33,12.14-13.74,12.25S15.54,39.14,15.44,32.61ZM31,73.81a18.46,18.46,0,0,1,36.91,0ZM70.74,44.45c-7.29.11-13.53-5.31-13.63-11.84a3.57,3.57,0,0,1,7.14-.11c0,2.32,2.77,4.86,6.39,4.81s6.74-2.8,6.7-5a3.57,3.57,0,1,1,7.14-.1C84.58,38.61,78.16,44.34,70.74,44.45Z"/></g></g></svg>