<svg xmlns="http://www.w3.org/2000/svg" viewBox="0 0 100 80.54"><defs><style>.cls-1{fill:#fff;}</style></defs><g id="Слой_2" data-name="Слой 2"><g id="icons"><g id="Sneaker_with_Wings"><path class="cls-1" d="M64.11,80.54H21.43A22.6,22.6,0,0,1,1.77,69.08H64.41Z"/><path class="cls-1" d="M57.18,24.65v2.52c0,3.37,2.12,6.17,4.9,6.73a6.2,6.2,0,0,0,.78-3A6.28,6.28,0,0,0,57.18,24.65Z"/><path class="cls-1" d="M99.42,0H68.22c-5.57,0-10,4.35-10.92,10.71l-.12.8v7.3a12.1,12.1,0,0,1,11.19,9.3c5.49,0,7.32,0,12.86,0,2.7,0,4.91-2,5.47-5.05a21.68,21.68,0,0,0,.19-2.37H73.57a2.74,2.74,0,0,1-2.52-2.91h16.7A5.72,5.72,0,0,0,93.22,13a5.42,5.42,0,0,0,.13-.9c0-.54,0-1.09,0-1.7H78.18a2.74,2.74,0,0,1-2.52-2.91h18.6c2.77,0,5-2,5.55-5.06A22.07,22.07,0,0,0,100,0Z"/><path class="cls-1" d="M56.6,43a12.09,12.09,0,0,1-5.41-22.91L35.7,15.39l-.8,23.84s-23.3,1.06-28.17,3.5c-10,5-5.89,21.81-5.89,21.81h63v-24A12,12,0,0,1,56.6,43Z"/><circle class="cls-1" cx="56.6" cy="30.88" r="6.26"/></g></g></g></svg>