<svg xmlns="http://www.w3.org/2000/svg" viewBox="0 0 84.4 100.13"><defs><style>.cls-1{fill:#fff;}</style></defs><g id="Слой_2" data-name="Слой 2"><g id="icons"><g id="Sound_Off"><ellipse class="cls-1" cx="16.41" cy="86.85" rx="16.41" ry="13.28"/><path class="cls-1" d="M71.77,83.42a18.32,18.32,0,0,1-11.93,4.16c-9.06,0-16.4-5.94-16.4-13.28S50.78,61,59.84,61,74.55,81,71.77,83.42Z"/><path class="cls-1" d="M30.63,89.53l.13,0V89.4A.8.8,0,0,0,30.63,89.53Z"/><path class="cls-1" d="M30.76,72.72V29.58L23,31.51V67.83A17.6,17.6,0,0,1,30.76,72.72Z"/><path class="cls-1" d="M74.49,60.2a10.85,10.85,0,0,1,.8.86v-42L67.57,21v26Z"/><path class="cls-1" d="M56.26,25.55l19-4.57V11.73a4.88,4.88,0,0,0-6-4.74L49.05,11.84Z"/><polygon class="cls-1" points="40.56 13.88 23.05 18.09 23.05 33.53 47.77 27.59 40.56 13.88"/><rect class="cls-1" x="51.8" y="-5.8" width="8.46" height="111.62" rx="3.85" transform="translate(128.91 68.14) rotate(152.22)"/></g></g></g></svg>