<svg xmlns="http://www.w3.org/2000/svg" viewBox="0 0 73.96 100"><defs><style>.cls-1{fill:#fff;}</style></defs><g id="Слой_2" data-name="Слой 2"><g id="icons"><g id="Spruce"><path class="cls-1" d="M36.74,14.7l6.92,8.72a24.17,24.17,0,0,0,18.93,9.14h0L36.74,0,10.9,32.56h0a24.18,24.18,0,0,0,18.93-9.14Z"/><path class="cls-1" d="M36.74,43.11l8.83,11.13A30.85,30.85,0,0,0,69.73,65.91h0l-33-41.57-33,41.57h0A30.87,30.87,0,0,0,27.92,54.24Z"/><path class="cls-1" d="M36.74,71.45,50.65,89a29.15,29.15,0,0,0,22.84,11H74L36.74,53.14,0,100H0A29.15,29.15,0,0,0,22.84,89Z"/><rect class="cls-1" x="32.29" y="69.79" width="8.33" height="30.21"/></g></g></g></svg>