<svg xmlns="http://www.w3.org/2000/svg" viewBox="0 0 100 79.34"><defs><style>.cls-1{fill:#fff;}</style></defs><g id="Слой_2" data-name="Слой 2"><g id="icons"><g id="Square_Academic_Cap"><path class="cls-1" d="M44.71,49.53,1.37,27.34a2.52,2.52,0,0,1,0-4.51L48.24,0,95.06,22.83a2.52,2.52,0,0,1,0,4.51L51.77,49.53A7.78,7.78,0,0,1,44.71,49.53Z"/><path class="cls-1" d="M44.7,58,16.84,43.65V73.56h62V44.07L51.77,58A7.74,7.74,0,0,1,44.7,58Z"/><path class="cls-1" d="M92.85,44.64a7.5,7.5,0,0,1,3.31.78V24.81H89.55V45.42A7.49,7.49,0,0,1,92.85,44.64Z"/><circle class="cls-1" cx="92.85" cy="56.21" r="6.61"/><path class="cls-1" d="M96.65,66.57a6.6,6.6,0,0,1-6.91.42l-3,8.72a2.73,2.73,0,0,0,2.58,3.63h8a2.72,2.72,0,0,0,2.57-3.63Z"/></g></g></g></svg>