<svg xmlns="http://www.w3.org/2000/svg" viewBox="0 0 100 89.65"><defs><style>.cls-1{fill:#fff;}</style></defs><g id="Слой_2" data-name="Слой 2"><g id="icons"><path id="Staple" class="cls-1" d="M28.09,89.65a12.14,12.14,0,0,1-8.9-3.86l-16-17.2a12.14,12.14,0,0,1,.58-17.07L41.17,16.4a12.13,12.13,0,0,1,17.38.81L71.48,31.86,41.13,60.05,34,52.39,56.89,31.14l-6.18-7a1.62,1.62,0,0,0-1.17-.56,1.64,1.64,0,0,0-1.21.45L11,59.14a1.66,1.66,0,0,0-.08,2.34l16,17.19A1.67,1.67,0,0,0,29,78.9l59.82-42a1.67,1.67,0,0,0,.41-2.31L69.4,6,78,0,97.85,28.59a12.17,12.17,0,0,1-3,16.83L35,87.46A12.09,12.09,0,0,1,28.09,89.65Z"/></g></g></svg>