<svg xmlns="http://www.w3.org/2000/svg" viewBox="0 0 100 95.42"><defs><style>.cls-1{fill:#fff;}</style></defs><g id="Слой_2" data-name="Слой 2"><g id="icons"><path id="Star_3" class="cls-1" d="M52.92,1.94S61.74,18.17,65.26,31.4A164.57,164.57,0,0,1,97.1,34a3.16,3.16,0,0,1,1.8,5.54A93.9,93.9,0,0,1,74.7,60.43c5.41,14.91,5.41,19,7.32,31.09A3.16,3.16,0,0,1,77.3,95C65.82,89.63,62.45,87.17,50,78.37,41.21,85.13,32.17,90.92,22.7,95A3.16,3.16,0,0,1,18,91.52,164,164,0,0,1,25.3,60.43,212.29,212.29,0,0,1,1.1,39.58,3.16,3.16,0,0,1,2.9,34,180,180,0,0,1,34.74,31.4C37.24,22.25,42.34,9,47.08,1.94A3.17,3.17,0,0,1,52.92,1.94Z"/></g></g></svg>