<svg xmlns="http://www.w3.org/2000/svg" viewBox="0 0 78.39 100"><defs><style>.cls-1{fill:#fff;}</style></defs><g id="Слой_2" data-name="Слой 2"><g id="icons"><g id="Star_4"><path class="cls-1" d="M43.16,2.17,50,16A3.86,3.86,0,0,0,52.9,18.1l15.24,2.21a3.89,3.89,0,0,1,2.15,6.63l-11,10.75a3.86,3.86,0,0,0-1.12,3.44l2.6,15.18a3.88,3.88,0,0,1-5.63,4.09L41.49,53.24a3.87,3.87,0,0,0-3.62,0L24.24,60.4a3.89,3.89,0,0,1-5.64-4.09l2.61-15.18a3.92,3.92,0,0,0-1.12-3.44l-11-10.75a3.89,3.89,0,0,1,2.16-6.63L26.45,18.1A3.88,3.88,0,0,0,29.38,16l6.81-13.8A3.89,3.89,0,0,1,43.16,2.17Z"/><path class="cls-1" d="M41.08,61.25a3.18,3.18,0,0,0-3,0l-6.44,3.38L23.4,87.33H55.79l-8.28-22.7Z"/><path class="cls-1" d="M78.39,100H0L5.81,81.94a5.93,5.93,0,0,1,5.64-4.11H66.94a5.92,5.92,0,0,1,5.64,4.11Z"/></g></g></g></svg>