<svg xmlns="http://www.w3.org/2000/svg" viewBox="0 0 100 100"><defs><style>.cls-1{fill:#fff;}</style></defs><g id="Слой_2" data-name="Слой 2"><g id="icons"><g id="Star_Circle"><path class="cls-1" d="M50,100a50,50,0,1,1,50-50A50.06,50.06,0,0,1,50,100ZM50,7.14A42.86,42.86,0,1,0,92.86,50,42.91,42.91,0,0,0,50,7.14Z"/><path class="cls-1" d="M50,14.29A35.71,35.71,0,1,0,85.71,50,35.71,35.71,0,0,0,50,14.29Zm22.27,32a42.89,42.89,0,0,1-11,9.49c2.46,6.79,2.46,8.65,3.33,14.16a1.44,1.44,0,0,1-2.15,1.56C57.2,69.09,55.67,68,50,64a57.56,57.56,0,0,1-12.43,7.55A1.44,1.44,0,0,1,35.42,70a74.43,74.43,0,0,1,3.33-14.16,97,97,0,0,1-11-9.49,1.44,1.44,0,0,1,.82-2.52,82.14,82.14,0,0,1,14.5-1.21c1.14-4.16,3.46-10.2,5.62-13.41a1.44,1.44,0,0,1,2.66,0A74.6,74.6,0,0,1,57,42.57a74.91,74.91,0,0,1,14.5,1.21A1.44,1.44,0,0,1,72.27,46.3Z"/></g></g></g></svg>