<svg xmlns="http://www.w3.org/2000/svg" viewBox="0 0 100 95.43"><defs><style>.cls-1{fill:#fff;}</style></defs><g id="Слой_2" data-name="Слой 2"><g id="icons"><path id="Star_2" class="cls-1" d="M53,2,64.54,29.5a3.28,3.28,0,0,0,2.74,2L97,34a3.26,3.26,0,0,1,1.86,5.73L76.27,59.15a3.28,3.28,0,0,0-1,3.23l6.84,29a3.27,3.27,0,0,1-4.88,3.54L51.7,79.47a3.29,3.29,0,0,0-3.4,0L22.82,94.94a3.27,3.27,0,0,1-4.88-3.54l6.84-29a3.28,3.28,0,0,0-1.05-3.23L1.14,39.69A3.26,3.26,0,0,1,3,34L32.72,31.5a3.28,3.28,0,0,0,2.74-2L47,2A3.26,3.26,0,0,1,53,2Z"/></g></g></svg>