<svg xmlns="http://www.w3.org/2000/svg" viewBox="0 0 100 95.7"><defs><style>.cls-1{fill:#fff;}</style></defs><g id="Слой_2" data-name="Слой 2"><g id="icons"><path id="Star_1" class="cls-1" d="M55.48,3.41,66.2,25.12a6.12,6.12,0,0,0,4.6,3.34l24,3.49a6.11,6.11,0,0,1,3.39,10.42L80.81,59.27a6.12,6.12,0,0,0-1.76,5.41l4.09,23.87A6.11,6.11,0,0,1,74.28,95L52.84,83.72a6.07,6.07,0,0,0-5.68,0L25.72,95a6.11,6.11,0,0,1-8.86-6.44L21,64.68a6.12,6.12,0,0,0-1.76-5.41L1.85,42.37A6.11,6.11,0,0,1,5.24,32l24-3.49a6.12,6.12,0,0,0,4.6-3.34L44.52,3.41A6.11,6.11,0,0,1,55.48,3.41Z"/></g></g></svg>