<svg xmlns="http://www.w3.org/2000/svg" viewBox="0 0 100 91.23"><defs><style>.cls-1{fill:#fff;}</style></defs><g id="Слой_2" data-name="Слой 2"><g id="icons"><g id="Stars"><path class="cls-1" d="M51.4.87,54.13,6.4a1.58,1.58,0,0,0,1.17.86l6.11.88a1.56,1.56,0,0,1,.86,2.66l-4.42,4.31a1.6,1.6,0,0,0-.45,1.38l1.05,6.08a1.56,1.56,0,0,1-2.26,1.64l-5.47-2.87a1.53,1.53,0,0,0-1.44,0l-5.47,2.87a1.56,1.56,0,0,1-2.26-1.64l1.05-6.08a1.6,1.6,0,0,0-.45-1.38L37.73,10.8a1.56,1.56,0,0,1,.86-2.66l6.11-.88a1.58,1.58,0,0,0,1.17-.86L48.6.87A1.56,1.56,0,0,1,51.4.87Z"/><path class="cls-1" d="M15.12,46l2.73,5.53a1.56,1.56,0,0,0,1.18.85l6.11.89A1.56,1.56,0,0,1,26,55.9l-4.42,4.31a1.53,1.53,0,0,0-.45,1.38l1,6.08a1.56,1.56,0,0,1-2.26,1.64l-5.46-2.87a1.55,1.55,0,0,0-1.45,0L7.54,69.31a1.56,1.56,0,0,1-2.26-1.64l1-6.08a1.53,1.53,0,0,0-.45-1.38L1.45,55.9a1.56,1.56,0,0,1,.87-2.66l6.1-.89A1.56,1.56,0,0,0,9.6,51.5L12.33,46A1.55,1.55,0,0,1,15.12,46Z"/><path class="cls-1" d="M87.67,31.26,90.4,36.8a1.58,1.58,0,0,0,1.18.85l6.1.89a1.55,1.55,0,0,1,.87,2.65L94.13,45.5a1.54,1.54,0,0,0-.45,1.38l1,6.08a1.56,1.56,0,0,1-2.26,1.65L87,51.73a1.55,1.55,0,0,0-1.45,0l-5.46,2.88A1.56,1.56,0,0,1,77.83,53l1-6.08a1.54,1.54,0,0,0-.45-1.38L74,41.19a1.55,1.55,0,0,1,.86-2.65L81,37.65a1.58,1.58,0,0,0,1.18-.85l2.73-5.54A1.55,1.55,0,0,1,87.67,31.26Z"/><path class="cls-1" d="M4.25,75.54h19a4.25,4.25,0,0,1,4.25,4.25V91.23a0,0,0,0,1,0,0H0a0,0,0,0,1,0,0V79.79A4.25,4.25,0,0,1,4.25,75.54Z"/><path class="cls-1" d="M76.8,60.83h19A4.25,4.25,0,0,1,100,65.08V91.23a0,0,0,0,1,0,0H72.55a0,0,0,0,1,0,0V65.08A4.25,4.25,0,0,1,76.8,60.83Z"/><path class="cls-1" d="M40.52,30.44h19a4.25,4.25,0,0,1,4.25,4.25V91.23a0,0,0,0,1,0,0H36.27a0,0,0,0,1,0,0V34.69A4.25,4.25,0,0,1,40.52,30.44Z"/></g></g></g></svg>