<svg xmlns="http://www.w3.org/2000/svg" viewBox="0 0 100 100"><defs><style>.cls-1{fill:#fff;}</style></defs><g id="Слой_2" data-name="Слой 2"><g id="icons"><g id="Stars_2"><path class="cls-1" d="M62.63,37.37C75.36,39.67,87.77,44.17,100,50,88.31,56.4,76,61,62.63,62.63,60.48,74.71,56,87.21,50,100,44,87.26,39.41,74.74,37.37,62.63,25.64,60.42,13.08,55.93,0,50c13.05-5.8,25.61-10.3,37.37-12.63A164.42,164.42,0,0,1,50,0,176.77,176.77,0,0,1,62.63,37.37Z"/><path class="cls-1" d="M86.46,12.5c4,.72,8.68,1.3,12.5,3.12-3.65,2-8.33,2.62-12.5,3.13-.67,3.77-1.24,8.5-3.13,12.5-1.86-4-2.49-8.72-3.12-12.5-3.67-.69-8.41-1.27-12.5-3.13,4.08-1.81,8.82-2.39,12.5-3.12C81,8.57,81.51,3.86,83.33,0,85.15,4,85.67,8.69,86.46,12.5Z"/><path class="cls-1" d="M22.4,76.56c2.65.48,5.78.87,8.33,2.09-2.44,1.33-5.55,1.74-8.33,2.08-.45,2.52-.83,5.67-2.09,8.33a32.28,32.28,0,0,1-2.08-8.33c-2.45-.46-5.61-.85-8.33-2.08,2.71-1.21,5.88-1.6,8.33-2.09.53-2.62.87-5.76,2.08-8.33C21.52,70.88,21.87,74,22.4,76.56Z"/></g></g></g></svg>