<svg xmlns="http://www.w3.org/2000/svg" viewBox="0 0 88.64 100"><defs><style>.cls-1{fill:#fff;}</style></defs><g id="Слой_2" data-name="Слой 2"><g id="icons"><g id="Sun"><path class="cls-1" d="M20.78,57.76a23.36,23.36,0,0,1,2-9.5c.2-.47.42-.92.66-1.37L6.32,29.77a1.72,1.72,0,0,0-2.83.6A56.37,56.37,0,0,0,0,50a54.86,54.86,0,0,0,.38,6.58,1.7,1.7,0,0,0,1.71,1.5H20.8A1.67,1.67,0,0,1,20.78,57.76Z"/><path class="cls-1" d="M27.15,73.86a23.09,23.09,0,0,1-4.3-6.45c-.24-.53-.46-1.07-.65-1.63H4.56a1.74,1.74,0,0,0-1.64,2.27A51.58,51.58,0,0,0,13,85.62a1.74,1.74,0,0,0,2.53.09L27.25,74Z"/><path class="cls-1" d="M28.12,40.67l.1-.09a23.47,23.47,0,0,1,11.47-5.89l.78-.14V1.73a1.73,1.73,0,0,0-2-1.71A42.45,42.45,0,0,0,13,14.36a49.23,49.23,0,0,0-4,5.23,1.71,1.71,0,0,0,.23,2.16Z"/><path class="cls-1" d="M34.82,79.31c-.46-.21-.92-.43-1.37-.67l-12.05,12a1.74,1.74,0,0,0,.24,2.65A40.62,40.62,0,0,0,38.49,100a1.72,1.72,0,0,0,2-1.7V81l-.78-.15A22.08,22.08,0,0,1,34.82,79.31Z"/><path class="cls-1" d="M55.19,78.64c-.45.24-.9.46-1.37.67a22.16,22.16,0,0,1-4.88,1.52c-.25,0-.51.11-.77.15v17.3a1.72,1.72,0,0,0,2,1.7A40.41,40.41,0,0,0,67,93.33a1.73,1.73,0,0,0,.25-2.65Z"/><path class="cls-1" d="M60.41,40.6l.1.08L79.44,21.75a1.71,1.71,0,0,0,.23-2.16,49.23,49.23,0,0,0-4-5.23A42.48,42.48,0,0,0,50.15,0a1.73,1.73,0,0,0-2,1.71V34.55l.77.14A23.25,23.25,0,0,1,60.41,40.6Z"/><path class="cls-1" d="M84.07,65.78H66.44c-.19.56-.42,1.1-.65,1.63a23.28,23.28,0,0,1-4.29,6.45l-.09.1L73.18,85.72a1.65,1.65,0,0,0,1.2.5,1.71,1.71,0,0,0,1.28-.57,51.62,51.62,0,0,0,10-17.59A1.73,1.73,0,0,0,84.07,65.78Z"/><path class="cls-1" d="M85.15,30.37a1.72,1.72,0,0,0-2.83-.6L65.2,46.89c.24.45.46.9.66,1.37a23.36,23.36,0,0,1,2,9.5,1.67,1.67,0,0,1,0,.32H86.55a1.7,1.7,0,0,0,1.71-1.5A54.86,54.86,0,0,0,88.64,50,56.37,56.37,0,0,0,85.15,30.37Z"/><path class="cls-1" d="M56.61,70.06l.39-.41a17,17,0,0,0,3.17-4.76,17.19,17.19,0,0,0,1.52-6.84,2.71,2.71,0,0,0,0-.29,17.31,17.31,0,0,0-5.09-12.29,3.69,3.69,0,0,0-.41-.38,17.08,17.08,0,0,0-8.46-4.36,16.88,16.88,0,0,0-6.84,0,17.22,17.22,0,0,0-8.47,4.35c-.14.13-.27.25-.4.39a17.31,17.31,0,0,0-5.09,12.29,2.71,2.71,0,0,0,0,.29,17.35,17.35,0,0,0,4.69,11.6,17.43,17.43,0,0,0,5.67,4A16.5,16.5,0,0,0,40.9,74.8a17.37,17.37,0,0,0,6.84,0,16.5,16.5,0,0,0,3.59-1.13A17.39,17.39,0,0,0,56.61,70.06Z"/></g></g></g></svg>