<svg xmlns="http://www.w3.org/2000/svg" viewBox="0 0 100 100"><defs><style>.cls-1{fill:#fff;}</style></defs><g id="Слой_2" data-name="Слой 2"><g id="icons"><g id="Sun_4"><path class="cls-1" d="M50,23.48a26,26,0,0,1,6.65.86L61.3,0H38.7l4.65,24.34A26,26,0,0,1,50,23.48Z"/><path class="cls-1" d="M50,75.65a26.17,26.17,0,0,1-6.49-.81L38.7,100H61.3L56.49,74.84A26.17,26.17,0,0,1,50,75.65Z"/><path class="cls-1" d="M75.35,43.41a25.93,25.93,0,0,1-.22,13.14L100,61.3V38.7Z"/><path class="cls-1" d="M23.91,49.57a26,26,0,0,1,.74-6.16L0,38.7V61.3l24.87-4.75A26,26,0,0,1,23.91,49.57Z"/><path class="cls-1" d="M72.67,36.67l20.68-14-16-16L63.42,27.19A26.19,26.19,0,0,1,72.67,36.67Z"/><path class="cls-1" d="M27.68,63.08l-21,14.28,16,16L37,72.18A26.24,26.24,0,0,1,27.68,63.08Z"/><path class="cls-1" d="M72.32,63.08A26.24,26.24,0,0,1,63,72.18L77.36,93.35l16-16Z"/><path class="cls-1" d="M36.58,27.19,22.64,6.65l-16,16,20.68,14A26.19,26.19,0,0,1,36.58,27.19Z"/><circle class="cls-1" cx="50" cy="49.57" r="18.26"/></g></g></g></svg>