<svg xmlns="http://www.w3.org/2000/svg" viewBox="0 0 100 100"><defs><style>.cls-1{fill:#fff;}</style></defs><g id="Слой_2" data-name="Слой 2"><g id="icons"><g id="Sun_2"><circle class="cls-1" cx="50" cy="50" r="30.56"/><path class="cls-1" d="M55,5c0,2.76-2.23,8-5,8s-5-5.21-5-8A5,5,0,0,1,55,5Z"/><path class="cls-1" d="M45,95c0-2.76,2.23-8,5-8s5,5.21,5,8a5,5,0,0,1-10,0Z"/><path class="cls-1" d="M95,55c-2.76,0-8-2.23-8-5s5.21-5,8-5a5,5,0,0,1,0,10Z"/><path class="cls-1" d="M5,45c2.76,0,8,2.23,8,5s-5.21,5-8,5A5,5,0,0,1,5,45Z"/><path class="cls-1" d="M78.3,85.36c-2-2-4.06-7.22-2.11-9.17s7.22.16,9.17,2.11a5,5,0,0,1-7.06,7.06Z"/><path class="cls-1" d="M21.7,14.64c1.95,1.95,4.06,7.22,2.11,9.17s-7.22-.16-9.17-2.11a5,5,0,0,1,7.06-7.06Z"/><path class="cls-1" d="M85.36,21.7c-2,1.95-7.22,4.06-9.17,2.11s.16-7.22,2.11-9.17a5,5,0,0,1,7.06,7.06Z"/><path class="cls-1" d="M14.64,78.3c1.95-2,7.22-4.06,9.17-2.11s-.16,7.22-2.11,9.17a5,5,0,0,1-7.06-7.06Z"/></g></g></g></svg>