<svg xmlns="http://www.w3.org/2000/svg" viewBox="0 0 99.62 100"><defs><style>.cls-1{fill:#fff;}</style></defs><g id="Слой_2" data-name="Слой 2"><g id="icons"><g id="Sword"><circle class="cls-1" cx="11.66" cy="88.34" r="11.66"/><path class="cls-1" d="M3.89,59.84H63.47a0,0,0,0,1,0,0v3.25a11,11,0,0,1-11,11H14.89a11,11,0,0,1-11-11V59.84a0,0,0,0,1,0,0Z" transform="translate(57.22 -4.2) rotate(45)"/><rect class="cls-1" x="7.77" y="69.56" width="33.68" height="11.66" rx="4.5" transform="translate(-46.1 39.48) rotate(-45)"/><path class="cls-1" d="M61.76,0,23.53,63.73c7.12,1.59,9.85,5.83,11.45,13L99,37.25,99.62.93ZM41.66,64.45l-7-7.15L75.58,23.44Z"/></g></g></g></svg>