<svg xmlns="http://www.w3.org/2000/svg" viewBox="0 0 100.45 100"><defs><style>.cls-1{fill:#fff;}</style></defs><g id="Слой_2" data-name="Слой 2"><g id="icons"><g id="Sword_2"><path class="cls-1" d="M11.67,57.57H59.16A14.53,14.53,0,0,1,73.69,72.1V73a0,0,0,0,1,0,0H-2.86a0,0,0,0,1,0,0v-.9A14.53,14.53,0,0,1,11.67,57.57Z" transform="translate(56.54 -5.92) rotate(45)"/><rect class="cls-1" x="7.36" y="68.09" width="36.48" height="12.63" rx="4.5" transform="translate(-45.12 39.89) rotate(-45)"/><path class="cls-1" d="M4.27,76.64H19.09a4.27,4.27,0,0,1,4.27,4.27V95.73A4.27,4.27,0,0,1,19.09,100H0a0,0,0,0,1,0,0V80.91A4.27,4.27,0,0,1,4.27,76.64Z"/><path class="cls-1" d="M83.93,1.52l-60,43.63L39.71,60.9,55.5,76.65,99,16.52,100.45,0ZM80.1,23.68l-35.58,39-7.28-7L77.05,21.3l5.77-3.06Z"/></g></g></g></svg>