<svg xmlns="http://www.w3.org/2000/svg" viewBox="0 0 100 82"><defs><style>.cls-1{fill:#fff;}</style></defs><g id="Слой_2" data-name="Слой 2"><g id="icons"><g id="Swords"><path class="cls-1" d="M68.8,52H86.67A10.27,10.27,0,0,1,96.94,62.24V63a0,0,0,0,1,0,0H58.53a0,0,0,0,1,0,0v-.78A10.27,10.27,0,0,1,68.8,52Z" transform="translate(-17.89 71.81) rotate(-45)"/><circle class="cls-1" cx="94.17" cy="74.01" r="5.83"/><path class="cls-1" d="M86.67,66.82A7.55,7.55,0,0,1,94.46,65L85.64,56.2l-9.19,9.2,8.13,8.13A7.54,7.54,0,0,1,86.67,66.82Z"/><path class="cls-1" d="M57,50.21,71.67,63.32a15.78,15.78,0,0,1,11.9-11.9L71.42,37.92Z"/><path class="cls-1" d="M23.52,20.86l6.6,5.63,15.37-18L40.86,3,23,0a2.26,2.26,0,0,0-2.6,2.62Z"/><circle class="cls-1" cx="5.83" cy="76.16" r="5.83"/><path class="cls-1" d="M13.33,69a7.55,7.55,0,0,0-7.79-1.8l8.82-8.81,9.19,9.19-8.13,8.14A7.55,7.55,0,0,0,13.33,69Z"/><path class="cls-1" d="M14.29,54.12H32.16A10.27,10.27,0,0,1,42.43,64.4v.78a0,0,0,0,1,0,0H4a0,0,0,0,1,0,0V64.4A10.27,10.27,0,0,1,14.29,54.12Z" transform="translate(48.98 1.05) rotate(45)"/><path class="cls-1" d="M77,3.35,58.78,6.5,19.54,51.43c3.68,6.75,4.76,10,11.9,11.9L76.61,23.85l3-17.9A2.26,2.26,0,0,0,77,3.35Z"/></g></g></g></svg>