<svg xmlns="http://www.w3.org/2000/svg" viewBox="0 0 90.62 100"><defs><style>.cls-1{fill:#fff;}</style></defs><g id="Слой_2" data-name="Слой 2"><g id="icons"><g id="Sword_Attack"><path class="cls-1" d="M87.39,9l-22.1,4L26.42,59.17c-.27,0-.53,0-.8,0a15.41,15.41,0,0,0-2.46.23l-7.71-7.62L13.19,54a10.22,10.22,0,0,0,.09,14.44L16.84,72,8.06,80.87a9.63,9.63,0,1,0,11,11.3l9-9.08,3.86,3.81a10.2,10.2,0,0,0,14.43-.09l2.26-2.28-7.7-7.62a16.56,16.56,0,0,0,.19-2.46c0-.27,0-.53,0-.8l46-39.71,3.52-21.76A2.76,2.76,0,0,0,87.39,9Z"/><path class="cls-1" d="M0,21S12.24,0,41.08,0,81.27,4.37,81.27,4.37L60.85,7.45a5.91,5.91,0,0,0-3.7,2.28L45.45,25.34S29.72,9.61,0,21Z"/><path class="cls-1" d="M0,28s26.21-7.86,37.57,7l-7,8.74S22.73,27.09,0,28Z"/></g></g></g></svg>