<svg xmlns="http://www.w3.org/2000/svg" viewBox="0 0 100 96.52"><defs><style>.cls-1{fill:#fff;}</style></defs><g id="Слой_2" data-name="Слой 2"><g id="icons"><g id="T-shirt"><path class="cls-1" d="M23.49,96.52c0-23.06,0-46.12,0-69.18a23.24,23.24,0,0,0-1.05-6.5c-1.33-4.48-2.88-8.9-4.42-13.32-.34-1-.11-1.44.75-1.78,1.64-.65,3.27-1.33,4.92-1.95,3-1.13,6.09-2.22,9.14-3.32.41-.15.83-.27,1-.34.4,2.54.63,5.07,1.22,7.52a18.22,18.22,0,0,0,4.85,8.57c6.11,6.2,15.15,5.93,20.9-.61A21.43,21.43,0,0,0,66,2c0-.33,0-.66,0-1V0c1.35.48,2.61.92,3.87,1.38L79,4.7c.55.2,1.1.41,1.64.65,1.91.87,1.91.88,1.26,2.82C80.5,12.39,79,16.59,77.73,20.86a23.22,23.22,0,0,0-1,6.39q-.11,34.59-.05,69.18Z"/><path class="cls-1" d="M84.07,46.78c0-6.46,0-12.91,0-19.37a11.33,11.33,0,0,1,.62-3.24c1.39-4.31,2.84-8.6,4.27-12.9a5.16,5.16,0,0,1,.32-.63c.59,1.1,7.52,18.78,10.47,26.68a1.74,1.74,0,0,1-.88,2.51C94.11,42.26,84.07,46.88,84.07,46.78Z"/><path class="cls-1" d="M15.93,46.78c0-6.46,0-12.91,0-19.37a11.33,11.33,0,0,0-.62-3.24c-1.39-4.31-2.84-8.6-4.27-12.9a5.16,5.16,0,0,0-.32-.63C10.09,11.74,3.16,29.42.21,37.32a1.74,1.74,0,0,0,.88,2.51C5.89,42.26,15.93,46.88,15.93,46.78Z"/><path class="cls-1" d="M39.12.07A25.83,25.83,0,0,0,61,.07c0,5.11-1.27,9.56-5.24,12.83a8.79,8.79,0,0,1-11.86-.37C40.3,9.24,39.08,5,39.12.07Z"/></g></g></g></svg>