<svg xmlns="http://www.w3.org/2000/svg" viewBox="0 0 90.52 100"><defs><style>.cls-1{fill:#fff;}</style></defs><g id="Слой_2" data-name="Слой 2"><g id="icons"><path id="Talisman" class="cls-1" d="M77.29,23.77,54.23,1.35a4.79,4.79,0,0,0-5.74-.7l-46.13,27a4.78,4.78,0,0,0-2,6L26.81,97.06a4.79,4.79,0,0,0,6.33,2.54L85.4,76.73a4.77,4.77,0,0,0,1.12-8L55,42.64A4.75,4.75,0,0,0,49.88,42L44,44.81a11.82,11.82,0,0,0-5.8,15.33l1.5,3.51,7.68-5.58a4.77,4.77,0,0,1,6.18.48l3.1,3.1a4.78,4.78,0,0,1-1.5,7.77L38.37,76.59A4.78,4.78,0,0,1,32,73.78L20,39.35a4.77,4.77,0,0,1,2-5.64L46.85,18.47a4.79,4.79,0,0,1,5.38.27l38.29,29h0A47.19,47.19,0,0,0,77.29,23.77Z"/></g></g></svg>