<svg xmlns="http://www.w3.org/2000/svg" viewBox="0 0 96.41 100"><defs><style>.cls-1{fill:#fff;}</style></defs><g id="Слой_2" data-name="Слой 2"><g id="icons"><path id="Talisman_2" class="cls-1" d="M93.55,28.85,60.08,1.72h0A7.73,7.73,0,0,0,49.22,2.86l-.57.71L1.72,61.46a7.73,7.73,0,0,0-1.41,7L3.43,79.2A7.73,7.73,0,0,0,6,83L24.15,97.77a7.78,7.78,0,0,0,4.69,1.72L52,100a7.71,7.71,0,0,0,6.17-2.86L94.62,52.22a7.73,7.73,0,0,0,1.72-4.81l.07-12.51A7.69,7.69,0,0,0,93.55,28.85ZM65.9,68.6c-1.19,3.57-25.38,12.7-29.34,8.73s-15.08-22.2-13.5-27S37.34,39.26,37.34,39.26s-6.74,8.33-7.93,11.9S37.35,67,42.5,67.41c3,.24,8-1,11.67-1.68C65,63.62,58,45,58,45c-.33-2.49-3.3-5.61-4.9-3.67l-9,13.44-1-1.58c-2-3.1,5.17-16.93,7.15-20,2.14-3.37,4.1-6.71,5.63-6.2a11.33,11.33,0,0,1,2.93,2.25c6.06,5.7,7.42,13.93,8.74,22.14C68.71,58.72,66.53,66.7,65.9,68.6Z"/></g></g></svg>