<svg xmlns="http://www.w3.org/2000/svg" viewBox="0 0 100 62.41"><defs><style>.cls-1{fill:#fff;}</style></defs><g id="Слой_2" data-name="Слой 2"><g id="icons"><g id="Tank"><path class="cls-1" d="M99.26,12.8a2.72,2.72,0,0,1-2.71,2.91h-41l.38,3h-45a11.05,11.05,0,0,1,3.71-8.52c.31-.28,74.49.09,81.93.09a2.72,2.72,0,0,1,2.71,2.52Z"/><path class="cls-1" d="M50.12,25.56H86.77a13,13,0,0,1,3.17,25.66c-.53.13-.75.29-.79.87a10.68,10.68,0,0,1-11,10.29q-28.08.07-56.15,0A10.91,10.91,0,0,1,10.87,52.23c-.08-.68-.31-.89-1-1A13,13,0,0,1,0,37.87,13.12,13.12,0,0,1,10.94,25.76a19,19,0,0,1,2.82-.19ZM16.64,51.23a5.49,5.49,0,0,0,5.47,5.49,5.49,5.49,0,1,0,0-11A5.45,5.45,0,0,0,16.64,51.23Zm61.2-5.48a5.49,5.49,0,1,0,5.48,5.46A5.46,5.46,0,0,0,77.84,45.75ZM35.22,51.23a5.5,5.5,0,0,0,5.47,5.49,5.49,5.49,0,1,0,0-11A5.45,5.45,0,0,0,35.22,51.23Zm29.52,0a5.48,5.48,0,0,0-10.95,0,5.48,5.48,0,1,0,10.95,0Z"/><path class="cls-1" d="M23.17,0H36a8.62,8.62,0,0,1,8.62,8.62v2a0,0,0,0,1,0,0H14.55a0,0,0,0,1,0,0v-2A8.62,8.62,0,0,1,23.17,0Z"/></g></g></g></svg>