<svg xmlns="http://www.w3.org/2000/svg" viewBox="0 0 100 85.42"><defs><style>.cls-1{fill:#fff;}</style></defs><g id="Слой_2" data-name="Слой 2"><g id="icons"><g id="Tape"><rect class="cls-1" x="28.13" width="44.79" height="85.42"/><path class="cls-1" d="M12.5,0A12.54,12.54,0,0,0,0,12.5V72.92a12.54,12.54,0,0,0,12.5,12.5h7.29V0ZM9.62,74.44a3.85,3.85,0,1,1,3.84-3.85A3.85,3.85,0,0,1,9.62,74.44Zm0-18.27a3.85,3.85,0,1,1,3.84-3.85A3.85,3.85,0,0,1,9.62,56.17Zm0-18.27a3.85,3.85,0,1,1,3.84-3.85A3.85,3.85,0,0,1,9.62,37.9Zm0-18.27a3.85,3.85,0,1,1,3.84-3.84A3.84,3.84,0,0,1,9.62,19.63Z"/><path class="cls-1" d="M87.5,0H81.25V85.42H87.5A12.54,12.54,0,0,0,100,72.92V12.5A12.54,12.54,0,0,0,87.5,0Zm2.88,74.44a3.85,3.85,0,1,1,3.85-3.85A3.84,3.84,0,0,1,90.38,74.44Zm0-18.27a3.85,3.85,0,1,1,3.85-3.85A3.84,3.84,0,0,1,90.38,56.17Zm0-18.27a3.85,3.85,0,1,1,3.85-3.85A3.84,3.84,0,0,1,90.38,37.9Zm0-18.27a3.85,3.85,0,1,1,3.85-3.84A3.84,3.84,0,0,1,90.38,19.63Z"/></g></g></g></svg>