<svg xmlns="http://www.w3.org/2000/svg" viewBox="0 0 92.99 100"><defs><style>.cls-1{fill:#fff;}</style></defs><g id="Слой_2" data-name="Слой 2"><g id="icons"><g id="Target"><circle class="cls-1" cx="42.48" cy="48.17" r="8.17"/><path class="cls-1" d="M52.53,39.82A13.07,13.07,0,1,1,42.29,35.1l6-5.67a19.63,19.63,0,1,0,8.62,5.42Z"/><rect class="cls-1" x="60.27" y="-1.22" width="6.44" height="59" rx="2.92" transform="translate(41.56 -37.67) rotate(47.59)"/><path class="cls-1" d="M71.92,17.57l-4.3,4.93a35.87,35.87,0,1,1-6.7-5.18l4.87-4.64a42.51,42.51,0,1,0,6.13,4.89Z"/><path class="cls-1" d="M60.09,31.14a24.42,24.42,0,1,1-7.91-5.48l5-4.8A31.07,31.07,0,1,0,64.4,26.2Z"/><path class="cls-1" d="M76,15.49l-1.63-9L80.53.32A1.07,1.07,0,0,1,82.36,1l1,8.81Z"/><path class="cls-1" d="M76.9,16.41l8.66,2.9,7-5.23a1.07,1.07,0,0,0-.37-1.9L83.61,10Z"/><polygon class="cls-1" points="24.14 100 4.51 100 13.86 79.43 24.14 79.43 24.14 100"/><polygon class="cls-1" points="61.54 100 81.17 100 71.82 79.43 61.54 79.43 61.54 100"/></g></g></g></svg>