<svg xmlns="http://www.w3.org/2000/svg" viewBox="0 0 93.84 100"><defs><style>.cls-1{fill:#fff;}</style></defs><g id="Слой_2" data-name="Слой 2"><g id="icons"><path id="Ticket" class="cls-1" d="M64.32,67.46c-1-.76-.93-2.48.11-3.83s2.69-1.83,3.67-1.08l1.29,1L93.84,31.83,87.59,27a7.11,7.11,0,0,1-11.26-8.69L69.45,13A7.11,7.11,0,1,1,58.19,4.34L52.56,0,28.13,31.69,30,33.09c1,.76.93,2.48-.11,3.83S27.15,38.75,26.17,38l-1.82-1.41L0,68.17l5.63,4.34a7.11,7.11,0,0,1,11.26,8.68l6.88,5.31A7.1,7.1,0,1,1,35,95.18L41.28,100,65.61,68.45ZM45.65,49.4c-1,1.35-2.69,1.83-3.67,1.08L32.7,43.33c-1-.76-.93-2.48.11-3.83s2.7-1.83,3.68-1.08l9.27,7.15C46.74,46.33,46.69,48.05,45.65,49.4ZM61.46,61.88c-1,1.35-2.7,1.83-3.68,1.08l-9.27-7.15c-1-.76-.93-2.48.11-3.83s2.69-1.83,3.67-1.08l9.28,7.15C62.55,58.81,62.5,60.53,61.46,61.88Z"/></g></g></svg>