<svg xmlns="http://www.w3.org/2000/svg" viewBox="0 0 80.43 100"><defs><style>.cls-1{fill:#fff;}</style></defs><g id="Слой_2" data-name="Слой 2"><g id="icons"><g id="Timer"><path class="cls-1" d="M40.22,19.57A40.22,40.22,0,1,0,80.43,59.78,40.22,40.22,0,0,0,40.22,19.57Zm0,68.47A28.26,28.26,0,0,1,25.8,35.47L40.22,59.78H68.48A28.39,28.39,0,0,1,40.22,88Z"/><path class="cls-1" d="M40.22,14.13a44,44,0,0,1,4.89.28V9.24a4.89,4.89,0,0,0-9.78,0v5.17A43.7,43.7,0,0,1,40.22,14.13Z"/><rect class="cls-1" x="35.33" y="-12.5" width="9.78" height="34.78" rx="4.5" transform="translate(45.11 -35.33) rotate(90)"/></g></g></g></svg>