<svg xmlns="http://www.w3.org/2000/svg" viewBox="0 0 74.01 100"><defs><style>.cls-1{fill:#fff;}</style></defs><g id="Слой_2" data-name="Слой 2"><g id="icons"><g id="Trashcan"><path class="cls-1" d="M5.65,16.45H68.36A5.65,5.65,0,0,1,74,22.1V32.78a0,0,0,0,1,0,0H0a0,0,0,0,1,0,0V22.1A5.65,5.65,0,0,1,5.65,16.45Z"/><path class="cls-1" d="M3.37,40,8.55,96.36H16.7L12.57,49.43a3.34,3.34,0,0,1,6.66-.58L23.4,96.36H33.46l0-47.37a3.34,3.34,0,0,1,6.68,0l0,47.38h10l4.18-47.51a3.34,3.34,0,1,1,6.65.58L56.9,96.36h8L70.64,40Z"/><path class="cls-1" d="M57.33,27.6H50.05v-19a1.38,1.38,0,0,0-1.36-1.37H26.38A1.38,1.38,0,0,0,25,8.64v19H17.75v-19A8.64,8.64,0,0,1,26.38,0H48.69a8.65,8.65,0,0,1,8.64,8.64Z"/><rect class="cls-1" x="8.55" y="92.73" width="56.36" height="7.27"/></g></g></g></svg>