<svg xmlns="http://www.w3.org/2000/svg" viewBox="0 0 79.25 100"><defs><style>.cls-1{fill:#fff;}</style></defs><g id="Слой_2" data-name="Слой 2"><g id="icons"><g id="Tree"><path class="cls-1" d="M60.38,17.22h.51A25.47,25.47,0,0,0,11.36,24a15.87,15.87,0,0,1,3.73-.46A16,16,0,0,1,27.85,49.31c.58.22,1.16.42,1.76.6L25.47,100H46.23L42.4,53.61a22.63,22.63,0,0,1,18-36.39Z"/><circle class="cls-1" cx="62.26" cy="41.51" r="16.98"/><circle class="cls-1" cx="12.26" cy="41.51" r="12.26"/><path class="cls-1" d="M17,56.6V47.17H11.32V62.26a1.89,1.89,0,0,0,1.89,1.89H31.13V56.6Z"/><path class="cls-1" d="M55.66,62.26V52.83h5.66V67.92a1.88,1.88,0,0,1-1.89,1.89H41.51V62.26Z"/></g></g></g></svg>