<svg xmlns="http://www.w3.org/2000/svg" viewBox="0 0 100 78.34"><defs><style>.cls-1{fill:#fff;}</style></defs><g id="Слой_2" data-name="Слой 2"><g id="icons"><path id="Triangle_Exclamation" class="cls-1" d="M99.7,75.4,51.56.84a1.83,1.83,0,0,0-3.08,0L.3,75.51a1.83,1.83,0,0,0,1.54,2.83l96.33-.11A1.83,1.83,0,0,0,99.7,75.4Zm-47-3.1H47.3a1.83,1.83,0,0,1-1.83-1.83V65.1a1.83,1.83,0,0,1,1.83-1.84h5.43a1.84,1.84,0,0,1,1.84,1.84l0,5.37A1.83,1.83,0,0,1,52.71,72.3Zm-.29-15.73H47.59a1.82,1.82,0,0,1-1.82-1.7L43.94,28.74a1.82,1.82,0,0,1,1.82-2h8.49a1.84,1.84,0,0,1,1.83,2L54.25,54.87A1.83,1.83,0,0,1,52.42,56.57Z"/></g></g></svg>