<svg xmlns="http://www.w3.org/2000/svg" viewBox="0 0 100 65.96"><defs><style>.cls-1{fill:#fff;}</style></defs><g id="Слой_2" data-name="Слой 2"><g id="icons"><g id="Trolley"><rect class="cls-1" width="32.5" height="7.65" rx="3.82"/><path class="cls-1" d="M36.28,41.68l-11-36.21A3.82,3.82,0,0,1,27.77.7h0a3.84,3.84,0,0,1,4.78,2.55L43.6,39.46a3.83,3.83,0,0,1-2.55,4.77h0A3.83,3.83,0,0,1,36.28,41.68Z"/><path class="cls-1" d="M90.07,44H56.79a4.44,4.44,0,0,1-4.24-3.11L42.06,7.65h52.2a5.72,5.72,0,0,1,5.61,6.91L94.43,40.44A4.45,4.45,0,0,1,90.07,44Z"/><path class="cls-1" d="M48.75,48.75a8.61,8.61,0,1,0,8.61,8.61A8.61,8.61,0,0,0,48.75,48.75Zm0,12.43a3.83,3.83,0,1,1,3.83-3.82A3.82,3.82,0,0,1,48.75,61.18Z"/><path class="cls-1" d="M81.26,48.75a8.61,8.61,0,1,0,8.6,8.61A8.61,8.61,0,0,0,81.26,48.75Zm0,12.43a3.83,3.83,0,1,1,3.82-3.82A3.82,3.82,0,0,1,81.26,61.18Z"/></g></g></g></svg>