<svg xmlns="http://www.w3.org/2000/svg" viewBox="0 0 80.67 100"><defs><style>.cls-1{fill:#fff;}</style></defs><g id="Слой_2" data-name="Слой 2"><g id="icons"><g id="TV"><path class="cls-1" d="M67.75,88.87H12.91A12.91,12.91,0,0,1,0,76V43.37A12.91,12.91,0,0,1,12.91,30.46H67.75A12.92,12.92,0,0,1,80.67,43.37V76A12.92,12.92,0,0,1,67.75,88.87ZM12.91,38.81a4.57,4.57,0,0,0-4.57,4.56V76a4.58,4.58,0,0,0,4.57,4.57H67.75A4.57,4.57,0,0,0,72.32,76V43.37a4.56,4.56,0,0,0-4.57-4.56Z"/><path class="cls-1" d="M29.21,32.32a11.13,11.13,0,1,1,22.25,0Z"/><polygon class="cls-1" points="15.3 100 8.35 100 8.35 85.17 25.03 85.17 15.3 100"/><polygon class="cls-1" points="65.37 100 72.32 100 72.32 85.17 55.63 85.17 65.37 100"/><rect class="cls-1" x="9.27" y="11.92" width="38.01" height="8.34" rx="4.17" transform="translate(24.38 -16.21) rotate(53.48)"/><rect class="cls-1" x="33.38" y="11.92" width="38.01" height="8.34" rx="4.17" transform="translate(96.49 -16.43) rotate(126.52)"/></g></g></g></svg>