<svg xmlns="http://www.w3.org/2000/svg" viewBox="0 0 89.28 100"><defs><style>.cls-1{fill:#fff;}</style></defs><g id="Слой_2" data-name="Слой 2"><g id="icons"><g id="Vane"><path class="cls-1" d="M46.32,18.18S43.17,21.11,54.55,28,72.34,41.81,65.24,54.15,47,71.32,46.41,80.1l-5.63.8s.71-9.26,1.3-12.75,4.76-24.43-3.52-41.26S46.86.1,52.29,8.8C52.29,8.8,57.06,16.19,46.32,18.18Z"/><path class="cls-1" d="M45.1,66.41s-1-41.23-27.72-36.67c-25.87,4.42-12.89,31.75.49,42.12a2.71,2.71,0,0,0,4-3.4C19.59,63.91,18.8,58.56,26,56.4,39.58,52.31,42,77,42,77Z"/><path class="cls-1" d="M47.83,7s2.22-5-2.14-6.68C41.91-1.18,43.18,3.66,40.57,5s-6.47-1.4-7.33,4.4c-.55,3.76,2.27,7.8,5.15,12C38.39,21.33,37.25,10,47.83,7Z"/><path class="cls-1" d="M51.68,11.06s7,2.25,7,3.34-6.15,2.08-6.15,2.08,4.91,1.44,4.58,5.68S50,24.89,49.3,20.55c-1-6.38-6.95-3.05-6.95-3.05S43.44,9.9,51.68,11.06Z"/><rect class="cls-1" y="79.76" width="74.51" height="8.05"/><polygon class="cls-1" points="89.28 83.88 76.25 67.76 80.59 84.1 76.25 100 89.28 83.88"/></g></g></g></svg>