<svg xmlns="http://www.w3.org/2000/svg" viewBox="0 0 100 84.15"><defs><style>.cls-1{fill:#fff;}</style></defs><g id="Слой_2" data-name="Слой 2"><g id="icons"><g id="Vibration_Phone"><path class="cls-1" d="M70.28,57.8V74.38a.24.24,0,0,1-.24.24H29.78a.23.23,0,0,1-.23-.24V9.77a.23.23,0,0,1,.23-.24H70a.24.24,0,0,1,.24.24V59.46l9.53,1.29v-51A9.78,9.78,0,0,0,70,0H29.78A9.78,9.78,0,0,0,20,9.77V74.38a9.78,9.78,0,0,0,9.77,9.77H70a9.78,9.78,0,0,0,9.77-9.77V56.44Z"/><polygon class="cls-1" points="96.33 75.38 86.35 66.47 94.28 59.38 86.35 52.3 94.28 45.21 86.35 38.13 94.68 30.69 86.35 23.25 96.33 14.34 98.69 16.98 91.67 23.25 100 30.69 91.67 38.13 99.6 45.21 91.67 52.3 99.6 59.38 91.67 66.47 98.69 72.74 96.33 75.38"/><polygon class="cls-1" points="3.67 75.38 1.31 72.74 8.33 66.47 0 59.03 8.33 51.59 0.4 44.51 8.33 37.42 0.4 30.34 8.33 23.25 1.31 16.98 3.67 14.34 13.65 23.25 5.71 30.34 13.65 37.42 5.71 44.51 13.65 51.59 5.32 59.03 13.65 66.47 3.67 75.38"/></g></g></g></svg>