<svg xmlns="http://www.w3.org/2000/svg" viewBox="0 0 100 77.12"><defs><style>.cls-1{fill:#fff;}</style></defs><g id="Слой_2" data-name="Слой 2"><g id="icons"><g id="WiFi_Off"><path class="cls-1" d="M60.44,53.55a18.79,18.79,0,0,1,4,3.72l.42.2L100,22.74l-.3-.3A70.7,70.7,0,0,0,34.21,3.68Z"/><path class="cls-1" d="M27.75,5.45A69.68,69.68,0,0,0,0,22.44L34.79,57.23a19,19,0,0,1,14.8-7.09c.58,0,1.15,0,1.71.08Z"/><path class="cls-1" d="M56.19,59.52a9.86,9.86,0,1,0,3.68,7.68c0-.25,0-.5,0-.76Z"/><rect class="cls-1" x="38.81" y="-4.58" width="6.54" height="86.29" rx="3.27" transform="translate(97.28 53.07) rotate(152.22)"/></g></g></g></svg>