<svg xmlns="http://www.w3.org/2000/svg" viewBox="0 0 100 92.81"><defs><style>.cls-1{fill:#fff;}</style></defs><g id="Слой_2" data-name="Слой 2"><g id="icons"><g id="Window_1"><path class="cls-1" d="M54.33,42H100A292.76,292.76,0,0,0,96.83,3.33,3.91,3.91,0,0,0,93,0H54.33Z"/><rect class="cls-1" x="54.33" y="50.83" width="17.68" height="41.99"/><path class="cls-1" d="M45.49,0H6.91A3.91,3.91,0,0,0,3,3.37,308,308,0,0,0,3,89.45a3.91,3.91,0,0,0,3.89,3.36H45.49Z"/><path class="cls-1" d="M80.85,50.83v42H93a3.91,3.91,0,0,0,3.88-3.33A292.75,292.75,0,0,0,100,50.83Z"/></g></g></g></svg>