<svg xmlns="http://www.w3.org/2000/svg" viewBox="0 0 100 94.86"><defs><style>.cls-1{fill:#fff;}</style></defs><g id="Слой_2" data-name="Слой 2"><g id="icons"><g id="Window_2"><path class="cls-1" d="M39.1,38.11a2.36,2.36,0,0,1,2.34-2H93.05l.2,0a272.24,272.24,0,0,0-2.89-33A3.65,3.65,0,0,0,86.74,0H6.44A3.67,3.67,0,0,0,2.81,3.14a288.2,288.2,0,0,0,0,80.33,3.67,3.67,0,0,0,3.63,3.14H38.72A185.3,185.3,0,0,1,39.1,38.11Z"/><path class="cls-1" d="M96.37,94.86h-44a2,2,0,0,1-2-1.72,158.31,158.31,0,0,1,0-44,2,2,0,0,1,2-1.72h44a2,2,0,0,1,2,1.7,148.56,148.56,0,0,1,0,44.06A2,2,0,0,1,96.37,94.86Z"/></g></g></g></svg>