<svg xmlns="http://www.w3.org/2000/svg" viewBox="0 0 100 75.61"><defs><style>.cls-1{fill:#fff;}</style></defs><g id="Слой_2" data-name="Слой 2"><g id="icons"><g id="Wreath"><path class="cls-1" d="M64.91,74.85a3.05,3.05,0,0,1-1.57-5.67,27.48,27.48,0,0,0,0-47.2,3.05,3.05,0,0,1,3.13-5.24,33.57,33.57,0,0,1,0,57.67A3,3,0,0,1,64.91,74.85Z"/><path class="cls-1" d="M66.84,23.89S58.51,19.45,55.65,16A13.52,13.52,0,0,1,54.74.3a.64.64,0,0,1,1.17.23c.48,2.47,2,7.13,6.59,8.84C68.91,11.74,66.84,23.89,66.84,23.89Z"/><path class="cls-1" d="M72.8,27.87S67.31,20.1,70,13.92c2.18-5.09,5.56-7.78,6.19-11a.87.87,0,0,1,1.58-.3,14.4,14.4,0,0,1,1.94,9.58C78.78,20.1,72.6,22.75,73.48,28Z"/><path class="cls-1" d="M77.41,35.94s-3.15-9.31,1.28-14.64c3.68-4.42,7.85-6.08,9.41-9.16a.86.86,0,0,1,1.59.16,14.74,14.74,0,0,1-.87,10.11C85.61,30,78.72,30.81,78,36.31Z"/><path class="cls-1" d="M78.14,45.46s.48-9.85,6.57-13.19c5.06-2.78,9.56-2.79,12.15-5.1a.87.87,0,0,1,1.43.73A14.83,14.83,0,0,1,93.75,37C88,42.93,81.24,41.15,78.58,46Z"/><path class="cls-1" d="M76.47,59.31s2.45-9.66,9.16-11.75c5.59-1.74,10.06-.85,13.08-2.63a.86.86,0,0,1,1.25,1,15,15,0,0,1-6.32,8.15C86.72,58.78,80.41,55.66,76.8,60Z"/><path class="cls-1" d="M65.92,73.32s4.25-10,11.83-11.11c6.38-1,11.08.81,14.64-.7a.88.88,0,0,1,1.14,1.16,16.28,16.28,0,0,1-8.27,7.9c-8.23,3.89-14.49-.52-19.09,3.51Z"/><path class="cls-1" d="M35.09,75.61a3.05,3.05,0,0,0,1.57-5.67,27.48,27.48,0,0,1,0-47.2,3.05,3.05,0,0,0-3.13-5.24,33.58,33.58,0,0,0,0,57.68A3.06,3.06,0,0,0,35.09,75.61Z"/><path class="cls-1" d="M33.16,24.65s8.33-4.44,11.19-7.89a13.51,13.51,0,0,0,.91-15.7.64.64,0,0,0-1.17.23c-.48,2.47-2,7.13-6.59,8.84C31.09,12.51,33.16,24.65,33.16,24.65Z"/><path class="cls-1" d="M27.2,28.63s5.49-7.77,2.85-13.94c-2.18-5.09-5.56-7.79-6.19-11a.87.87,0,0,0-1.58-.3,14.4,14.4,0,0,0-1.94,9.58c.88,7.94,7.06,10.59,6.18,15.88Z"/><path class="cls-1" d="M22.59,36.7s3.15-9.3-1.28-14.63c-3.68-4.42-7.85-6.09-9.41-9.16a.86.86,0,0,0-1.59.15,14.77,14.77,0,0,0,.87,10.12c3.21,7.59,10.1,8.39,10.79,13.89Z"/><path class="cls-1" d="M21.86,46.22S21.38,36.38,15.29,33c-5.06-2.77-9.56-2.79-12.15-5.09a.87.87,0,0,0-1.43.73,14.85,14.85,0,0,0,4.54,9.12c5.79,5.91,12.51,4.12,15.17,9Z"/><path class="cls-1" d="M23.53,60.07s-2.45-9.65-9.16-11.75c-5.59-1.74-10.06-.85-13.08-2.63a.86.86,0,0,0-1.25,1,14.93,14.93,0,0,0,6.32,8.15c6.92,4.7,13.23,1.59,16.84,5.89Z"/><path class="cls-1" d="M34.08,74.08S29.83,64.1,22.25,63c-6.38-.95-11.08.82-14.64-.69a.87.87,0,0,0-1.14,1.16,16.27,16.27,0,0,0,8.27,7.89c8.23,3.89,14.49-.51,19.09,3.51Z"/></g></g></g></svg>