<svg xmlns="http://www.w3.org/2000/svg" viewBox="0 0 100 98.12"><defs><style>.cls-1{fill:#fff;}</style></defs><g id="Слой_2" data-name="Слой 2"><g id="icons"><path id="Wrench" class="cls-1" d="M4,75.84,38.29,43.41a19.23,19.23,0,0,0,6.08-14.58c0-.53,0-1.06,0-1.59A27.81,27.81,0,0,1,89.24,5.86L68.88,18.16C65.94,30,81.45,37.72,81.45,37.72L100,26.16c0,.55,0,1.1,0,1.66A27.84,27.84,0,0,1,64.66,54.61a3.57,3.57,0,0,1-.45.51L22.64,94.46A13.64,13.64,0,0,1,3.77,94.2h0A12.77,12.77,0,0,1,4,75.84Z"/></g></g></svg>