<svg xmlns="http://www.w3.org/2000/svg" viewBox="0 0 99.39 100"><defs><style>.cls-1{fill:#fff;}</style></defs><g id="Слой_2" data-name="Слой 2"><g id="icons"><g id="Yin_Yang"><path class="cls-1" d="M54,100H49.31c-1.7-.38-3.45-.62-5.11-1.15A22.57,22.57,0,0,1,28.57,78.06,22,22,0,0,1,35.51,61a22.45,22.45,0,0,1,15.72-6.38c9.52-.22,17.32-4,22.85-11.77,6.34-8.88,7.13-18.5,2.75-28.5-.74-1.68-1.78-3.24-2.72-4.92l.69.37A48.34,48.34,0,0,1,98.64,43.42c.32,1.84.5,3.71.75,5.56v5.65c-.06.33-.13.66-.17,1-.23,1.73-.36,3.49-.69,5.21A47.11,47.11,0,0,1,85.47,85.67a47,47,0,0,1-26,13.59C57.69,99.57,55.85,99.76,54,100ZM51.2,88.6A11.29,11.29,0,1,0,39.9,77.3,11.3,11.3,0,0,0,51.2,88.6Z"/><path class="cls-1" d="M24.78,90.49a37.57,37.57,0,0,1-8.6-5.75C8.59,78.13,3.22,70,1,60.2-3.51,40.29,6.8,4.74,42.85.28A25.11,25.11,0,0,1,56.08,1.71c7.79,3.36,12.64,9.2,13.91,17.6C71.57,29.74,66.37,39,56.8,43.46a22.23,22.23,0,0,1-9.13,2,28.13,28.13,0,0,0-12.26,2.82A28.34,28.34,0,0,0,24.32,89.79C24.48,90,24.63,90.25,24.78,90.49ZM47.64,34.15a11.3,11.3,0,1,0-11.3-11.31A11.3,11.3,0,0,0,47.64,34.15Z"/><path class="cls-1" d="M47.62,28.49A5.65,5.65,0,0,1,42,22.87a5.65,5.65,0,1,1,11.29,0A5.65,5.65,0,0,1,47.62,28.49Z"/></g></g></g></svg>